<svg id="Pattern" xmlns="http://www.w3.org/2000/svg" xmlns:xlink="http://www.w3.org/1999/xlink" viewBox="0 0 1200 800"><defs><style>.cls-1,.cls-3{fill:none;}.cls-2{clip-path:url(#clip-path);}.cls-3{stroke:#449EFD;stroke-miterlimit:10;stroke-width:0.5px;}.cls-4{fill:#449EFD;}</style><clipPath id="clip-path"><rect class="cls-1" width="1200" height="800"/></clipPath></defs><title>home1</title><g class="cls-2"><polygon class="cls-3" points="1086.16 788.38 992.07 813.7 1018.47 936.83 1172.43 846.55 1086.16 788.38"/><line class="cls-3" x1="954.94" y1="853.03" x2="867.5" y2="796"/><line class="cls-3" x1="867.5" y1="796" x2="725.89" y2="833.37"/><line class="cls-3" x1="451" y1="830" x2="583.5" y2="762"/><line class="cls-3" x1="583.5" y1="762" x2="628.52" y2="823.31"/><line class="cls-3" x1="660.86" y1="788.4" x2="664.5" y2="820"/><line class="cls-3" x1="725.89" y1="833.37" x2="793.28" y2="788.76"/><line class="cls-3" x1="664.5" y1="820" x2="793.28" y2="788.76"/><line class="cls-3" x1="793.28" y1="788.76" x2="660.86" y2="788.4"/><line class="cls-3" x1="320.08" y1="869.12" x2="272.08" y2="732.67"/><line class="cls-3" x1="76.67" y1="746" x2="48.84" y2="852.15"/><line class="cls-3" x1="629.5" y1="716.5" x2="660.86" y2="788.4"/><line class="cls-3" x1="583.5" y1="762" x2="660.86" y2="788.4"/><circle class="cls-4" cx="867.5" cy="796" r="3.17"/><circle class="cls-4" cx="793.28" cy="788.76" r="3.17"/><circle class="cls-4" cx="660.86" cy="788.4" r="3.17"/><circle class="cls-4" cx="1085.96" cy="789.49" r="3.17"/><polygon class="cls-3" points="1155.78 195.7 1257.32 178.68 1335.9 247.7 1184.3 332.99 1155.78 195.7"/><polygon class="cls-3" points="1345.12 489.23 1276.07 489.23 1198.37 622 1401.88 588 1345.12 489.23"/><line class="cls-3" x1="1198.37" y1="622" x2="1276.07" y2="652.91"/><line class="cls-3" x1="1276.83" y1="746.54" x2="1198.37" y2="622"/><line class="cls-3" x1="1184.3" y1="332.99" x2="1321.1" y2="384.95"/><line class="cls-3" x1="1276.07" y1="489.23" x2="1184.3" y2="332.99"/><line class="cls-3" x1="1222.08" y1="71.73" x2="1155.78" y2="195.7"/><line class="cls-3" x1="1155" y1="453.26" x2="1208.62" y2="491.25"/><line class="cls-3" x1="1171" y1="46.23" x2="1222.08" y2="71.73"/><line class="cls-1" x1="1184.3" y1="332.99" x2="1322.15" y2="382.93"/><polygon class="cls-3" points="182.03 253.43 121.1 384.95 126.69 420.47 239.54 392 182.03 253.43"/><polygon class="cls-3" points="-44.22 195.7 57.31 178.68 135.91 247.7 -15.7 332.99 -44.22 195.7"/><polygon class="cls-3" points="272.08 221.06 328.2 221.06 372.15 281.52 259.73 353.29 272.08 221.06"/><polygon class="cls-3" points="559.55 292.17 492.64 292.17 452.27 384.95 559.09 440.85 559.55 292.17"/><polygon class="cls-3" points="580.28 531.89 581.02 631.62 455.23 617.89 552.33 486.95 580.28 531.89"/><polygon class="cls-3" points="275.88 136.29 177.01 229.94 151.9 186.39 151.9 51.61 275.88 136.29"/><polygon class="cls-3" points="220.52 705.08 164.03 811.52 76.83 746.54 76.07 652.91 220.52 705.08"/><polygon class="cls-3" points="394.56 262.85 440.93 286.62 545.38 232.78 435.46 196.6 394.56 262.85"/><polygon class="cls-3" points="326.38 432.01 406.72 359.7 435.37 439.03 313.72 522.79 326.38 432.01"/><polygon class="cls-3" points="145.12 489.23 76.07 489.23 -1.63 622 201.88 588 145.12 489.23"/><polygon class="cls-3" points="377.73 48.68 320.08 69.12 351.69 176.9 481.59 80.47 377.73 48.68"/><polygon class="cls-3" points="48.84 52.15 22.08 71.73 57.65 94.65 83.8 76.06 48.84 52.15"/><line class="cls-3" x1="239.54" y1="392" x2="326.38" y2="432.01"/><line class="cls-3" x1="406.72" y1="359.7" x2="239.54" y2="392"/><line class="cls-3" x1="313.72" y1="522.79" x2="239.54" y2="392"/><line class="cls-3" x1="126.69" y1="420.47" x2="204.96" y2="486.06"/><line class="cls-3" x1="198.71" y1="428.84" x2="204.96" y2="486.06"/><line class="cls-3" x1="259.73" y1="566.02" x2="204.96" y2="486.06"/><line class="cls-3" x1="145.12" y1="489.23" x2="204.96" y2="486.06"/><line class="cls-3" x1="201.88" y1="588" x2="204.96" y2="486.06"/><line class="cls-3" x1="259.73" y1="566.02" x2="201.88" y2="588"/><line class="cls-3" x1="76.07" y1="489.23" x2="126.69" y2="420.47"/><line class="cls-3" x1="145.12" y1="489.23" x2="126.69" y2="420.47"/><line class="cls-3" x1="239.54" y1="392" x2="259.73" y2="353.29"/><line class="cls-3" x1="182.03" y1="253.43" x2="259.73" y2="353.29"/><line class="cls-3" x1="272.08" y1="221.06" x2="182.03" y2="253.43"/><line class="cls-3" x1="372.15" y1="281.53" x2="239.54" y2="392"/><line class="cls-3" x1="406.72" y1="359.7" x2="372.15" y2="281.53"/><line class="cls-3" x1="435.37" y1="439.03" x2="455.23" y2="617.89"/><line class="cls-3" x1="552.33" y1="486.95" x2="435.37" y2="439.03"/><line class="cls-3" x1="313.72" y1="522.79" x2="455.23" y2="617.89"/><line class="cls-3" x1="406.72" y1="359.7" x2="409.61" y2="299.82"/><line class="cls-3" x1="492.64" y1="292.17" x2="409.61" y2="299.82"/><line class="cls-3" x1="369.04" y1="283.66" x2="394.56" y2="262.85"/><line class="cls-3" x1="440.93" y1="286.62" x2="409.61" y2="299.82"/><line class="cls-3" x1="372.15" y1="281.53" x2="409.61" y2="299.82"/><line class="cls-3" x1="440.93" y1="286.62" x2="492.64" y2="292.17"/><line class="cls-3" x1="545.38" y1="232.78" x2="492.64" y2="292.17"/><line class="cls-3" x1="559.55" y1="292.17" x2="545.38" y2="232.78"/><line class="cls-3" x1="409.61" y1="299.82" x2="452.27" y2="384.95"/><line class="cls-3" x1="406.72" y1="359.7" x2="452.27" y2="384.95"/><line class="cls-3" x1="435.37" y1="439.03" x2="452.27" y2="384.95"/><line class="cls-3" x1="552.33" y1="486.95" x2="452.27" y2="384.95"/><line class="cls-3" x1="559.09" y1="440.85" x2="552.33" y2="486.95"/><line class="cls-3" x1="590.76" y1="317.52" x2="559.09" y2="440.85"/><line class="cls-3" x1="559.55" y1="292.17" x2="590.76" y2="317.52"/><line class="cls-3" x1="409.61" y1="299.82" x2="394.56" y2="262.85"/><line class="cls-3" x1="351.68" y1="176.9" x2="394.56" y2="262.85"/><line class="cls-3" x1="328.2" y1="221.06" x2="351.68" y2="176.9"/><line class="cls-3" x1="394.56" y1="262.85" x2="328.2" y2="221.06"/><line class="cls-3" x1="435.46" y1="196.6" x2="351.68" y2="176.9"/><line class="cls-3" x1="481.59" y1="80.47" x2="435.46" y2="196.6"/><line class="cls-3" x1="545.38" y1="232.78" x2="481.59" y2="80.47"/><line class="cls-3" x1="272.08" y1="221.06" x2="320.08" y2="69.12"/><line class="cls-3" x1="351.68" y1="176.9" x2="272.08" y2="221.06"/><polygon class="cls-3" points="956.49 235.95 1058.32 147.82 1155.83 195.83 1036.97 329.9 956.49 235.95"/><polygon class="cls-3" points="702.92 614.72 649.36 644.4 629.66 717.86 813.72 672 702.92 614.72"/><polygon class="cls-3" points="1086.16 -11.62 992.07 13.7 1018.47 136.83 1172.43 46.55 1086.16 -11.62"/><polygon class="cls-3" points="898.35 244.71 851.37 278.58 851.12 353.78 970.32 296.07 898.35 244.71"/><polygon class="cls-3" points="706.7 545.49 815.3 422.38 896.46 474.99 825.08 646.36 706.7 545.49"/><polygon class="cls-3" points="958.83 667.38 998.49 708.12 1010.85 641.25 906.99 635.17 958.83 667.38"/><polygon class="cls-3" points="796.45 136.29 956.94 165 954.94 53.03 729.17 128.52 796.45 136.29"/><polygon class="cls-3" points="756.32 356.46 794.31 388.12 714.34 405.25 714.34 380.4 756.32 356.46"/><polygon class="cls-3" points="580.34 193.42 577.17 145.09 637.51 125.96 614.26 156.62 580.34 193.42"/><polygon class="cls-3" points="1021.96 394.38 896.46 425.67 997.97 578.2 1125.92 478.16 1021.96 394.38"/><polygon class="cls-3" points="583.05 762.42 587.58 680.23 507.36 655.8 407.8 801.4 583.05 762.42"/><polygon class="cls-3" points="615.19 198.98 725.89 178.33 766.49 244.71 636.71 293.72 615.19 198.98"/><polygon class="cls-3" points="279.63 622.63 383.78 617.89 439.94 677.06 273.43 733.28 279.63 622.63"/><polygon class="cls-3" points="1198.33 622 1083.67 688.72 1031.5 683.86 1165.5 521.5 1198.33 622"/><line class="cls-3" x1="1036.97" y1="329.9" x2="1021.96" y2="394.38"/><line class="cls-3" x1="896.46" y1="425.66" x2="1036.97" y2="329.9"/><line class="cls-3" x1="1125.92" y1="478.16" x2="1036.97" y2="329.9"/><line class="cls-3" x1="1155.83" y1="195.83" x2="1096.46" y2="360.1"/><line class="cls-3" x1="1036.97" y1="329.9" x2="1096.46" y2="360.1"/><line class="cls-3" x1="1125.92" y1="478.16" x2="1096.46" y2="360.1"/><line class="cls-3" x1="1154.58" y1="452.63" x2="1096.46" y2="360.1"/><line class="cls-3" x1="1125.92" y1="478.16" x2="1154.58" y2="452.63"/><line class="cls-3" x1="1036.97" y1="329.9" x2="970.32" y2="296.07"/><line class="cls-3" x1="956.49" y1="235.95" x2="970.32" y2="296.07"/><line class="cls-3" x1="898.35" y1="244.71" x2="956.49" y2="235.95"/><line class="cls-3" x1="851.12" y1="353.78" x2="1036.97" y2="329.9"/><line class="cls-3" x1="896.46" y1="425.66" x2="851.12" y2="353.78"/><line class="cls-3" x1="997.97" y1="578.2" x2="1010.85" y2="641.25"/><line class="cls-3" x1="906.99" y1="635.17" x2="997.97" y2="578.2"/><line class="cls-3" x1="1125.92" y1="478.16" x2="1010.85" y2="641.25"/><line class="cls-3" x1="896.46" y1="425.66" x2="836.3" y2="396.11"/><line class="cls-3" x1="815.3" y1="422.38" x2="836.3" y2="396.11"/><line class="cls-3" x1="851.12" y1="353.78" x2="756.32" y2="356.46"/><line class="cls-3" x1="794.31" y1="388.12" x2="836.3" y2="396.11"/><line class="cls-3" x1="851.12" y1="353.78" x2="836.3" y2="396.11"/><line class="cls-3" x1="794.31" y1="388.12" x2="815.3" y2="422.38"/><line class="cls-3" x1="714.34" y1="405.25" x2="815.3" y2="422.38"/><line class="cls-3" x1="706.7" y1="545.49" x2="714.34" y2="405.25"/><line class="cls-3" x1="836.3" y1="396.11" x2="896.46" y2="474.99"/><line class="cls-3" x1="896.46" y1="425.66" x2="896.46" y2="474.99"/><line class="cls-3" x1="997.97" y1="578.2" x2="896.46" y2="474.99"/><line class="cls-3" x1="906.99" y1="635.17" x2="896.46" y2="474.99"/><line class="cls-3" x1="825.08" y1="646.36" x2="906.99" y2="635.17"/><line class="cls-3" x1="702.92" y1="614.72" x2="825.08" y2="646.36"/><line class="cls-3" x1="706.7" y1="545.49" x2="702.92" y2="614.72"/><line class="cls-3" x1="836.3" y1="396.11" x2="756.32" y2="356.46"/><line class="cls-3" x1="766.49" y1="244.71" x2="756.32" y2="356.46"/><line class="cls-3" x1="851.37" y1="278.58" x2="766.49" y2="244.71"/><line class="cls-3" x1="756.32" y1="356.46" x2="851.37" y2="278.58"/><line class="cls-3" x1="714.34" y1="380.4" x2="766.49" y2="244.71"/><line class="cls-3" x1="636.71" y1="293.72" x2="714.34" y2="380.4"/><line class="cls-3" x1="714.34" y1="405.25" x2="636.71" y2="293.72"/><line class="cls-3" x1="898.35" y1="244.71" x2="725.89" y2="178.33"/><line class="cls-3" x1="766.49" y1="244.71" x2="898.35" y2="244.71"/><line class="cls-3" x1="201.88" y1="588" x2="279.63" y2="622.62"/><line class="cls-3" x1="259.73" y1="566.02" x2="279.63" y2="622.62"/><line class="cls-3" x1="383.78" y1="617.89" x2="455.23" y2="617.89"/><line class="cls-3" x1="259.73" y1="566.02" x2="383.78" y2="617.89"/><line class="cls-3" x1="259.73" y1="566.02" x2="313.72" y2="522.79"/><line class="cls-3" x1="383.78" y1="617.89" x2="313.72" y2="522.79"/><line class="cls-3" x1="201.88" y1="588" x2="220.52" y2="640"/><line class="cls-3" x1="279.63" y1="622.62" x2="220.52" y2="640"/><line class="cls-3" x1="76.07" y1="652.91" x2="220.52" y2="640"/><line class="cls-3" x1="220.52" y1="705.08" x2="220.52" y2="640"/><line class="cls-3" x1="201.88" y1="588" x2="76.07" y2="652.91"/><line class="cls-3" x1="-1.63" y1="622" x2="76.07" y2="652.91"/><line class="cls-3" x1="76.83" y1="746.54" x2="-1.63" y2="622"/><line class="cls-3" x1="220.52" y1="705.08" x2="273.43" y2="733.28"/><line class="cls-3" x1="279.63" y1="622.62" x2="220.52" y2="705.08"/><line class="cls-3" x1="439.94" y1="677.06" x2="455.23" y2="617.89"/><line class="cls-3" x1="507.36" y1="655.8" x2="581.02" y2="631.62"/><line class="cls-3" x1="439.94" y1="677.06" x2="507.36" y2="655.8"/><line class="cls-3" x1="455.23" y1="617.89" x2="507.36" y2="655.8"/><line class="cls-3" x1="587.58" y1="680.23" x2="581.02" y2="631.62"/><line class="cls-3" x1="649.36" y1="644.4" x2="581.02" y2="631.62"/><line class="cls-3" x1="587.58" y1="680.23" x2="649.36" y2="644.4"/><line class="cls-3" x1="580.28" y1="531.89" x2="649.36" y2="644.4"/><line class="cls-3" x1="580.28" y1="531.89" x2="702.92" y2="614.72"/><line class="cls-3" x1="706.7" y1="545.49" x2="580.28" y2="531.89"/><line class="cls-3" x1="552.33" y1="486.95" x2="706.7" y2="545.49"/><line class="cls-3" x1="714.34" y1="405.25" x2="559.09" y2="440.85"/><line class="cls-3" x1="590.76" y1="317.52" x2="714.34" y2="405.25"/><line class="cls-3" x1="825.08" y1="646.36" x2="813.72" y2="672"/><line class="cls-3" x1="906.99" y1="635.17" x2="813.72" y2="672"/><line class="cls-3" x1="958.83" y1="667.38" x2="813.72" y2="672"/><line class="cls-3" x1="587.58" y1="680.23" x2="629.66" y2="717.86"/><line class="cls-3" x1="583.05" y1="762.42" x2="629.66" y2="717.86"/><line class="cls-3" x1="273.43" y1="733.28" x2="407.79" y2="801.4"/><line class="cls-3" x1="439.94" y1="677.06" x2="407.79" y2="801.4"/><line class="cls-3" x1="164.04" y1="811.52" x2="273.43" y2="733.28"/><line class="cls-3" x1="121.1" y1="384.95" x2="135.9" y2="247.7"/><line class="cls-3" x1="182.03" y1="253.43" x2="135.9" y2="247.7"/><line class="cls-3" x1="177.01" y1="229.94" x2="182.03" y2="253.43"/><line class="cls-3" x1="272.08" y1="221.06" x2="177.01" y2="229.94"/><line class="cls-3" x1="275.88" y1="136.29" x2="320.08" y2="69.12"/><line class="cls-3" x1="272.08" y1="221.06" x2="275.88" y2="136.29"/><line class="cls-3" x1="135.9" y1="247.7" x2="177.01" y2="229.94"/><line class="cls-3" x1="57.31" y1="178.68" x2="151.9" y2="186.39"/><line class="cls-3" x1="135.9" y1="247.7" x2="151.9" y2="186.39"/><line class="cls-3" x1="151.9" y1="51.61" x2="320.08" y2="69.12"/><line class="cls-3" x1="636.71" y1="293.72" x2="590.76" y2="317.52"/><line class="cls-3" x1="559.55" y1="292.17" x2="636.71" y2="293.72"/><line class="cls-3" x1="545.38" y1="232.78" x2="615.19" y2="198.98"/><line class="cls-3" x1="614.26" y1="156.62" x2="615.19" y2="198.98"/><line class="cls-3" x1="580.34" y1="193.42" x2="615.19" y2="198.98"/><line class="cls-3" x1="545.38" y1="232.78" x2="580.34" y2="193.42"/><line class="cls-3" x1="481.59" y1="80.47" x2="577.17" y2="145.09"/><line class="cls-3" x1="725.89" y1="178.33" x2="614.26" y2="156.62"/><line class="cls-3" x1="956.94" y1="165" x2="898.35" y2="244.71"/><line class="cls-3" x1="796.45" y1="136.29" x2="725.89" y2="178.33"/><line class="cls-3" x1="898.35" y1="244.71" x2="796.45" y2="136.29"/><line class="cls-3" x1="956.49" y1="235.95" x2="956.94" y2="165"/><line class="cls-3" x1="1018.47" y1="136.83" x2="956.49" y2="235.95"/><line class="cls-3" x1="956.94" y1="165" x2="1018.47" y2="136.83"/><line class="cls-3" x1="992.07" y1="13.7" x2="954.94" y2="53.03"/><line class="cls-3" x1="1018.47" y1="136.83" x2="954.94" y2="53.03"/><line class="cls-3" x1="1165.5" y1="521.5" x2="1125.92" y2="478.16"/><line class="cls-3" x1="1010.85" y1="641.25" x2="1165.5" y2="521.5"/><line class="cls-3" x1="1031.5" y1="683.86" x2="1010.85" y2="641.25"/><line class="cls-3" x1="998.49" y1="708.12" x2="1031.5" y2="683.86"/><line class="cls-3" x1="1154.58" y1="452.63" x2="1165.5" y2="521.5"/><line class="cls-3" x1="1058.32" y1="147.82" x2="1018.47" y2="136.83"/><line class="cls-3" x1="1155.83" y1="195.83" x2="1172.43" y2="46.55"/><line class="cls-3" x1="198.71" y1="428.84" x2="239.54" y2="392"/><line class="cls-3" x1="239.54" y1="392" x2="204.96" y2="486.06"/><line class="cls-3" x1="126.69" y1="420.47" x2="198.71" y2="428.84"/><line class="cls-3" x1="-15.7" y1="332.99" x2="121.1" y2="384.95"/><line class="cls-3" x1="76.07" y1="489.23" x2="-15.7" y2="332.99"/><line class="cls-3" x1="637.51" y1="125.96" x2="729.17" y2="128.52"/><line class="cls-3" x1="725.89" y1="178.33" x2="729.17" y2="128.52"/><line class="cls-3" x1="954.94" y1="53.03" x2="867.5" y2="-4"/><line class="cls-3" x1="729.17" y1="128.52" x2="725.89" y2="33.37"/><line class="cls-3" x1="867.5" y1="-4" x2="725.89" y2="33.37"/><line class="cls-3" x1="481.59" y1="80.47" x2="637.51" y2="125.96"/><line class="cls-3" x1="151.9" y1="186.39" x2="83.8" y2="76.06"/><line class="cls-3" x1="57.31" y1="178.68" x2="83.8" y2="76.06"/><line class="cls-3" x1="57.65" y1="94.65" x2="57.31" y2="178.68"/><line class="cls-3" x1="151.9" y1="51.61" x2="83.8" y2="76.06"/><line class="cls-3" x1="22.08" y1="71.73" x2="-44.22" y2="195.7"/><line class="cls-3" x1="408" y1="1.33" x2="377.73" y2="48.68"/><line class="cls-3" x1="481.59" y1="80.47" x2="451" y2="30"/><line class="cls-3" x1="408" y1="1.33" x2="451" y2="30"/><line class="cls-3" x1="377.73" y1="48.68" x2="451" y2="30"/><line class="cls-3" x1="451" y1="30" x2="583.5" y2="-38"/><line class="cls-3" x1="583.5" y1="-38" x2="628.52" y2="23.31"/><line class="cls-3" x1="725.89" y1="33.37" x2="664.5" y2="20"/><line class="cls-3" x1="660.86" y1="-11.6" x2="664.5" y2="20"/><line class="cls-3" x1="628.52" y1="23.31" x2="664.5" y2="20"/><line class="cls-3" x1="725.89" y1="33.37" x2="793.28" y2="-11.24"/><line class="cls-3" x1="664.5" y1="20" x2="793.28" y2="-11.24"/><line class="cls-3" x1="151.9" y1="51.61" x2="164" y2="11.5"/><line class="cls-3" x1="320.08" y1="69.12" x2="272.08" y2="-67.33"/><line class="cls-3" x1="164" y1="11.5" x2="320.08" y2="69.12"/><line class="cls-3" x1="83.8" y1="76.06" x2="107.33" y2="40.31"/><line class="cls-3" x1="151.9" y1="51.61" x2="107.33" y2="40.31"/><line class="cls-3" x1="164" y1="11.5" x2="107.33" y2="40.31"/><line class="cls-3" x1="48.84" y1="52.15" x2="107.33" y2="40.31"/><line class="cls-3" x1="76.67" y1="-54" x2="48.84" y2="52.15"/><line class="cls-3" x1="1096.46" y1="360.1" x2="1183.67" y2="333.07"/><line class="cls-3" x1="1154.58" y1="452.63" x2="1183.67" y2="333.07"/><line class="cls-3" x1="1208" y1="491.5" x2="1165.5" y2="521.5"/><line class="cls-3" x1="1276" y1="747" x2="1083.67" y2="688.72"/><line class="cls-3" x1="1171.5" y1="846.5" x2="1083.67" y2="688.72"/><line class="cls-3" x1="1085.5" y1="788" x2="1083.67" y2="688.72"/><line class="cls-3" x1="1171.5" y1="846.5" x2="1276" y2="747"/><line class="cls-3" x1="1083.67" y1="688.72" x2="1036.67" y2="747.33"/><line class="cls-3" x1="1085.5" y1="788" x2="1036.67" y2="747.33"/><line class="cls-3" x1="998.49" y1="708.12" x2="1036.67" y2="747.33"/><line class="cls-3" x1="993.33" y1="813.33" x2="1036.67" y2="747.33"/><line class="cls-3" x1="998.49" y1="708.12" x2="993.33" y2="813.33"/><line class="cls-3" x1="866.38" y1="796.75" x2="958.83" y2="667.38"/><line class="cls-3" x1="993.33" y1="813.33" x2="866.38" y2="796.75"/><line class="cls-3" x1="794.31" y1="789.33" x2="866.38" y2="796.75"/><line class="cls-3" x1="813.72" y1="672" x2="794.31" y2="789.33"/><line class="cls-3" x1="637.51" y1="125.96" x2="669.21" y2="60.92"/><line class="cls-3" x1="628.52" y1="23.31" x2="669.21" y2="60.92"/><line class="cls-3" x1="725.89" y1="33.37" x2="669.21" y2="60.92"/><line class="cls-3" x1="481.59" y1="80.47" x2="622.21" y2="78.21"/><line class="cls-3" x1="637.51" y1="125.96" x2="622.21" y2="78.21"/><line class="cls-3" x1="628.52" y1="23.31" x2="622.21" y2="78.21"/><line class="cls-3" x1="-45" y1="453.26" x2="8.62" y2="491.25"/><line class="cls-3" x1="76.07" y1="489.23" x2="8.62" y2="491.25"/><line class="cls-3" x1="-29" y1="46.23" x2="22.08" y2="71.73"/><circle class="cls-4" cx="259.73" cy="353.29" r="3.17"/><circle class="cls-4" cx="182.03" cy="253.43" r="3.17"/><circle class="cls-4" cx="177.01" cy="229.94" r="3.17"/><circle class="cls-4" cx="151.9" cy="186.39" r="3.17"/><circle class="cls-4" cx="83.8" cy="76.06" r="3.17"/><circle class="cls-4" cx="107.33" cy="40.31" r="3.17"/><circle class="cls-4" cx="48.84" cy="52.15" r="3.17"/><circle class="cls-4" cx="22.08" cy="71.73" r="3.17"/><circle class="cls-4" cx="151.9" cy="51.61" r="3.17"/><circle class="cls-4" cx="164" cy="11.5" r="3.17"/><circle class="cls-4" cx="58.67" cy="94.93" r="3.17"/><circle class="cls-4" cx="135.9" cy="247.7" r="3.17"/><circle class="cls-4" cx="57.31" cy="178.68" r="3.17"/><circle class="cls-4" cx="121.1" cy="384.95" r="3.17"/><circle class="cls-4" cx="126.69" cy="420.47" r="3.17"/><circle class="cls-4" cx="76.07" cy="489.23" r="3.17"/><circle class="cls-4" cx="7.9" cy="490.24" r="3.17"/><circle class="cls-4" cx="328.2" cy="221.06" r="3.17"/><circle class="cls-4" cx="351.68" cy="176.9" r="3.17"/><circle class="cls-4" cx="272.08" cy="221.06" r="3.17"/><circle class="cls-4" cx="275.88" cy="136.29" r="3.17"/><circle class="cls-4" cx="377.54" cy="48.98" r="3.17"/><circle class="cls-4" cx="451" cy="30" r="3.17"/><circle class="cls-4" cx="481.59" cy="80.47" r="3.17"/><circle class="cls-4" cx="320.08" cy="69.12" r="3.17"/><circle class="cls-4" cx="394.56" cy="262.85" r="3.17"/><circle class="cls-4" cx="435.46" cy="196.6" r="3.17"/><circle class="cls-4" cx="410.05" cy="299" r="3.17"/><circle class="cls-4" cx="406.72" cy="359.7" r="3.17"/><circle class="cls-4" cx="326.38" cy="432.01" r="3.17"/><circle class="cls-4" cx="239.94" cy="392.7" r="3.17"/><circle class="cls-4" cx="198.71" cy="428.84" r="3.17"/><circle class="cls-4" cx="204.96" cy="486.06" r="3.17"/><circle class="cls-4" cx="372.15" cy="281.53" r="3.17"/><circle class="cls-4" cx="440.93" cy="286.62" r="3.17"/><circle class="cls-4" cx="492.64" cy="292.17" r="3.17"/><circle class="cls-4" cx="545.38" cy="232.78" r="3.17"/><circle class="cls-4" cx="559.55" cy="292.17" r="3.17"/><circle class="cls-4" cx="559.09" cy="440.85" r="3.17"/><circle class="cls-4" cx="552.33" cy="486.95" r="3.17"/><circle class="cls-4" cx="435.37" cy="439.03" r="3.17"/><circle class="cls-4" cx="590.76" cy="317.52" r="3.17"/><circle class="cls-4" cx="636.71" cy="293.72" r="3.17"/><circle class="cls-4" cx="580.34" cy="193.42" r="3.17"/><circle class="cls-4" cx="577.17" cy="145.09" r="3.17"/><circle class="cls-4" cx="615.19" cy="198.98" r="3.17"/><circle class="cls-4" cx="614.26" cy="156.62" r="3.17"/><circle class="cls-4" cx="637.51" cy="125.96" r="3.17"/><circle class="cls-4" cx="622.21" cy="78.21" r="3.17"/><circle class="cls-4" cx="669.21" cy="60.92" r="3.17"/><circle class="cls-4" cx="725.89" cy="33.37" r="3.17"/><circle class="cls-4" cx="628.52" cy="23.31" r="3.17"/><circle class="cls-4" cx="664.5" cy="20" r="3.17"/><circle class="cls-4" cx="452.27" cy="384.95" r="3.17"/><circle class="cls-4" cx="279.63" cy="622.62" r="3.17"/><circle class="cls-4" cx="383.78" cy="617.89" r="3.17"/><circle class="cls-4" cx="439.94" cy="677.06" r="3.17"/><circle class="cls-4" cx="407.79" cy="801.4" r="3.17"/><circle class="cls-4" cx="274.54" cy="733.84" r="3.17"/><circle class="cls-4" cx="455.23" cy="617.89" r="3.17"/><circle class="cls-4" cx="582.16" cy="632.22" r="3.17"/><circle class="cls-4" cx="580.28" cy="531.89" r="3.17"/><circle class="cls-4" cx="648.85" cy="643.17" r="3.17"/><circle class="cls-4" cx="587.58" cy="680.23" r="3.17"/><circle class="cls-4" cx="629.66" cy="717.86" r="3.17"/><circle class="cls-4" cx="584.3" cy="761.23" r="3.17"/><circle class="cls-4" cx="507.36" cy="655.8" r="3.17"/><circle class="cls-4" cx="220.52" cy="705.08" r="3.17"/><circle class="cls-4" cx="220.52" cy="640" r="3.17"/><circle class="cls-4" cx="76.07" cy="652.91" r="3.17"/><circle class="cls-4" cx="76.83" cy="746.54" r="3.17"/><circle class="cls-4" cx="259.73" cy="566.02" r="3.17"/><circle class="cls-4" cx="313.72" cy="522.79" r="3.17"/><circle class="cls-4" cx="145.12" cy="489.23" r="3.17"/><circle class="cls-4" cx="201.88" cy="588" r="3.17"/><circle class="cls-4" cx="1036.97" cy="329.9" r="3.17"/><circle class="cls-4" cx="970.32" cy="296.07" r="3.17"/><circle class="cls-4" cx="956.49" cy="235.95" r="3.17"/><circle class="cls-4" cx="1018.47" cy="136.83" r="3.17"/><circle class="cls-4" cx="954.94" cy="53.03" r="3.17"/><circle class="cls-4" cx="1172.43" cy="46.55" r="3.17"/><circle class="cls-4" cx="991.15" cy="14.68" r="3.17"/><circle class="cls-4" cx="1058.32" cy="147.82" r="3.17"/><circle class="cls-4" cx="1155.83" cy="195.83" r="3.17"/><circle class="cls-4" cx="956.94" cy="165" r="3.17"/><circle class="cls-4" cx="898.35" cy="244.71" r="3.17"/><circle class="cls-4" cx="851.37" cy="278.58" r="3.17"/><circle class="cls-4" cx="766.49" cy="244.71" r="3.17"/><circle class="cls-4" cx="725.89" cy="178.33" r="3.17"/><circle class="cls-4" cx="796.45" cy="136.29" r="3.17"/><circle class="cls-4" cx="729.17" cy="128.52" r="3.17"/><circle class="cls-4" cx="756.32" cy="356.46" r="3.17"/><circle class="cls-4" cx="714.34" cy="380.4" r="3.17"/><circle class="cls-4" cx="714.34" cy="405.25" r="3.17"/><circle class="cls-4" cx="706.09" cy="545.89" r="3.17"/><circle class="cls-4" cx="702.92" cy="614.72" r="3.17"/><circle class="cls-4" cx="835.4" cy="395.87" r="3.17"/><circle class="cls-4" cx="896.46" cy="425.66" r="3.17"/><circle class="cls-4" cx="1021.84" cy="394.75" r="3.17"/><circle class="cls-4" cx="997.97" cy="578.2" r="3.17"/><circle class="cls-4" cx="1125.92" cy="478.16" r="3.17"/><circle class="cls-4" cx="1165.5" cy="521.5" r="3.17"/><circle class="cls-4" cx="1154.58" cy="452.63" r="3.17"/><circle class="cls-4" cx="1010.85" cy="641.25" r="3.17"/><circle class="cls-4" cx="1031.5" cy="683.86" r="3.17"/><circle class="cls-4" cx="1083.67" cy="688.72" r="3.17"/><circle class="cls-4" cx="1199" cy="621.81" r="3.17"/><circle class="cls-4" cx="1036.67" cy="747.33" r="3.17"/><circle class="cls-4" cx="998.49" cy="708.12" r="3.17"/><circle class="cls-4" cx="851.12" cy="353.78" r="3.17"/><circle class="cls-4" cx="794.31" cy="388.12" r="3.17"/><circle class="cls-4" cx="815.3" cy="422.38" r="3.17"/><circle class="cls-4" cx="825.08" cy="646.36" r="3.17"/><circle class="cls-4" cx="896.46" cy="474.99" r="3.17"/><circle class="cls-4" cx="906.99" cy="635.17" r="3.17"/><circle class="cls-4" cx="958.83" cy="667.38" r="3.17"/><circle class="cls-4" cx="1096.46" cy="360.1" r="3.17"/><circle class="cls-4" cx="1183.67" cy="333.07" r="3.17"/><line class="cls-1" x1="-15.7" y1="332.99" x2="122.15" y2="382.93"/><line class="cls-3" x1="8" y1="491.5" x2="-34.5" y2="521.5"/><line class="cls-3" x1="76" y1="747" x2="-116.33" y2="688.72"/><line class="cls-3" x1="-28.5" y1="846.5" x2="76" y2="747"/><circle class="cls-4" cx="-1" cy="621.81" r="3.17"/><polygon class="cls-3" points="220.52 -94.92 164.03 11.52 76.83 -53.46 76.07 -147.09 220.52 -94.92"/><polygon class="cls-3" points="583.05 -37.58 587.58 -119.77 507.36 -144.2 407.8 1.4 583.05 -37.58"/><line class="cls-3" x1="273.43" y1="-66.72" x2="407.79" y2="1.4"/><line class="cls-3" x1="439.94" y1="-122.94" x2="407.79" y2="1.4"/><line class="cls-3" x1="164.04" y1="11.52" x2="273.43" y2="-66.72"/><line class="cls-3" x1="1171.5" y1="46.5" x2="1083.67" y2="-111.28"/><line class="cls-3" x1="1171.5" y1="46.5" x2="1276" y2="-53"/><line class="cls-3" x1="993.33" y1="13.33" x2="1036.67" y2="-52.67"/><line class="cls-3" x1="998.49" y1="-91.88" x2="993.33" y2="13.33"/><line class="cls-3" x1="993.33" y1="13.33" x2="866.38" y2="-3.25"/><circle class="cls-4" cx="407.79" cy="1.4" r="3.17"/><line class="cls-3" x1="-28.5" y1="46.5" x2="76" y2="-53"/></g></svg>