<svg xmlns="http://www.w3.org/2000/svg" xmlns:xlink="http://www.w3.org/1999/xlink" viewBox="0 0 500 500"><defs><style>.a,.b{fill:none;}.b{stroke:#000000;stroke-linecap:round;stroke-linejoin:round;stroke-width:3px;}.c{fill:url(#a);}</style><pattern id="a" width="174.5" height="100.73" patternTransform="translate(-22.1 63.2) rotate(180)" patternUnits="userSpaceOnUse" viewBox="0 0 174.5 100.7"><rect class="a" width="174.5" height="100.73"/><line class="b" x1="130.9" y1="126.4" x2="130.9" y2="75.7"/><line class="b" x1="142.9" y1="119.4" x2="142.9" y2="82.6"/><line class="b" x1="154.9" y1="112.5" x2="154.9" y2="89.6"/><line class="b" x1="173.9" y1="50.5" x2="217.7" y2="75.8"/><line class="b" x1="173.9" y1="64.4" x2="205.7" y2="82.8"/><line class="b" x1="173.9" y1="78.3" x2="193.7" y2="89.7"/><line class="b" x1="86.6" y1="100.8" x2="130.5" y2="126.2"/><line class="b" x1="-0.6" y1="50.5" x2="43.3" y2="75.8"/><line class="b" x1="-0.6" y1="64.4" x2="31.2" y2="82.8"/><line class="b" x1="-0.6" y1="78.3" x2="19.2" y2="89.7"/><line class="b" x1="130.9" y1="25.6" x2="130.9" y2="-25"/><line class="b" x1="142.9" y1="18.7" x2="142.9" y2="-18.1"/><line class="b" x1="154.9" y1="11.7" x2="154.9" y2="-11.1"/><line class="b" x1="218.1" y1="24.9" x2="174.2" y2="50.3"/><line class="b" x1="206.1" y1="18" x2="174.2" y2="36.4"/><line class="b" x1="194" y1="11" x2="174.2" y2="22.5"/><line class="b" x1="43.6" y1="76" x2="43.6" y2="25.3"/><line class="b" x1="55.7" y1="69.1" x2="55.7" y2="32.3"/><line class="b" x1="67.7" y1="62.1" x2="67.7" y2="39.2"/><line class="b" x1="130.9" y1="75.3" x2="87" y2="100.6"/><line class="b" x1="118.8" y1="68.3" x2="87" y2="86.7"/><line class="b" x1="106.8" y1="61.4" x2="87" y2="72.8"/><line class="b" x1="86.6" y1="0.1" x2="130.5" y2="25.4"/><line class="b" x1="86.6" y1="14" x2="118.5" y2="32.4"/><line class="b" x1="86.6" y1="27.9" x2="106.4" y2="39.3"/><line class="b" x1="43.6" y1="24.9" x2="-0.3" y2="50.3"/><line class="b" x1="31.6" y1="18" x2="-0.3" y2="36.4"/><line class="b" x1="19.5" y1="11" x2="-0.3" y2="22.5"/><line class="b" x1="130.9" y1="-25.4" x2="87" y2="-0.1"/></pattern></defs><title>Asset 1</title><polygon class="c" points="0 0 500 0 500 500 0 500 0 0"/></svg>