<svg id="Livello_1" data-name="Livello 1" xmlns="http://www.w3.org/2000/svg" xmlns:xlink="http://www.w3.org/1999/xlink" viewBox="0 0 221.7 221.65"><defs><style>.cls-1,.cls-4{fill:none;}.cls-2{clip-path:url(#clip-path);}.cls-3{clip-path:url(#clip-path-2);}.cls-4{stroke:#000;stroke-miterlimit:10;stroke-width:0.55px;}.cls-5{clip-path:url(#clip-path-3);}.cls-6{clip-path:url(#clip-path-4);}.cls-7{clip-path:url(#clip-path-5);}</style><clipPath id="clip-path"><rect class="cls-1" width="221.7" height="221.65"/></clipPath><clipPath id="clip-path-2"><rect class="cls-1" x="87.68" y="-141.57" width="221.68" height="221.68"/></clipPath><clipPath id="clip-path-3"><rect class="cls-1" x="87.68" y="80.11" width="221.68" height="221.68"/></clipPath><clipPath id="clip-path-4"><rect class="cls-1" x="-134" y="-141.57" width="221.68" height="221.68"/></clipPath><clipPath id="clip-path-5"><rect class="cls-1" x="-134" y="80.11" width="221.68" height="221.68"/></clipPath></defs><title>pattern4</title><g class="cls-2"><g class="cls-3"><polyline class="cls-4" points="32.26 80.11 54.01 120.77 98.6 104.55 125.94 125.72 159.72 104.09"/><polyline class="cls-4" points="32.26 80.11 67.25 101.72 107.96 91.19 136.75 102.91 159.72 104.09"/><polyline class="cls-4" points="32.26 80.11 74.38 86.73 107.96 91.19 98.6 104.55 77.93 120.77 63.62 148.15 113.33 168.78 68.9 172.9 32.26 190.95"/><polyline class="cls-4" points="143.1 80.11 136.75 102.91 125.94 125.72 106.82 131.73 121.4 144.38 136.75 160.96 143.1 190.95"/><line class="cls-4" x1="107.96" y1="91.19" x2="143.1" y2="80.11"/><circle cx="188.77" cy="65.34" r="2.49"/><circle cx="209.44" cy="49.13" r="2.49"/><circle cx="164.85" cy="65.34" r="2.49"/><circle cx="143.1" cy="80.11" r="2.49"/><circle cx="218.8" cy="35.77" r="2.49"/><polyline class="cls-4" points="159.72 104.09 174.46 92.73 232.24 88.96 253.94 80.11"/><polyline class="cls-4" points="143.1 24.69 164.85 65.34 209.44 49.13 236.78 70.3 270.56 48.67"/><polyline class="cls-4" points="143.1 24.69 178.09 46.3 218.8 35.77 247.59 47.49 270.56 48.67"/><polyline class="cls-4" points="143.1 24.69 185.22 31.31 218.8 35.77 209.44 49.13 188.77 65.34 174.46 92.73 224.17 113.36 179.74 117.48 143.1 135.53"/><polyline class="cls-4" points="253.94 24.69 247.59 47.49 236.78 70.3 217.66 76.31 232.24 88.96 247.59 105.54 253.94 135.53"/><polyline class="cls-4" points="185.22 31.31 178.09 46.3 164.85 65.34 143.1 80.11 188.77 65.34 217.66 76.31"/><line class="cls-4" x1="217.66" y1="76.31" x2="174.46" y2="92.73"/><line class="cls-4" x1="143.1" y1="80.11" x2="174.46" y2="92.73"/><line class="cls-4" x1="218.8" y1="35.77" x2="253.94" y2="24.69"/><line class="cls-4" x1="247.58" y1="47.49" x2="209.44" y2="49.13"/><line class="cls-4" x1="178.09" y1="46.3" x2="209.44" y2="49.13"/><circle cx="217.66" cy="76.31" r="2.49"/><circle cx="185.22" cy="31.31" r="2.49"/><circle cx="178.09" cy="46.3" r="2.49"/><circle cx="113.33" cy="57.94" r="2.49"/><polyline class="cls-4" points="48.88 48.67 63.62 37.31 121.4 33.54 143.1 24.69"/><polyline class="cls-4" points="48.88 48.67 113.33 57.94 136.75 50.12 164.76 65.54"/><polyline class="cls-4" points="32.26 -30.73 54.01 9.93 98.6 -6.29 125.94 14.88 159.72 -6.75"/><polyline class="cls-4" points="32.26 -30.73 74.38 -24.11 107.96 -19.65 98.6 -6.29 77.93 9.93 63.62 37.31 113.33 57.94 68.9 62.06 32.26 80.11"/><polyline class="cls-4" points="143.1 -30.73 136.75 -7.93 125.94 14.88 106.82 20.89 121.4 33.54 136.75 50.12 143.1 80.11"/><polyline class="cls-4" points="74.38 -24.11 67.25 -9.12 54.01 9.93 32.26 24.69 77.93 9.93 106.82 20.89"/><polyline class="cls-4" points="107.96 91.19 113.33 57.94 74.38 86.85"/><line class="cls-4" x1="143.1" y1="24.69" x2="125.94" y2="14.88"/><line class="cls-4" x1="106.82" y1="20.89" x2="63.62" y2="37.31"/><line class="cls-4" x1="143.1" y1="24.69" x2="136.74" y2="50.12"/><line class="cls-4" x1="113.33" y1="57.94" x2="121.4" y2="33.54"/><line class="cls-4" x1="113.33" y1="57.94" x2="143.1" y2="80.11"/><circle cx="136.74" cy="50.12" r="2.49"/><circle cx="121.4" cy="33.54" r="2.49"/><circle cx="106.82" cy="20.89" r="2.49"/><circle cx="125.94" cy="14.88" r="2.49"/><circle cx="224.17" cy="2.52" r="2.49"/><circle cx="143.1" cy="24.69" r="2.49"/><polyline class="cls-4" points="159.72 -6.75 224.17 2.52 247.59 -5.3 275.6 10.12"/><polyline class="cls-4" points="143.1 -86.15 185.22 -79.53 218.8 -75.07 209.44 -61.71 188.77 -45.49 174.46 -18.11 224.17 2.52 179.74 6.64 143.1 24.69"/><polyline class="cls-4" points="253.94 -86.15 247.59 -63.35 236.78 -40.54 217.66 -34.53 232.24 -21.88 247.59 -5.3 253.94 24.69"/><polyline class="cls-4" points="218.8 35.77 224.17 2.52 185.22 31.43"/><polyline class="cls-4" points="185.22 31.43 179.74 6.64 159.72 -6.75"/><line class="cls-4" x1="159.72" y1="-6.75" x2="143.1" y2="24.69"/><circle cx="179.74" cy="6.64" r="2.49"/></g><g class="cls-5"><circle cx="98.6" cy="215.39" r="2.49"/><circle cx="107.96" cy="202.03" r="2.49"/><polyline class="cls-4" points="32.26 190.95 54.01 231.6 98.6 215.39 125.94 236.56 159.72 214.93"/><polyline class="cls-4" points="32.26 190.95 67.25 212.56 107.96 202.03 136.75 213.75 159.72 214.93"/><polyline class="cls-4" points="32.26 190.95 74.38 197.57 107.96 202.03 98.6 215.39 77.93 231.6 63.62 258.99 113.33 279.62 68.9 283.74 32.26 301.79"/><polyline class="cls-4" points="143.1 190.95 136.75 213.75 125.94 236.56 106.82 242.57 121.4 255.22 136.75 271.8 143.1 301.79"/><polyline class="cls-4" points="74.38 197.57 67.25 212.56 54.01 231.6 32.26 246.37 77.93 231.6 106.82 242.57"/><line class="cls-4" x1="107.96" y1="202.03" x2="143.1" y2="190.95"/><line class="cls-4" x1="136.74" y1="213.75" x2="98.6" y2="215.39"/><line class="cls-4" x1="67.25" y1="212.56" x2="98.6" y2="215.39"/><circle cx="136.74" cy="213.75" r="2.49"/><circle cx="174.46" cy="203.57" r="2.49"/><circle cx="188.77" cy="176.18" r="2.49"/><circle cx="209.44" cy="159.97" r="2.49"/><circle cx="164.85" cy="176.18" r="2.49"/><circle cx="143.1" cy="190.95" r="2.49"/><circle cx="159.72" cy="214.93" r="2.49"/><circle cx="218.8" cy="146.61" r="2.49"/><polyline class="cls-4" points="159.72 214.93 174.46 203.57 232.24 199.8 253.94 190.95"/><polyline class="cls-4" points="159.72 214.93 224.17 224.2 247.59 216.38 275.6 231.8"/><polyline class="cls-4" points="143.1 135.53 164.85 176.19 209.44 159.97 236.78 181.14 270.56 159.51"/><polyline class="cls-4" points="143.1 135.53 178.09 157.14 218.8 146.61 247.59 158.33 270.56 159.51"/><polyline class="cls-4" points="143.1 135.53 185.22 142.15 218.8 146.61 209.44 159.97 188.77 176.19 174.46 203.57 224.17 224.2 179.74 228.32 143.1 246.37"/><polyline class="cls-4" points="253.94 135.53 247.59 158.33 236.78 181.14 217.66 187.15 232.24 199.8 247.59 216.38 253.94 246.37"/><polyline class="cls-4" points="185.22 142.15 178.09 157.14 164.85 176.19 143.1 190.95 188.77 176.19 217.66 187.15"/><line class="cls-4" x1="217.66" y1="187.15" x2="174.46" y2="203.57"/><line class="cls-4" x1="143.1" y1="190.95" x2="174.46" y2="203.57"/><line class="cls-4" x1="218.8" y1="146.61" x2="253.94" y2="135.53"/><polyline class="cls-4" points="185.22 253.11 179.74 228.32 159.72 214.93"/><line class="cls-4" x1="159.72" y1="214.93" x2="143.1" y2="246.37"/><line class="cls-4" x1="247.58" y1="158.33" x2="209.44" y2="159.97"/><line class="cls-4" x1="178.09" y1="157.14" x2="209.44" y2="159.97"/><circle cx="217.66" cy="187.15" r="2.49"/><circle cx="185.22" cy="142.15" r="2.49"/><circle cx="178.09" cy="157.14" r="2.49"/><circle cx="113.33" cy="168.78" r="2.49"/><circle cx="98.6" cy="104.55" r="2.49"/><circle cx="107.96" cy="91.19" r="2.49"/><polyline class="cls-4" points="48.88 159.51 63.62 148.15 121.4 144.38 143.1 135.53"/><polyline class="cls-4" points="48.88 159.51 113.33 168.78 136.75 160.96 164.76 176.38"/><polyline class="cls-4" points="32.26 80.11 54.01 120.77 98.6 104.55 125.94 125.72 159.72 104.09"/><polyline class="cls-4" points="32.26 80.11 67.25 101.72 107.96 91.19 136.75 102.91 159.72 104.09"/><polyline class="cls-4" points="32.26 80.11 74.38 86.73 107.96 91.19 98.6 104.55 77.93 120.77 63.62 148.15 113.33 168.78 68.9 172.9 32.26 190.95"/><polyline class="cls-4" points="143.1 80.11 136.75 102.91 125.94 125.72 106.82 131.73 121.4 144.38 136.75 160.96 143.1 190.95"/><polyline class="cls-4" points="74.38 86.73 67.25 101.72 54.01 120.77 32.26 135.53 77.93 120.77 106.82 131.73"/><polyline class="cls-4" points="107.96 202.03 113.33 168.78 74.38 197.69"/><line class="cls-4" x1="143.1" y1="135.53" x2="125.94" y2="125.72"/><line class="cls-4" x1="106.82" y1="131.73" x2="63.62" y2="148.15"/><line class="cls-4" x1="143.1" y1="135.53" x2="136.74" y2="160.96"/><line class="cls-4" x1="113.33" y1="168.78" x2="121.4" y2="144.38"/><line class="cls-4" x1="107.96" y1="91.19" x2="143.1" y2="80.11"/><line class="cls-4" x1="113.33" y1="168.78" x2="143.1" y2="190.95"/><line class="cls-4" x1="136.74" y1="102.91" x2="98.6" y2="104.55"/><line class="cls-4" x1="67.25" y1="101.72" x2="98.6" y2="104.55"/><circle cx="136.74" cy="160.96" r="2.49"/><circle cx="121.4" cy="144.38" r="2.49"/><circle cx="106.82" cy="131.73" r="2.49"/><circle cx="125.94" cy="125.72" r="2.49"/><circle cx="136.74" cy="102.91" r="2.49"/><circle cx="174.46" cy="92.73" r="2.49"/><circle cx="224.17" cy="113.36" r="2.49"/><circle cx="143.1" cy="80.11" r="2.49"/><circle cx="159.72" cy="104.09" r="2.49"/><circle cx="143.1" cy="135.53" r="2.49"/><polyline class="cls-4" points="159.72 104.09 174.46 92.73 232.24 88.96 253.94 80.11"/><polyline class="cls-4" points="159.72 104.09 224.17 113.36 247.59 105.54 275.6 120.96"/><polyline class="cls-4" points="143.1 24.69 185.22 31.31 218.8 35.77 209.44 49.13 188.77 65.34 174.46 92.73 224.17 113.36 179.74 117.48 143.1 135.53"/><polyline class="cls-4" points="253.94 24.69 247.59 47.49 236.78 70.3 217.66 76.31 232.24 88.96 247.59 105.54 253.94 135.53"/><polyline class="cls-4" points="185.22 31.31 178.09 46.3 164.85 65.34 143.1 80.11 188.77 65.34 217.66 76.31"/><polyline class="cls-4" points="218.8 146.61 224.17 113.36 185.22 142.27"/><line class="cls-4" x1="217.66" y1="76.31" x2="174.46" y2="92.73"/><line class="cls-4" x1="143.1" y1="80.11" x2="174.46" y2="92.73"/><polyline class="cls-4" points="185.22 142.27 179.74 117.48 159.72 104.09"/><line class="cls-4" x1="159.72" y1="104.09" x2="143.1" y2="135.53"/><circle cx="179.74" cy="117.48" r="2.49"/><polyline class="cls-4" points="32.26 -30.73 74.38 -24.11 107.96 -19.65 98.6 -6.29 77.93 9.93 63.62 37.31 113.33 57.94 68.9 62.06 32.26 80.11"/><polyline class="cls-4" points="143.1 -30.73 136.75 -7.93 125.94 14.88 106.82 20.89 121.4 33.54 136.75 50.12 143.1 80.11"/><polyline class="cls-4" points="107.96 91.19 113.33 57.94 74.38 86.85"/><line class="cls-4" x1="113.33" y1="57.94" x2="143.1" y2="80.11"/></g><g class="cls-6"><polyline class="cls-4" points="32.26 80.11 54.01 120.77 98.6 104.55 125.94 125.72 159.72 104.09"/><polyline class="cls-4" points="32.26 80.11 67.25 101.72 107.96 91.19 136.75 102.91 159.72 104.09"/><polyline class="cls-4" points="32.26 80.11 74.38 86.73 107.96 91.19 98.6 104.55 77.93 120.77 63.62 148.15 113.33 168.78 68.9 172.9 32.26 190.95"/><circle cx="63.62" cy="37.31" r="2.49"/><circle cx="77.93" cy="9.92" r="2.49"/><circle cx="54.01" cy="9.92" r="2.49"/><circle cx="32.26" cy="24.69" r="2.49"/><circle cx="48.88" cy="48.67" r="2.49"/><circle cx="32.26" cy="80.11" r="2.49"/><polyline class="cls-4" points="48.88 48.67 63.62 37.31 121.4 33.54 143.1 24.69"/><polyline class="cls-4" points="48.88 48.67 113.33 57.94 136.75 50.12 164.76 65.54"/><polyline class="cls-4" points="32.26 -30.73 54.01 9.93 98.6 -6.29 125.94 14.88 159.72 -6.75"/><polyline class="cls-4" points="32.26 -30.73 74.38 -24.11 107.96 -19.65 98.6 -6.29 77.93 9.93 63.62 37.31 113.33 57.94 68.9 62.06 32.26 80.11"/><polyline class="cls-4" points="74.38 -24.11 67.25 -9.12 54.01 9.93 32.26 24.69 77.93 9.93 106.82 20.89"/><polyline class="cls-4" points="107.96 91.19 113.33 57.94 74.38 86.85"/><line class="cls-4" x1="106.82" y1="20.89" x2="63.62" y2="37.31"/><line class="cls-4" x1="32.26" y1="24.69" x2="63.62" y2="37.31"/><polyline class="cls-4" points="74.38 86.85 68.9 62.06 48.88 48.67"/><line class="cls-4" x1="48.88" y1="48.67" x2="32.26" y2="80.11"/><circle cx="68.9" cy="62.06" r="2.49"/><polyline class="cls-4" points="-61.96 104.09 -47.22 92.73 10.56 88.96 32.26 80.11"/><polyline class="cls-4" points="-78.58 24.69 -56.83 65.34 -12.24 49.13 15.1 70.3 48.88 48.67"/><polyline class="cls-4" points="-78.58 24.69 -43.59 46.3 -2.88 35.77 25.91 47.49 48.88 48.67"/><polyline class="cls-4" points="-78.58 24.69 -36.46 31.31 -2.88 35.77 -12.24 49.13 -32.91 65.34 -47.22 92.73 2.49 113.36 -41.94 117.48 -78.58 135.53"/><polyline class="cls-4" points="32.26 24.69 25.91 47.49 15.1 70.3 -4.02 76.31 10.56 88.96 25.91 105.54 32.26 135.53"/><line class="cls-4" x1="32.26" y1="80.11" x2="15.1" y2="70.3"/><line class="cls-4" x1="32.26" y1="80.11" x2="25.9" y2="105.54"/><line class="cls-4" x1="-2.88" y1="35.77" x2="32.26" y2="24.69"/><line class="cls-4" x1="25.9" y1="47.49" x2="-12.24" y2="49.13"/><circle cx="15.1" cy="70.3" r="2.49"/><circle cx="25.9" cy="47.49" r="2.49"/><circle cx="2.49" cy="2.52" r="2.49"/><polyline class="cls-4" points="-61.96 -6.75 2.49 2.52 25.91 -5.3 53.92 10.12"/><polyline class="cls-4" points="-78.58 -86.15 -36.46 -79.53 -2.88 -75.07 -12.24 -61.71 -32.91 -45.49 -47.22 -18.11 2.49 2.52 -41.94 6.64 -78.58 24.69"/><polyline class="cls-4" points="32.26 -86.15 25.91 -63.35 15.1 -40.54 -4.02 -34.53 10.56 -21.88 25.91 -5.3 32.26 24.69"/><polyline class="cls-4" points="-2.88 35.77 2.49 2.52 -36.46 31.43"/><line class="cls-4" x1="2.49" y1="2.52" x2="10.56" y2="-21.88"/><line class="cls-4" x1="2.49" y1="2.52" x2="32.26" y2="24.69"/></g><g class="cls-7"><polyline class="cls-4" points="32.26 190.95 54.01 231.6 98.6 215.39 125.94 236.56 159.72 214.93"/><polyline class="cls-4" points="32.26 190.95 67.25 212.56 107.96 202.03 136.75 213.75 159.72 214.93"/><polyline class="cls-4" points="32.26 190.95 74.38 197.57 107.96 202.03 98.6 215.39 77.93 231.6 63.62 258.99 113.33 279.62 68.9 283.74 32.26 301.79"/><polyline class="cls-4" points="74.38 197.57 67.25 212.56 54.01 231.6 32.26 246.37 77.93 231.6 106.82 242.57"/><line class="cls-4" x1="67.25" y1="212.56" x2="98.6" y2="215.39"/><circle cx="74.38" cy="197.57" r="2.49"/><circle cx="67.25" cy="212.56" r="2.49"/><circle cx="63.62" cy="148.15" r="2.49"/><circle cx="77.93" cy="120.76" r="2.49"/><circle cx="54.01" cy="120.76" r="2.49"/><circle cx="32.26" cy="135.53" r="2.49"/><circle cx="48.88" cy="159.51" r="2.49"/><circle cx="32.26" cy="190.95" r="2.49"/><polyline class="cls-4" points="48.88 159.51 63.62 148.15 121.4 144.38 143.1 135.53"/><polyline class="cls-4" points="48.88 159.51 113.33 168.78 136.75 160.96 164.76 176.38"/><polyline class="cls-4" points="32.26 80.11 54.01 120.77 98.6 104.55 125.94 125.72 159.72 104.09"/><polyline class="cls-4" points="32.26 80.11 67.25 101.72 107.96 91.19 136.75 102.91 159.72 104.09"/><polyline class="cls-4" points="32.26 80.11 74.38 86.73 107.96 91.19 98.6 104.55 77.93 120.77 63.62 148.15 113.33 168.78 68.9 172.9 32.26 190.95"/><polyline class="cls-4" points="74.38 86.73 67.25 101.72 54.01 120.77 32.26 135.53 77.93 120.77 106.82 131.73"/><polyline class="cls-4" points="107.96 202.03 113.33 168.78 74.38 197.69"/><line class="cls-4" x1="106.82" y1="131.73" x2="63.62" y2="148.15"/><line class="cls-4" x1="32.26" y1="135.53" x2="63.62" y2="148.15"/><polyline class="cls-4" points="74.38 197.69 68.9 172.9 48.88 159.51"/><line class="cls-4" x1="48.88" y1="159.51" x2="32.26" y2="190.95"/><line class="cls-4" x1="67.25" y1="101.72" x2="98.6" y2="104.55"/><circle cx="74.38" cy="86.73" r="2.49"/><circle cx="67.25" cy="101.72" r="2.49"/><circle cx="68.9" cy="172.9" r="2.49"/><polyline class="cls-4" points="-61.96 214.93 -47.22 203.57 10.56 199.8 32.26 190.95"/><polyline class="cls-4" points="-61.96 214.93 2.49 224.2 25.91 216.38 53.92 231.8"/><polyline class="cls-4" points="-78.58 135.53 -56.83 176.19 -12.24 159.97 15.1 181.14 48.88 159.51"/><polyline class="cls-4" points="-78.58 135.53 -43.59 157.14 -2.88 146.61 25.91 158.33 48.88 159.51"/><polyline class="cls-4" points="-78.58 135.53 -36.46 142.15 -2.88 146.61 -12.24 159.97 -32.91 176.19 -47.22 203.57 2.49 224.2 -41.94 228.32 -78.58 246.37"/><polyline class="cls-4" points="32.26 135.53 25.91 158.33 15.1 181.14 -4.02 187.15 10.56 199.8 25.91 216.38 32.26 246.37"/><line class="cls-4" x1="32.26" y1="190.95" x2="15.1" y2="181.14"/><line class="cls-4" x1="32.26" y1="190.95" x2="25.9" y2="216.38"/><line class="cls-4" x1="2.49" y1="224.2" x2="10.56" y2="199.8"/><line class="cls-4" x1="-2.88" y1="146.61" x2="32.26" y2="135.53"/><line class="cls-4" x1="25.9" y1="158.33" x2="-12.24" y2="159.97"/><circle cx="25.9" cy="216.38" r="2.49"/><circle cx="10.56" cy="199.8" r="2.49"/><circle cx="15.1" cy="181.14" r="2.49"/><circle cx="25.9" cy="158.33" r="2.49"/><circle cx="32.26" cy="80.11" r="2.49"/><polyline class="cls-4" points="32.26 -30.73 74.38 -24.11 107.96 -19.65 98.6 -6.29 77.93 9.93 63.62 37.31 113.33 57.94 68.9 62.06 32.26 80.11"/><polyline class="cls-4" points="107.96 91.19 113.33 57.94 74.38 86.85"/><polyline class="cls-4" points="74.38 86.85 68.9 62.06 48.88 48.67"/><line class="cls-4" x1="48.88" y1="48.67" x2="32.26" y2="80.11"/><circle cx="2.49" cy="113.36" r="2.49"/><polyline class="cls-4" points="-61.96 104.09 -47.22 92.73 10.56 88.96 32.26 80.11"/><polyline class="cls-4" points="-61.96 104.09 2.49 113.36 25.91 105.54 53.92 120.96"/><polyline class="cls-4" points="-78.58 24.69 -36.46 31.31 -2.88 35.77 -12.24 49.13 -32.91 65.34 -47.22 92.73 2.49 113.36 -41.94 117.48 -78.58 135.53"/><polyline class="cls-4" points="32.26 24.69 25.91 47.49 15.1 70.3 -4.02 76.31 10.56 88.96 25.91 105.54 32.26 135.53"/><polyline class="cls-4" points="-2.88 146.61 2.49 113.36 -36.46 142.27"/><line class="cls-4" x1="32.26" y1="80.11" x2="15.1" y2="70.3"/><line class="cls-4" x1="32.26" y1="80.11" x2="25.9" y2="105.54"/><line class="cls-4" x1="2.49" y1="113.36" x2="10.56" y2="88.96"/><line class="cls-4" x1="2.49" y1="113.36" x2="32.26" y2="135.53"/><circle cx="25.9" cy="105.54" r="2.49"/><circle cx="10.56" cy="88.96" r="2.49"/></g></g></svg>