<svg id="Livello_1" data-name="Livello 1" xmlns="http://www.w3.org/2000/svg" xmlns:xlink="http://www.w3.org/1999/xlink" viewBox="0 0 100.02 173.25"><defs><style>.cls-1,.cls-4{fill:none;}.cls-2{clip-path:url(#clip-path);}.cls-3{clip-path:url(#clip-path-2);}.cls-4{stroke:#000;stroke-miterlimit:10;}.cls-5{clip-path:url(#clip-path-3);}.cls-6{clip-path:url(#clip-path-4);}.cls-7{clip-path:url(#clip-path-5);}</style><clipPath id="clip-path"><rect class="cls-1" width="100.02" height="173.25"/></clipPath><clipPath id="clip-path-2"><rect class="cls-1" x="4.52" y="-110.9" width="100" height="173.2"/></clipPath><clipPath id="clip-path-3"><rect class="cls-1" x="4.52" y="62.31" width="100" height="173.2"/></clipPath><clipPath id="clip-path-4"><rect class="cls-1" x="-95.48" y="-110.9" width="100" height="173.2"/></clipPath><clipPath id="clip-path-5"><rect class="cls-1" x="-95.48" y="62.31" width="100" height="173.2"/></clipPath></defs><title>pattern6</title><g class="cls-2"><g class="cls-3"><polyline class="cls-4" points="54.52 91.17 71.18 62.31 54.52 33.44"/><polyline class="cls-4" points="104.52 4.57 71.18 4.57 54.52 33.44"/><circle cx="104.52" cy="4.57" r="4.5"/><circle cx="54.52" cy="33.44" r="4.5"/><polyline class="cls-4" points="4.52 4.57 21.18 33.44 54.52 33.44"/><circle cx="4.52" cy="4.57" r="4.5"/><polyline class="cls-4" points="4.52 4.57 21.18 -24.29 4.52 -53.16"/></g><g class="cls-5"><circle cx="104.52" cy="120.04" r="4.5"/><polyline class="cls-4" points="4.52 177.78 21.18 148.91 4.52 120.04"/><polyline class="cls-4" points="54.52 91.17 21.18 91.17 4.52 120.04"/><polyline class="cls-4" points="54.52 91.17 71.18 120.04 104.52 120.04"/><circle cx="54.52" cy="91.17" r="4.5"/><circle cx="4.52" cy="120.04" r="4.5"/><polyline class="cls-4" points="54.52 91.17 71.18 62.31 54.52 33.44"/></g><g class="cls-6"><polyline class="cls-4" points="4.52 4.57 -28.82 4.57 -45.48 33.44"/><polyline class="cls-4" points="4.52 4.57 21.18 33.44 54.52 33.44"/><circle cx="4.52" cy="4.57" r="4.5"/><polyline class="cls-4" points="4.52 4.57 21.18 -24.29 4.52 -53.16"/></g><g class="cls-7"><polyline class="cls-4" points="4.52 177.78 21.18 148.91 4.52 120.04"/><polyline class="cls-4" points="54.52 91.17 21.18 91.17 4.52 120.04"/><circle cx="4.52" cy="120.04" r="4.5"/><polyline class="cls-4" points="-45.48 91.17 -28.82 120.04 4.51 120.04"/></g></g></svg>