<svg id="Livello_1" data-name="Livello 1" xmlns="http://www.w3.org/2000/svg" xmlns:xlink="http://www.w3.org/1999/xlink" viewBox="0 0 173.28 149.95"><defs><style>.cls-1,.cls-4{fill:none;}.cls-2{clip-path:url(#clip-path);}.cls-3{clip-path:url(#clip-path-2);}.cls-4{stroke:#000;stroke-miterlimit:10;}.cls-5{clip-path:url(#clip-path-3);}.cls-6{clip-path:url(#clip-path-4);}.cls-7{clip-path:url(#clip-path-5);}.cls-8{clip-path:url(#clip-path-6);}.cls-9{clip-path:url(#clip-path-7);}</style><clipPath id="clip-path"><rect class="cls-1" width="173.28" height="149.95"/></clipPath><clipPath id="clip-path-2"><rect class="cls-1" x="91.19" y="-45.48" width="86.6" height="150"/></clipPath><clipPath id="clip-path-3"><rect class="cls-1" x="91.19" y="104.52" width="86.6" height="150"/></clipPath><clipPath id="clip-path-4"><rect class="cls-1" x="4.59" y="-45.48" width="86.6" height="150"/></clipPath><clipPath id="clip-path-5"><rect class="cls-1" x="4.59" y="104.52" width="86.6" height="150"/></clipPath><clipPath id="clip-path-6"><rect class="cls-1" x="-82.01" y="-45.48" width="86.6" height="150"/></clipPath><clipPath id="clip-path-7"><rect class="cls-1" x="-82.01" y="104.52" width="86.6" height="150"/></clipPath></defs><title>pattern5</title><g class="cls-2"><g class="cls-3"><polyline class="cls-4" points="177.79 54.52 134.49 79.52 134.49 129.52"/><circle cx="134.49" cy="79.52" r="4.5"/><line class="cls-4" x1="134.49" y1="129.52" x2="177.8" y2="104.52"/><polyline class="cls-4" points="91.19 54.52 47.89 79.52 47.89 129.52"/><circle cx="91.19" cy="54.52" r="4.5"/><line class="cls-4" x1="91.19" y1="54.52" x2="91.19" y2="104.52"/><line class="cls-4" x1="47.89" y1="129.52" x2="91.19" y2="104.52"/><line class="cls-4" x1="134.49" y1="129.52" x2="91.19" y2="104.52"/><circle cx="91.19" cy="104.52" r="4.5"/><polyline class="cls-4" points="134.49 -20.48 91.19 4.52 91.19 54.52"/><circle cx="91.19" cy="4.52" r="4.5"/><line class="cls-4" x1="134.49" y1="-20.48" x2="134.49" y2="29.52"/><line class="cls-4" x1="91.19" y1="54.52" x2="134.49" y2="29.52"/><line class="cls-4" x1="177.8" y1="54.52" x2="134.49" y2="29.52"/><circle cx="134.49" cy="29.52" r="4.5"/><line class="cls-4" x1="91.19" y1="54.52" x2="47.89" y2="29.52"/></g><g class="cls-5"><polyline class="cls-4" points="134.49 129.52 91.19 154.52 91.19 204.52"/><circle cx="134.49" cy="129.52" r="4.5"/><line class="cls-4" x1="134.49" y1="129.52" x2="134.49" y2="179.52"/><polyline class="cls-4" points="177.79 54.52 134.49 79.52 134.49 129.52"/><line class="cls-4" x1="134.49" y1="129.52" x2="177.8" y2="104.52"/><polyline class="cls-4" points="91.19 54.52 47.89 79.52 47.89 129.52"/><line class="cls-4" x1="47.89" y1="129.52" x2="91.19" y2="104.52"/><line class="cls-4" x1="134.49" y1="129.52" x2="91.19" y2="104.52"/><circle cx="91.19" cy="104.52" r="4.5"/></g><g class="cls-6"><polyline class="cls-4" points="91.19 54.52 47.89 79.52 47.89 129.52"/><circle cx="91.19" cy="54.52" r="4.5"/><circle cx="47.89" cy="79.52" r="4.5"/><line class="cls-4" x1="91.19" y1="54.52" x2="91.19" y2="104.52"/><line class="cls-4" x1="47.89" y1="129.52" x2="91.19" y2="104.52"/><line class="cls-4" x1="134.49" y1="129.52" x2="91.19" y2="104.52"/><circle cx="91.19" cy="104.52" r="4.5"/><polyline class="cls-4" points="4.59 54.52 -38.71 79.52 -38.71 129.52"/><circle cx="4.59" cy="54.52" r="4.5"/><line class="cls-4" x1="4.59" y1="54.52" x2="4.59" y2="104.52"/><line class="cls-4" x1="-38.71" y1="129.52" x2="4.59" y2="104.52"/><line class="cls-4" x1="47.89" y1="129.52" x2="4.59" y2="104.52"/><circle cx="4.59" cy="104.52" r="4.5"/><polyline class="cls-4" points="134.49 -20.48 91.19 4.52 91.19 54.52"/><circle cx="91.19" cy="4.52" r="4.5"/><line class="cls-4" x1="91.19" y1="54.52" x2="134.49" y2="29.52"/><polyline class="cls-4" points="47.89 -20.48 4.59 4.52 4.59 54.52"/><circle cx="4.59" cy="4.52" r="4.5"/><line class="cls-4" x1="47.89" y1="-20.48" x2="47.89" y2="29.52"/><line class="cls-4" x1="4.59" y1="54.52" x2="47.89" y2="29.52"/><line class="cls-4" x1="91.19" y1="54.52" x2="47.89" y2="29.52"/><circle cx="47.89" cy="29.52" r="4.5"/><line class="cls-4" x1="4.59" y1="54.52" x2="-38.71" y2="29.52"/></g><g class="cls-7"><polyline class="cls-4" points="134.49 129.52 91.19 154.52 91.19 204.52"/><polyline class="cls-4" points="47.89 129.52 4.59 154.52 4.59 204.52"/><circle cx="47.89" cy="129.52" r="4.5"/><line class="cls-4" x1="47.89" y1="129.52" x2="47.89" y2="179.52"/><polyline class="cls-4" points="91.19 54.52 47.89 79.52 47.89 129.52"/><line class="cls-4" x1="47.89" y1="129.52" x2="91.19" y2="104.52"/><line class="cls-4" x1="134.49" y1="129.52" x2="91.19" y2="104.52"/><circle cx="91.19" cy="104.52" r="4.5"/><polyline class="cls-4" points="4.59 54.52 -38.71 79.52 -38.71 129.52"/><line class="cls-4" x1="-38.71" y1="129.52" x2="4.59" y2="104.52"/><line class="cls-4" x1="47.89" y1="129.52" x2="4.59" y2="104.52"/><circle cx="4.59" cy="104.52" r="4.5"/></g><g class="cls-8"><polyline class="cls-4" points="4.59 54.52 -38.71 79.52 -38.71 129.52"/><circle cx="4.59" cy="54.52" r="4.5"/><line class="cls-4" x1="4.59" y1="54.52" x2="4.59" y2="104.52"/><line class="cls-4" x1="-38.71" y1="129.52" x2="4.59" y2="104.52"/><line class="cls-4" x1="47.89" y1="129.52" x2="4.59" y2="104.52"/><circle cx="4.59" cy="104.52" r="4.5"/><polyline class="cls-4" points="47.89 -20.48 4.59 4.52 4.59 54.52"/><circle cx="4.59" cy="4.52" r="4.5"/><line class="cls-4" x1="4.59" y1="54.52" x2="47.89" y2="29.52"/><line class="cls-4" x1="4.59" y1="54.52" x2="-38.71" y2="29.52"/></g><g class="cls-9"><polyline class="cls-4" points="47.89 129.52 4.59 154.52 4.59 204.52"/><polyline class="cls-4" points="4.59 54.52 -38.71 79.52 -38.71 129.52"/><line class="cls-4" x1="-38.71" y1="129.52" x2="4.59" y2="104.52"/><line class="cls-4" x1="47.89" y1="129.52" x2="4.59" y2="104.52"/><circle cx="4.59" cy="104.52" r="4.5"/></g></g></svg>