<svg id="Livello_1" data-name="Livello 1" xmlns="http://www.w3.org/2000/svg" xmlns:xlink="http://www.w3.org/1999/xlink" viewBox="0 0 159.98 138.55"><defs><style>.cls-1,.cls-5{fill:none;}.cls-2{clip-path:url(#clip-path);}.cls-3{clip-path:url(#clip-path-2);}.cls-4{clip-path:url(#clip-path-3);}.cls-5{stroke:#000;stroke-miterlimit:10;}.cls-6{clip-path:url(#clip-path-4);}.cls-7{clip-path:url(#clip-path-5);}.cls-8{clip-path:url(#clip-path-6);}.cls-9{clip-path:url(#clip-path-7);}.cls-10{clip-path:url(#clip-path-8);}.cls-11{clip-path:url(#clip-path-9);}.cls-12{clip-path:url(#clip-path-10);}.cls-13{clip-path:url(#clip-path-11);}.cls-14{clip-path:url(#clip-path-12);}</style><clipPath id="clip-path"><rect class="cls-1" width="159.98" height="138.55"/></clipPath><clipPath id="clip-path-2"><rect class="cls-1" x="-30.73" y="-11.9" width="318.4" height="579.2"/></clipPath><clipPath id="clip-path-3"><rect class="cls-1" x="259.47" y="-23.4" width="80" height="138.56"/></clipPath><clipPath id="clip-path-4"><rect class="cls-1" x="259.47" y="115.17" width="80" height="138.56"/></clipPath><clipPath id="clip-path-5"><rect class="cls-1" x="179.47" y="-23.4" width="80" height="138.56"/></clipPath><clipPath id="clip-path-6"><rect class="cls-1" x="179.47" y="115.17" width="80" height="138.56"/></clipPath><clipPath id="clip-path-7"><rect class="cls-1" x="99.47" y="-23.4" width="80" height="138.56"/></clipPath><clipPath id="clip-path-8"><rect class="cls-1" x="99.47" y="115.17" width="80" height="138.56"/></clipPath><clipPath id="clip-path-9"><rect class="cls-1" x="19.47" y="-23.4" width="80" height="138.56"/></clipPath><clipPath id="clip-path-10"><rect class="cls-1" x="19.47" y="115.17" width="80" height="138.56"/></clipPath><clipPath id="clip-path-11"><rect class="cls-1" x="-60.53" y="-23.4" width="80" height="138.56"/></clipPath><clipPath id="clip-path-12"><rect class="cls-1" x="-60.53" y="115.17" width="80" height="138.56"/></clipPath></defs><title>line-patterns-03</title><g class="cls-2"><g class="cls-3"><g class="cls-4"><polyline class="cls-5" points="259.47 22.79 259.47 -0.3 239.47 -11.85 219.47 -0.3 219.47 22.79 199.47 34.34 179.47 22.79 159.47 34.34 159.47 57.43 179.47 68.98"/></g><g class="cls-6"><polyline class="cls-5" points="259.47 161.35 259.47 138.26 239.47 126.71 219.47 138.26 219.47 161.35 199.47 172.9 179.47 161.35 159.47 172.9 159.47 195.99 179.47 207.54"/></g><g class="cls-7"><polyline class="cls-5" points="219.47 92.07 219.47 68.98 199.47 57.43 179.47 68.98 179.47 92.07 159.47 103.62 139.47 92.07 119.47 103.62 119.47 126.71 139.47 138.26"/><polyline class="cls-5" points="259.47 22.79 259.47 -0.3 239.47 -11.85 219.47 -0.3 219.47 22.79 199.47 34.34 179.47 22.79 159.47 34.34 159.47 57.43 179.47 68.98"/><polyline class="cls-5" points="179.47 22.79 179.47 -0.3 159.47 -11.85 139.47 -0.3 139.47 22.79 119.47 34.34 99.47 22.79 79.47 34.34 79.47 57.43 99.47 68.98"/><polyline class="cls-5" points="219.47 -46.49 219.47 -69.58 199.47 -81.13 179.47 -69.58 179.47 -46.49 159.47 -34.94 139.47 -46.49 119.47 -34.94 119.47 -11.85 139.47 -0.3"/></g><g class="cls-8"><polyline class="cls-5" points="259.47 161.35 259.47 138.26 239.47 126.71 219.47 138.26 219.47 161.35 199.47 172.9 179.47 161.35 159.47 172.9 159.47 195.99 179.47 207.54"/><polyline class="cls-5" points="179.47 161.35 179.47 138.26 159.47 126.71 139.47 138.26 139.47 161.35 119.47 172.9 99.47 161.35 79.47 172.9 79.47 195.99 99.47 207.54"/><polyline class="cls-5" points="219.47 92.07 219.47 68.98 199.47 57.43 179.47 68.98 179.47 92.07 159.47 103.62 139.47 92.07 119.47 103.62 119.47 126.71 139.47 138.26"/></g><g class="cls-9"><polyline class="cls-5" points="219.47 92.07 219.47 68.98 199.47 57.43 179.47 68.98 179.47 92.07 159.47 103.62 139.47 92.07 119.47 103.62 119.47 126.71 139.47 138.26"/><polyline class="cls-5" points="139.47 92.07 139.47 68.98 119.47 57.43 99.47 68.98 99.47 92.07 79.47 103.62 59.48 92.07 39.48 103.62 39.48 126.71 59.48 138.26"/><polyline class="cls-5" points="259.47 22.79 259.47 -0.3 239.47 -11.85 219.47 -0.3 219.47 22.79 199.47 34.34 179.47 22.79 159.47 34.34 159.47 57.43 179.47 68.98"/><polyline class="cls-5" points="179.47 22.79 179.47 -0.3 159.47 -11.85 139.47 -0.3 139.47 22.79 119.47 34.34 99.47 22.79 79.47 34.34 79.47 57.43 99.47 68.98"/><polyline class="cls-5" points="99.47 22.79 99.47 -0.3 79.47 -11.85 59.48 -0.3 59.48 22.79 39.48 34.34 19.48 22.79 -0.53 34.34 -0.53 57.43 19.48 68.98"/><polyline class="cls-5" points="219.47 -46.49 219.47 -69.58 199.47 -81.13 179.47 -69.58 179.47 -46.49 159.47 -34.94 139.47 -46.49 119.47 -34.94 119.47 -11.85 139.47 -0.3"/><polyline class="cls-5" points="139.47 -46.49 139.47 -69.58 119.47 -81.13 99.47 -69.58 99.47 -46.49 79.47 -34.94 59.48 -46.49 39.48 -34.94 39.48 -11.85 59.48 -0.3"/></g><g class="cls-10"><polyline class="cls-5" points="259.47 161.35 259.47 138.26 239.47 126.71 219.47 138.26 219.47 161.35 199.47 172.9 179.47 161.35 159.47 172.9 159.47 195.99 179.47 207.54"/><polyline class="cls-5" points="179.47 161.35 179.47 138.26 159.47 126.71 139.47 138.26 139.47 161.35 119.47 172.9 99.47 161.35 79.47 172.9 79.47 195.99 99.47 207.54"/><polyline class="cls-5" points="99.47 161.35 99.47 138.26 79.47 126.71 59.48 138.26 59.48 161.35 39.48 172.9 19.48 161.35 -0.53 172.9 -0.53 195.99 19.48 207.54"/><polyline class="cls-5" points="219.47 92.07 219.47 68.98 199.47 57.43 179.47 68.98 179.47 92.07 159.47 103.62 139.47 92.07 119.47 103.62 119.47 126.71 139.47 138.26"/><polyline class="cls-5" points="139.47 92.07 139.47 68.98 119.47 57.43 99.47 68.98 99.47 92.07 79.47 103.62 59.48 92.07 39.48 103.62 39.48 126.71 59.48 138.26"/></g><g class="cls-11"><polyline class="cls-5" points="139.47 92.07 139.47 68.98 119.47 57.43 99.47 68.98 99.47 92.07 79.47 103.62 59.48 92.07 39.48 103.62 39.48 126.71 59.48 138.26"/><polyline class="cls-5" points="59.47 92.07 59.47 68.98 39.47 57.43 19.48 68.98 19.48 92.07 -0.53 103.62 -20.52 92.07 -40.52 103.62 -40.52 126.71 -20.52 138.26"/><polyline class="cls-5" points="179.47 22.79 179.47 -0.3 159.47 -11.85 139.47 -0.3 139.47 22.79 119.47 34.34 99.47 22.79 79.47 34.34 79.47 57.43 99.47 68.98"/><polyline class="cls-5" points="99.47 22.79 99.47 -0.3 79.47 -11.85 59.48 -0.3 59.48 22.79 39.48 34.34 19.48 22.79 -0.53 34.34 -0.53 57.43 19.48 68.98"/><polyline class="cls-5" points="19.47 22.79 19.47 -0.3 -0.53 -11.85 -20.52 -0.3 -20.52 22.79 -40.52 34.34 -60.52 22.79 -80.53 34.34 -80.53 57.43 -60.52 68.98"/><polyline class="cls-5" points="139.47 -46.49 139.47 -69.58 119.47 -81.13 99.47 -69.58 99.47 -46.49 79.47 -34.94 59.48 -46.49 39.48 -34.94 39.48 -11.85 59.48 -0.3"/><polyline class="cls-5" points="59.47 -46.49 59.47 -69.58 39.47 -81.13 19.48 -69.58 19.48 -46.49 -0.53 -34.94 -20.52 -46.49 -40.52 -34.94 -40.52 -11.85 -20.52 -0.3"/></g><g class="cls-12"><polyline class="cls-5" points="179.47 161.35 179.47 138.26 159.47 126.71 139.47 138.26 139.47 161.35 119.47 172.9 99.47 161.35 79.47 172.9 79.47 195.99 99.47 207.54"/><polyline class="cls-5" points="99.47 161.35 99.47 138.26 79.47 126.71 59.48 138.26 59.48 161.35 39.48 172.9 19.48 161.35 -0.53 172.9 -0.53 195.99 19.48 207.54"/><polyline class="cls-5" points="19.47 161.35 19.47 138.26 -0.53 126.71 -20.52 138.26 -20.52 161.35 -40.52 172.9 -60.52 161.35 -80.53 172.9 -80.53 195.99 -60.52 207.54"/><polyline class="cls-5" points="139.47 92.07 139.47 68.98 119.47 57.43 99.47 68.98 99.47 92.07 79.47 103.62 59.48 92.07 39.48 103.62 39.48 126.71 59.48 138.26"/><polyline class="cls-5" points="59.47 92.07 59.47 68.98 39.47 57.43 19.48 68.98 19.48 92.07 -0.53 103.62 -20.52 92.07 -40.52 103.62 -40.52 126.71 -20.52 138.26"/></g><g class="cls-13"><polyline class="cls-5" points="59.47 92.07 59.47 68.98 39.47 57.43 19.48 68.98 19.48 92.07 -0.53 103.62 -20.52 92.07 -40.52 103.62 -40.52 126.71 -20.52 138.26"/><polyline class="cls-5" points="99.47 22.79 99.47 -0.3 79.47 -11.85 59.48 -0.3 59.48 22.79 39.48 34.34 19.48 22.79 -0.53 34.34 -0.53 57.43 19.48 68.98"/><polyline class="cls-5" points="19.47 22.79 19.47 -0.3 -0.53 -11.85 -20.52 -0.3 -20.52 22.79 -40.52 34.34 -60.52 22.79 -80.53 34.34 -80.53 57.43 -60.52 68.98"/><polyline class="cls-5" points="59.47 -46.49 59.47 -69.58 39.47 -81.13 19.48 -69.58 19.48 -46.49 -0.53 -34.94 -20.52 -46.49 -40.52 -34.94 -40.52 -11.85 -20.52 -0.3"/></g><g class="cls-14"><polyline class="cls-5" points="99.47 161.35 99.47 138.26 79.47 126.71 59.48 138.26 59.48 161.35 39.48 172.9 19.48 161.35 -0.53 172.9 -0.53 195.99 19.48 207.54"/><polyline class="cls-5" points="19.47 161.35 19.47 138.26 -0.53 126.71 -20.52 138.26 -20.52 161.35 -40.52 172.9 -60.52 161.35 -80.53 172.9 -80.53 195.99 -60.52 207.54"/><polyline class="cls-5" points="59.47 92.07 59.47 68.98 39.47 57.43 19.48 68.98 19.48 92.07 -0.53 103.62 -20.52 92.07 -40.52 103.62 -40.52 126.71 -20.52 138.26"/></g></g></g></svg>