<svg id="Livello_1" data-name="Livello 1" xmlns="http://www.w3.org/2000/svg" xmlns:xlink="http://www.w3.org/1999/xlink" viewBox="0 0 120 120"><defs><style>.cls-1,.cls-4{fill:none;}.cls-2{clip-path:url(#clip-path);}.cls-3{clip-path:url(#clip-path-2);}.cls-4{stroke:#000;stroke-miterlimit:10;stroke-width:0.48px;}.cls-5{clip-path:url(#clip-path-3);}.cls-6{clip-path:url(#clip-path-4);}.cls-7{clip-path:url(#clip-path-5);}.cls-8{clip-path:url(#clip-path-6);}.cls-9{clip-path:url(#clip-path-7);}.cls-10{clip-path:url(#clip-path-8);}.cls-11{clip-path:url(#clip-path-9);}.cls-12{clip-path:url(#clip-path-10);}</style><clipPath id="clip-path"><rect class="cls-1" width="120" height="120"/></clipPath><clipPath id="clip-path-2"><rect class="cls-1" x="73.127" y="-89.538" width="57.6" height="99.766"/></clipPath><clipPath id="clip-path-3"><rect class="cls-1" x="73.127" y="10.228" width="57.6" height="99.766"/></clipPath><clipPath id="clip-path-4"><rect class="cls-1" x="73.127" y="109.994" width="57.6" height="99.766"/></clipPath><clipPath id="clip-path-5"><rect class="cls-1" x="15.527" y="-89.538" width="57.6" height="99.766"/></clipPath><clipPath id="clip-path-6"><rect class="cls-1" x="15.527" y="10.228" width="57.6" height="99.766"/></clipPath><clipPath id="clip-path-7"><rect class="cls-1" x="15.527" y="109.994" width="57.6" height="99.766"/></clipPath><clipPath id="clip-path-8"><rect class="cls-1" x="-42.073" y="-89.538" width="57.6" height="99.766"/></clipPath><clipPath id="clip-path-9"><rect class="cls-1" x="-42.073" y="10.228" width="57.6" height="99.766"/></clipPath><clipPath id="clip-path-10"><rect class="cls-1" x="-42.073" y="109.994" width="57.6" height="99.766"/></clipPath></defs><title>Asset 7-03</title><g class="cls-2"><g class="cls-3"><line class="cls-4" x1="92.327" y1="10.228" x2="101.927" y2="26.855"/><polyline class="cls-4" points="92.327 43.483 82.191 43.483 73.127 43.483 63.527 26.855 73.127 10.228"/><polygon class="cls-4" points="82.727 26.855 73.127 10.228 82.727 -6.4 101.927 -6.4 111.527 10.228 101.927 26.855 82.727 26.855"/><circle cx="73.127" cy="10.228" r="2.16"/><polyline class="cls-4" points="101.927 -6.4 92.327 10.228 73.127 10.228 63.527 -6.4 73.127 -23.028 92.327 -23.028"/></g><g class="cls-5"><line class="cls-4" x1="92.327" y1="109.994" x2="101.927" y2="126.622"/><polyline class="cls-4" points="92.327 143.249 82.191 143.249 73.127 143.249 63.527 126.622 73.127 109.994"/><polyline class="cls-4" points="121.127 93.366 110.991 93.366 101.927 93.366 92.327 76.738 101.927 60.111"/><polygon class="cls-4" points="82.727 126.622 73.127 109.994 82.727 93.366 101.927 93.366 111.527 109.994 101.927 126.622 82.727 126.622"/><circle cx="101.927" cy="93.366" r="2.16"/><line class="cls-4" x1="63.527" y1="60.111" x2="73.127" y2="76.738"/><circle cx="73.127" cy="109.994" r="2.16"/><polygon class="cls-4" points="111.527 76.738 101.927 60.111 111.527 43.483 130.727 43.483 140.327 60.111 130.727 76.738 111.527 76.738"/><line class="cls-4" x1="92.327" y1="10.228" x2="101.927" y2="26.855"/><polyline class="cls-4" points="92.327 43.483 82.191 43.483 73.127 43.483 63.527 26.855 73.127 10.228"/><polygon class="cls-4" points="53.927 76.738 44.327 60.111 53.927 43.483 73.127 43.483 82.727 60.111 73.127 76.738 53.927 76.738"/><polyline class="cls-4" points="101.927 93.366 92.327 109.994 73.127 109.994 63.527 93.366 73.127 76.738 92.327 76.738"/><circle cx="73.127" cy="43.483" r="2.16"/><circle cx="73.127" cy="76.738" r="2.16"/><circle cx="101.927" cy="60.111" r="2.16"/><polygon class="cls-4" points="82.727 26.855 73.127 10.228 82.727 -6.4 101.927 -6.4 111.527 10.228 101.927 26.855 82.727 26.855"/><polyline class="cls-4" points="130.727 43.483 121.127 60.111 101.927 60.111 92.327 43.483 101.927 26.855 121.127 26.855"/><circle cx="101.927" cy="26.855" r="2.16"/><polyline class="cls-4" points="73.127 43.483 63.527 60.111 44.327 60.111 34.727 43.483 44.327 26.855 63.527 26.855"/><circle cx="73.127" cy="10.228" r="2.16"/><polyline class="cls-4" points="101.927 -6.4 92.327 10.228 73.127 10.228 63.527 -6.4 73.127 -23.028 92.327 -23.028"/></g><g class="cls-6"><line class="cls-4" x1="92.327" y1="109.994" x2="101.927" y2="126.622"/><polyline class="cls-4" points="92.327 143.249 82.191 143.249 73.127 143.249 63.527 126.622 73.127 109.994"/><polygon class="cls-4" points="82.727 126.622 73.127 109.994 82.727 93.366 101.927 93.366 111.527 109.994 101.927 126.622 82.727 126.622"/><circle cx="73.127" cy="109.994" r="2.16"/><polyline class="cls-4" points="101.927 93.366 92.327 109.994 73.127 109.994 63.527 93.366 73.127 76.738 92.327 76.738"/></g><g class="cls-7"><polyline class="cls-4" points="92.327 43.483 82.191 43.483 73.127 43.483 63.527 26.855 73.127 10.228"/><line class="cls-4" x1="34.727" y1="10.228" x2="44.327" y2="26.855"/><polyline class="cls-4" points="34.727 43.483 24.591 43.483 15.527 43.483 5.927 26.855 15.527 10.228"/><polygon class="cls-4" points="82.727 26.855 73.127 10.228 82.727 -6.4 101.927 -6.4 111.527 10.228 101.927 26.855 82.727 26.855"/><polygon class="cls-4" points="25.127 26.855 15.527 10.228 25.127 -6.4 44.327 -6.4 53.927 10.228 44.327 26.855 25.127 26.855"/><circle cx="73.127" cy="10.228" r="2.16"/><circle cx="15.527" cy="10.228" r="2.16"/><polyline class="cls-4" points="101.927 -6.4 92.327 10.228 73.127 10.228 63.527 -6.4 73.127 -23.028 92.327 -23.028"/><polyline class="cls-4" points="44.327 -6.4 34.727 10.228 15.527 10.228 5.927 -6.4 15.527 -23.028 34.727 -23.028"/></g><g class="cls-8"><polyline class="cls-4" points="92.327 143.249 82.191 143.249 73.127 143.249 63.527 126.622 73.127 109.994"/><line class="cls-4" x1="34.727" y1="109.994" x2="44.327" y2="126.622"/><polyline class="cls-4" points="34.727 143.249 24.591 143.249 15.527 143.249 5.927 126.622 15.527 109.994"/><polygon class="cls-4" points="82.727 126.622 73.127 109.994 82.727 93.366 101.927 93.366 111.527 109.994 101.927 126.622 82.727 126.622"/><line class="cls-4" x1="63.527" y1="60.111" x2="73.127" y2="76.738"/><polyline class="cls-4" points="63.527 93.366 53.391 93.366 44.327 93.366 34.727 76.738 44.327 60.111"/><polygon class="cls-4" points="25.127 126.622 15.527 109.994 25.127 93.366 44.327 93.366 53.927 109.994 44.327 126.622 25.127 126.622"/><circle cx="44.327" cy="93.366" r="2.16"/><circle cx="73.127" cy="109.994" r="2.16"/><line class="cls-4" x1="5.927" y1="60.111" x2="15.527" y2="76.738"/><circle cx="15.527" cy="109.994" r="2.16"/><polyline class="cls-4" points="92.327 43.483 82.191 43.483 73.127 43.483 63.527 26.855 73.127 10.228"/><polygon class="cls-4" points="53.927 76.738 44.327 60.111 53.927 43.483 73.127 43.483 82.727 60.111 73.127 76.738 53.927 76.738"/><polyline class="cls-4" points="101.927 93.366 92.327 109.994 73.127 109.994 63.527 93.366 73.127 76.738 92.327 76.738"/><circle cx="73.127" cy="43.483" r="2.16"/><circle cx="73.127" cy="76.738" r="2.16"/><line class="cls-4" x1="34.727" y1="10.228" x2="44.327" y2="26.855"/><polyline class="cls-4" points="34.727 43.483 24.591 43.483 15.527 43.483 5.927 26.855 15.527 10.228"/><polygon class="cls-4" points="-3.673 76.738 -13.273 60.111 -3.673 43.483 15.527 43.483 25.127 60.111 15.527 76.738 -3.673 76.738"/><polyline class="cls-4" points="44.327 93.366 34.727 109.994 15.527 109.994 5.927 93.366 15.527 76.738 34.727 76.738"/><circle cx="15.527" cy="43.483" r="2.16"/><circle cx="15.527" cy="76.738" r="2.16"/><circle cx="44.327" cy="60.111" r="2.16"/><polygon class="cls-4" points="82.727 26.855 73.127 10.228 82.727 -6.4 101.927 -6.4 111.527 10.228 101.927 26.855 82.727 26.855"/><polygon class="cls-4" points="25.127 26.855 15.527 10.228 25.127 -6.4 44.327 -6.4 53.927 10.228 44.327 26.855 25.127 26.855"/><polyline class="cls-4" points="73.127 43.483 63.527 60.111 44.327 60.111 34.727 43.483 44.327 26.855 63.527 26.855"/><circle cx="44.327" cy="26.855" r="2.16"/><circle cx="73.127" cy="10.228" r="2.16"/><polyline class="cls-4" points="15.527 43.483 5.927 60.111 -13.273 60.111 -22.873 43.483 -13.273 26.855 5.927 26.855"/><circle cx="15.527" cy="10.228" r="2.16"/><polyline class="cls-4" points="101.927 -6.4 92.327 10.228 73.127 10.228 63.527 -6.4 73.127 -23.028 92.327 -23.028"/><polyline class="cls-4" points="44.327 -6.4 34.727 10.228 15.527 10.228 5.927 -6.4 15.527 -23.028 34.727 -23.028"/></g><g class="cls-9"><polyline class="cls-4" points="92.327 143.249 82.191 143.249 73.127 143.249 63.527 126.622 73.127 109.994"/><line class="cls-4" x1="34.727" y1="109.994" x2="44.327" y2="126.622"/><polyline class="cls-4" points="34.727 143.249 24.591 143.249 15.527 143.249 5.927 126.622 15.527 109.994"/><polygon class="cls-4" points="82.727 126.622 73.127 109.994 82.727 93.366 101.927 93.366 111.527 109.994 101.927 126.622 82.727 126.622"/><polygon class="cls-4" points="25.127 126.622 15.527 109.994 25.127 93.366 44.327 93.366 53.927 109.994 44.327 126.622 25.127 126.622"/><circle cx="73.127" cy="109.994" r="2.16"/><circle cx="15.527" cy="109.994" r="2.16"/><polyline class="cls-4" points="101.927 93.366 92.327 109.994 73.127 109.994 63.527 93.366 73.127 76.738 92.327 76.738"/><polyline class="cls-4" points="44.327 93.366 34.727 109.994 15.527 109.994 5.927 93.366 15.527 76.738 34.727 76.738"/></g><g class="cls-10"><polyline class="cls-4" points="34.727 43.483 24.591 43.483 15.527 43.483 5.927 26.855 15.527 10.228"/><polygon class="cls-4" points="25.127 26.855 15.527 10.228 25.127 -6.4 44.327 -6.4 53.927 10.228 44.327 26.855 25.127 26.855"/><circle cx="15.527" cy="10.228" r="2.16"/><polyline class="cls-4" points="44.327 -6.4 34.727 10.228 15.527 10.228 5.927 -6.4 15.527 -23.028 34.727 -23.028"/></g><g class="cls-11"><polyline class="cls-4" points="34.727 143.249 24.591 143.249 15.527 143.249 5.927 126.622 15.527 109.994"/><polygon class="cls-4" points="25.127 126.622 15.527 109.994 25.127 93.366 44.327 93.366 53.927 109.994 44.327 126.622 25.127 126.622"/><line class="cls-4" x1="5.927" y1="60.111" x2="15.527" y2="76.738"/><polyline class="cls-4" points="5.927 93.366 -4.209 93.366 -13.273 93.366 -22.873 76.738 -13.273 60.111"/><circle cx="15.527" cy="109.994" r="2.16"/><polyline class="cls-4" points="34.727 43.483 24.591 43.483 15.527 43.483 5.927 26.855 15.527 10.228"/><polygon class="cls-4" points="-3.673 76.738 -13.273 60.111 -3.673 43.483 15.527 43.483 25.127 60.111 15.527 76.738 -3.673 76.738"/><polyline class="cls-4" points="44.327 93.366 34.727 109.994 15.527 109.994 5.927 93.366 15.527 76.738 34.727 76.738"/><circle cx="15.527" cy="43.483" r="2.16"/><circle cx="15.527" cy="76.738" r="2.16"/><polygon class="cls-4" points="25.127 26.855 15.527 10.228 25.127 -6.4 44.327 -6.4 53.927 10.228 44.327 26.855 25.127 26.855"/><polyline class="cls-4" points="15.527 43.483 5.927 60.111 -13.273 60.111 -22.873 43.483 -13.273 26.855 5.927 26.855"/><circle cx="15.527" cy="10.228" r="2.16"/><polyline class="cls-4" points="44.327 -6.4 34.727 10.228 15.527 10.228 5.927 -6.4 15.527 -23.028 34.727 -23.028"/></g><g class="cls-12"><polyline class="cls-4" points="34.727 143.249 24.591 143.249 15.527 143.249 5.927 126.622 15.527 109.994"/><polygon class="cls-4" points="25.127 126.622 15.527 109.994 25.127 93.366 44.327 93.366 53.927 109.994 44.327 126.622 25.127 126.622"/><circle cx="15.527" cy="109.994" r="2.16"/><polyline class="cls-4" points="44.327 93.366 34.727 109.994 15.527 109.994 5.927 93.366 15.527 76.738 34.727 76.738"/></g></g></svg>