<svg width="121" height="120" xmlns="http://www.w3.org/2000/svg"><path d="M120.287 40.822c-.028-.145-.052-.29-.091-.433-.024-.086-.054-.166-.081-.25a5.505 5.505 0 00-.133-.375c-.036-.086-.076-.168-.115-.25a4.829 4.829 0 00-.176-.343c-.046-.083-.098-.16-.148-.24a4.816 4.816 0 00-.395-.534 5.476 5.476 0 00-.256-.28c-.068-.068-.136-.136-.207-.202a4.245 4.245 0 00-.293-.244c-.078-.06-.154-.121-.235-.176-.03-.021-.055-.045-.086-.065L63.103.867a5.173 5.173 0 00-5.732 0L2.401 37.429c-.031.019-.056.043-.086.064-.081.057-.158.117-.235.176a4.105 4.105 0 00-.499.444c-.09.091-.175.183-.258.28-.061.073-.12.146-.176.227a4.73 4.73 0 00-.219.313c-.05.08-.1.157-.147.24a4.496 4.496 0 00-.175.339c-.04.082-.081.166-.115.25-.05.123-.094.249-.135.375-.027.084-.056.166-.08.242a5.395 5.395 0 00-.09.434c-.014.074-.032.147-.042.223-.03.223-.045.446-.045.673v36.57c0 .227.016.453.048.675.012.08.033.145.049.223.026.145.049.29.097.436.023.08.049.161.081.25.04.13.081.259.13.377.034.08.08.161.113.242a4.153 4.153 0 00.55.887c.057.081.114.146.179.223.083.097.162.194.26.28.066.065.129.145.21.194.094.08.194.162.291.245.078.065.162.114.227.177.03.016.049.048.081.063l54.956 36.581a5.087 5.087 0 002.867.868 5.206 5.206 0 002.867-.868l54.971-36.562c.03-.02.056-.042.086-.063.08-.056.157-.116.234-.176.101-.08.2-.162.294-.246.071-.063.139-.132.207-.2a4.657 4.657 0 00.432-.503c.078-.102.149-.207.219-.313.05-.078.1-.157.147-.236.065-.113.122-.228.177-.344.039-.083.079-.165.115-.25.05-.124.092-.25.133-.376.027-.084.056-.166.081-.25.037-.142.063-.288.09-.433.013-.075.033-.147.041-.223.029-.223.045-.446.045-.674V41.719c0-.228-.017-.45-.045-.674-.013-.079-.037-.144-.053-.223h.008zM60.237 72.2L41.956 60l18.28-12.2 18.28 12.2-18.28 12.198zm-5.168-33.355L32.662 53.797 14.574 41.726 55.07 14.792v24.052zM23.366 60l-12.928 8.628V51.372l12.928 8.627zm9.296 6.21l22.407 14.95v24.053L14.575 78.275l18.088-12.07v.003zm32.743 14.947l22.407-14.951 18.09 12.07-40.497 26.934V81.156zm31.703-21.153l12.931-8.63V68.63L97.109 60v.003zm-9.296-6.206L65.406 38.846V14.792l40.497 26.934-18.09 12.071z"/></svg>