<svg width="120" height="120" xmlns="http://www.w3.org/2000/svg"><path d="M111.951 31.35c-5.366-9.193-12.643-16.47-21.835-21.835-9.194-5.365-19.23-8.047-30.117-8.047-10.885 0-20.925 2.682-30.117 8.047-9.192 5.364-16.47 12.642-21.835 21.835C2.682 40.543 0 50.581 0 61.465c0 13.074 3.814 24.83 11.445 35.273 7.63 10.442 17.487 17.668 29.57 21.679 1.406.261 2.447.077 3.124-.547s1.015-1.406 1.015-2.342c0-.157-.013-1.562-.039-4.219-.027-2.657-.04-4.974-.04-6.952l-1.796.311c-1.146.21-2.591.299-4.336.274a33.2 33.2 0 01-5.43-.547c-1.875-.337-3.62-1.118-5.234-2.342-1.614-1.224-2.76-2.826-3.437-4.804l-.781-1.798c-.52-1.197-1.34-2.526-2.46-3.984-1.12-1.458-2.253-2.447-3.399-2.968l-.547-.392a5.735 5.735 0 01-1.015-.938 4.287 4.287 0 01-.703-1.094c-.156-.365-.027-.665.39-.9.418-.235 1.172-.349 2.266-.349l1.562.234c1.042.209 2.33.832 3.867 1.874 1.536 1.042 2.8 2.396 3.789 4.062 1.198 2.136 2.642 3.763 4.336 4.883 1.692 1.12 3.398 1.679 5.116 1.679 1.719 0 3.203-.13 4.454-.39 1.249-.26 2.42-.651 3.515-1.172.468-3.49 1.745-6.173 3.827-8.047-2.968-.312-5.637-.782-8.007-1.407s-4.817-1.64-7.343-3.048c-2.527-1.406-4.623-3.151-6.29-5.233-1.666-2.084-3.033-4.82-4.1-8.204-1.068-3.386-1.602-7.291-1.602-11.718 0-6.303 2.058-11.667 6.173-16.094-1.928-4.739-1.746-10.051.546-15.936 1.51-.47 3.75-.117 6.719 1.054 2.969 1.172 5.142 2.176 6.523 3.008a69.035 69.035 0 013.32 2.11c4.845-1.354 9.845-2.031 15-2.031 5.156 0 10.157.677 15.002 2.03l2.968-1.874c2.03-1.25 4.428-2.396 7.186-3.438 2.76-1.041 4.871-1.328 6.33-.858 2.343 5.885 2.552 11.197.624 15.936 4.114 4.427 6.173 9.792 6.173 16.094 0 4.426-.536 8.345-1.602 11.757-1.067 3.412-2.446 6.144-4.138 8.203-1.694 2.058-3.804 3.79-6.33 5.195-2.526 1.406-4.975 2.421-7.344 3.047-2.37.626-5.039 1.096-8.007 1.408 2.707 2.343 4.061 6.041 4.061 11.093v16.482c0 .937.326 1.718.978 2.343.65.624 1.679.807 3.085.546 12.084-4.009 21.941-11.236 29.571-21.678 7.628-10.443 11.444-22.199 11.444-35.273-.003-10.883-2.686-20.92-8.048-30.113z"/></svg>