<svg width="30" height="30" xmlns="http://www.w3.org/2000/svg"><g clip-path="url(#prefix__clip0)"><path d="M10.821 24.121c-.209.039-.3.137-.274.293.026.156.144.208.352.156.209-.052.3-.143.273-.273-.026-.143-.143-.202-.351-.176zM9.707 24.277c-.208 0-.312.072-.312.215 0 .17.11.24.332.215.208 0 .312-.072.312-.215 0-.169-.11-.24-.332-.215zM8.184 24.218c-.052.144.032.241.254.294.195.077.319.038.37-.118.04-.143-.045-.247-.253-.312-.196-.052-.32-.007-.371.136z"/><path d="M28.35 1.65C27.25.55 25.925 0 24.375 0H5.625C4.075 0 2.751.55 1.65 1.65.55 2.75 0 4.076 0 5.625v18.75c0 1.55.55 2.875 1.65 3.975C2.75 29.45 4.076 30 5.625 30H10c.286 0 .501-.01.644-.029.143-.02.287-.104.43-.254.143-.15.215-.368.215-.654l-.01-1.329c-.007-.846-.01-1.517-.01-2.012l-.45.079a5.746 5.746 0 01-1.083.068 8.332 8.332 0 01-1.358-.137 3.043 3.043 0 01-1.308-.585 2.479 2.479 0 01-.86-1.202l-.195-.45A4.88 4.88 0 005.4 22.5c-.28-.365-.563-.612-.85-.742l-.136-.098a1.433 1.433 0 01-.254-.235 1.084 1.084 0 01-.176-.273c-.039-.091-.006-.166.098-.225.104-.058.293-.087.566-.087l.39.058c.261.052.583.208.968.469.384.26.7.599.947 1.015.3.534.66.94 1.084 1.22.423.281.85.421 1.279.421.43 0 .8-.032 1.113-.097.313-.066.606-.163.88-.294.116-.872.435-1.543.956-2.012a13.386 13.386 0 01-2.002-.351 7.98 7.98 0 01-1.836-.762 5.256 5.256 0 01-1.572-1.309c-.417-.52-.759-1.204-1.025-2.05-.267-.847-.4-1.824-.4-2.93 0-1.576.514-2.917 1.542-4.024-.481-1.185-.436-2.513.137-3.984.378-.117.938-.03 1.68.264.742.293 1.286.543 1.63.752.346.208.622.384.83.527A13.864 13.864 0 0115 7.245c1.29 0 2.54.17 3.751.508l.742-.469c.508-.312 1.107-.599 1.797-.86.69-.26 1.218-.331 1.582-.214.586 1.472.639 2.8.156 3.984 1.029 1.107 1.544 2.448 1.544 4.024 0 1.107-.134 2.087-.4 2.94-.267.852-.612 1.536-1.036 2.05-.423.515-.95.947-1.582 1.3a7.969 7.969 0 01-1.836.76c-.592.157-1.26.274-2.002.353.677.585 1.015 1.51 1.015 2.773v4.668c0 .221.033.4.098.537a.54.54 0 00.313.283c.143.052.27.085.38.098.112.013.27.02.48.02h4.374c1.55 0 2.875-.55 3.974-1.651 1.1-1.1 1.65-2.425 1.65-3.975V5.625c0-1.55-.55-2.875-1.65-3.975z"/><path d="M5.937 21.836c-.09.065-.078.169.04.312.13.13.234.15.312.059.091-.065.078-.17-.04-.313-.13-.117-.234-.136-.312-.058zM5.293 21.348c-.04.091.006.17.136.234.104.065.19.052.254-.039.04-.091-.006-.17-.137-.235-.13-.039-.214-.026-.253.04zM6.543 22.598c-.117.065-.117.182 0 .351.117.17.228.215.332.137.118-.091.118-.215 0-.371-.104-.17-.215-.209-.332-.117zM7.227 23.476c-.117.105-.091.228.078.372.156.155.286.175.39.058.105-.104.079-.228-.077-.371-.157-.156-.287-.176-.391-.059z"/></g></svg>