<svg width="122" height="120" xmlns="http://www.w3.org/2000/svg"><path d="M119.771 56.676L66.278 5.066 61.028 0 20.825 38.786 2.448 56.676c-1.97 1.9-1.97 4.907 0 6.649l36.755 35.462 21.824 21.055 40.202-38.786.656-.633 17.886-17.098c1.97-1.9 1.97-4.908 0-6.65zM61.027 77.73L42.65 60.001l18.378-17.732L79.405 60 61.027 77.731z"/><path d="M61.027 42.27C49.05 30.713 48.885 11.874 60.863.159L20.825 38.945 42.65 60.001 61.027 42.27zM79.57 59.841l-18.543 17.89c12.143 11.715 12.143 30.553 0 42.269l40.366-38.945-21.824-21.214z"/></svg>