<svg width="90" height="80" fill="#000000" xmlns="http://www.w3.org/2000/svg"><path d="M89.833 40.01c0-5.952-7.453-11.592-18.879-15.089 2.637-11.646 1.465-20.91-3.698-23.877C66.066.348 64.674.018 63.154.018v4.084c.842 0 1.52.164 2.087.476 2.49 1.428 3.571 6.866 2.729 13.861-.202 1.721-.531 3.534-.934 5.383-3.589-.878-7.508-1.556-11.627-1.995-2.472-3.388-5.036-6.464-7.618-9.156 5.97-5.548 11.573-8.588 15.381-8.588V0C58.137 0 51.545 3.589 44.88 9.815 38.215 3.625 31.623.073 26.587.073v4.084c3.79 0 9.412 3.02 15.381 8.532a86.495 86.495 0 00-7.562 9.137c-4.138.44-8.057 1.117-11.646 2.015a55.217 55.217 0 01-.952-5.31c-.86-6.995.202-12.433 2.674-13.88.549-.33 1.263-.476 2.105-.476V.092c-1.538 0-2.93.33-4.138 1.025-5.145 2.966-6.299 12.213-3.644 23.822C7.415 28.455 0 34.076 0 40.01 0 45.96 7.452 51.6 18.878 55.097c-2.636 11.646-1.464 20.911 3.7 23.878 1.19.695 2.581 1.025 4.12 1.025 5.035 0 11.627-3.589 18.292-9.815 6.665 6.19 13.257 9.742 18.292 9.742 1.538 0 2.93-.33 4.139-1.026 5.145-2.966 6.298-12.213 3.643-23.822 11.353-3.497 18.769-9.137 18.769-15.07zm-23.84-12.214a82.452 82.452 0 01-2.473 7.233 86.628 86.628 0 00-2.399-4.395 99.071 99.071 0 00-2.636-4.285c2.6.385 5.108.86 7.507 1.447zm-8.387 19.5c-1.428 2.473-2.893 4.817-4.413 6.996a95.29 95.29 0 01-8.276.366c-2.766 0-5.53-.128-8.24-.348a100.935 100.935 0 01-4.432-6.958 95.364 95.364 0 01-3.808-7.288 95.452 95.452 0 013.79-7.306c1.428-2.472 2.893-4.816 4.413-6.995a95.29 95.29 0 018.276-.366c2.765 0 5.53.128 8.24.348a100.935 100.935 0 014.431 6.958 95.383 95.383 0 013.81 7.288 102.544 102.544 0 01-3.791 7.306zm5.914-2.38a78.46 78.46 0 012.527 7.288 82.187 82.187 0 01-7.544 1.465c.897-1.41 1.795-2.856 2.637-4.34.842-1.465 1.63-2.948 2.38-4.413zM44.953 64.454a75.479 75.479 0 01-5.09-5.86c1.648.074 3.332.129 5.035.129 1.721 0 3.424-.037 5.09-.128a71.465 71.465 0 01-5.035 5.86zM31.33 53.67c-2.6-.384-5.109-.86-7.508-1.447a82.484 82.484 0 012.472-7.232 86.71 86.71 0 002.4 4.394c.86 1.465 1.739 2.893 2.636 4.285zm13.532-38.105a75.479 75.479 0 015.09 5.86 113.26 113.26 0 00-5.035-.128c-1.722 0-3.425.036-5.091.128a71.465 71.465 0 015.035-5.86zM31.311 26.35a101.112 101.112 0 00-5.018 8.735 78.489 78.489 0 01-2.527-7.288 88.93 88.93 0 017.544-1.447zM14.74 49.274C8.258 46.51 4.065 42.884 4.065 40.01c0-2.875 4.193-6.519 10.675-9.265 1.575-.678 3.296-1.282 5.072-1.85 1.044 3.59 2.417 7.325 4.12 11.152-1.684 3.808-3.04 7.526-4.065 11.096a55.627 55.627 0 01-5.127-1.868zm9.851 26.167c-2.49-1.429-3.57-6.867-2.728-13.862.201-1.72.531-3.534.934-5.383 3.589.879 7.507 1.556 11.627 1.996 2.472 3.387 5.036 6.464 7.618 9.155-5.97 5.548-11.573 8.588-15.381 8.588-.824-.018-1.52-.183-2.07-.494zm43.434-13.953c.86 6.995-.202 12.433-2.674 13.88-.549.329-1.263.475-2.105.475-3.79 0-9.412-3.02-15.382-8.532a86.495 86.495 0 007.563-9.138c4.138-.439 8.057-1.117 11.646-2.014.42 1.85.75 3.626.952 5.329zm7.05-12.214c-1.575.678-3.297 1.282-5.073 1.85-1.043-3.59-2.417-7.325-4.12-11.152 1.685-3.808 3.04-7.525 4.065-11.096a58.077 58.077 0 015.146 1.868c6.482 2.765 10.675 6.39 10.675 9.265-.018 2.875-4.212 6.519-10.694 9.265z"/><path d="M44.897 48.377a8.368 8.368 0 100-16.736 8.368 8.368 0 000 16.736z" /></svg>