<svg xmlns="http://www.w3.org/2000/svg" width="106.063" height="106.063"><path d="M106.059 29.376a148.646 148.646 0 00-.047-3.201c-.062-2.323-.199-4.667-.612-6.966-.419-2.334-1.104-4.504-2.183-6.625a22.276 22.276 0 00-9.737-9.737c-2.118-1.078-4.289-1.763-6.621-2.182-2.3-.414-4.644-.551-6.969-.613a155.305 155.305 0 00-3.201-.048c-1.266-.007-2.534-.007-3.8-.007h-39.71c-1.267 0-2.534 0-3.8.007a155.2 155.2 0 00-3.201.048c-.581.016-1.163.036-1.746.064-1.748.084-3.499.239-5.222.549a24.234 24.234 0 00-5.021 1.445 22.246 22.246 0 00-7.241 4.835 22.227 22.227 0 00-4.097 5.64c-1.079 2.12-1.763 4.291-2.183 6.625-.413 2.298-.55 4.643-.612 6.966a155.415 155.415 0 00-.049 3.201C-.001 30.643 0 31.91 0 33.176v39.709c0 1.268-.001 2.534.007 3.802.007 1.067.019 2.133.049 3.199.062 2.324.2 4.669.612 6.966.419 2.333 1.103 4.505 2.183 6.625a22.235 22.235 0 004.097 5.639 22.235 22.235 0 005.641 4.099c2.119 1.078 4.289 1.762 6.621 2.181 2.298.414 4.644.551 6.968.613a155.2 155.2 0 003.201.047c1.266.009 2.532.008 3.8.008h39.709c1.266 0 2.534.001 3.8-.008 1.067-.006 2.133-.019 3.201-.047 2.325-.062 4.669-.2 6.969-.613 2.332-.419 4.502-1.103 6.621-2.181a22.265 22.265 0 005.64-4.099 22.229 22.229 0 004.097-5.639c1.079-2.12 1.764-4.292 2.183-6.625.413-2.297.55-4.642.612-6.966.029-1.066.041-2.132.047-3.199.008-1.268.008-2.534.008-3.802V33.176c0-1.266.001-2.533-.007-3.8z"/><path fill="#FFF" d="M84.038 65.462c.117-.399.238-.796.341-1.205 4.402-17.539-6.342-38.275-24.523-49.193 7.968 10.801 11.49 23.883 8.36 35.324-.279 1.02-.615 2-.986 2.952a24.48 24.48 0 00-1.591-.94S47.553 41.233 27.951 21.482c-.514-.519 10.453 15.675 22.899 28.824-5.863-3.292-22.204-15.182-32.55-24.651 1.271 2.12 2.783 4.161 4.444 6.126 8.64 10.956 19.906 24.475 33.404 34.855-9.484 5.804-22.885 6.255-36.227.006a54.74 54.74 0 01-9.274-5.533c5.648 9.034 14.347 16.828 24.934 21.379 12.625 5.426 25.18 5.058 34.531.089l-.007.011.1-.061c.42-.225.836-.457 1.242-.7 4.517-2.319 13.331-4.607 18.067 4.609 1.166 2.268 3.645-9.752-5.468-20.965l-.008-.009z"/></svg>