<svg width="122" height="120" viewBox="0 0 122 120" fill="#000000" xmlns="http://www.w3.org/2000/svg">
<path fill-rule="evenodd" clip-rule="evenodd" d="M106.941 0H15.2399C11.4513 -3.43274e-06 7.81751 1.50023 5.13674 4.17122C2.45597 6.8422 0.947362 10.4655 0.942256 14.2454V105.601C0.934644 107.479 1.29885 109.34 2.01396 111.077C2.72908 112.814 3.78103 114.394 5.10944 115.724C6.43786 117.055 8.01659 118.111 9.75503 118.832C11.4935 119.552 13.3574 119.923 15.2399 119.923H106.941C108.822 119.92 110.684 119.548 112.42 118.826C114.156 118.104 115.733 117.048 117.059 115.718C118.386 114.387 119.436 112.809 120.15 111.073C120.864 109.337 121.227 107.477 121.22 105.601V14.2454C121.215 10.4689 119.709 6.84843 117.032 4.178C114.355 1.50757 110.727 0.00508628 106.941 0ZM52.8145 86.376C52.812 87.0037 52.6853 87.6248 52.4416 88.2035C52.1979 88.7823 51.842 89.3073 51.3944 89.7485C50.9469 90.1897 50.4164 90.5383 49.8334 90.7745C49.2504 91.0106 48.6264 91.1295 47.9973 91.1245H27.9575C26.6985 91.1194 25.4929 90.6169 24.6045 89.7269C23.7161 88.8369 23.2173 87.632 23.2173 86.376V26.8759C23.2173 25.6199 23.7161 24.415 24.6045 23.5251C25.4929 22.6351 26.6985 22.1326 27.9575 22.1275H47.9973C49.258 22.1325 50.4656 22.6345 51.3571 23.5239C52.2486 24.4133 52.7516 25.6181 52.7567 26.8759L52.8145 86.376ZM99.0602 59.0579C99.0603 59.6863 98.9353 60.3086 98.6925 60.8885C98.4497 61.4684 98.0939 61.9944 97.6458 62.4361C97.1977 62.8778 96.6662 63.2264 96.0821 63.4616C95.4979 63.6968 94.8728 63.814 94.243 63.8064H74.2031C72.9424 63.8013 71.7348 63.2994 70.8433 62.41C69.9518 61.5205 69.4488 60.3157 69.4437 59.0579V26.8759C69.4488 25.6181 69.9518 24.4133 70.8433 23.5239C71.7348 22.6345 72.9424 22.1325 74.2031 22.1275H94.243C95.5019 22.1326 96.7075 22.6351 97.5959 23.5251C98.4843 24.415 98.9831 25.6199 98.9831 26.8759L99.0602 59.0579Z" />
</svg>
