<svg width="406" height="306" viewBox="0 0 406 306" fill="none" xmlns="http://www.w3.org/2000/svg">
<path d="M197.194 296.257L14.7782 188.454C8.97238 185.186 3.98873 179.837 9.65243 176.345L192.728 70.7853C195.479 69.0801 199.65 67.9636 202.442 69.5876L393.931 180.75C399.737 184.12 400.783 193.539 394.946 196.919L221.27 296.115C217.616 298.232 213.473 299.359 209.251 299.384C205.028 299.409 200.872 298.331 197.194 296.257Z" fill="#DB3B3B"/>
<path style="mix-blend-mode:multiply" d="M368.465 174.741L347.84 186.85L307.758 159.618L328.545 149.245" fill="url(#paint0_linear)"/>
<path style="mix-blend-mode:multiply" d="M178.436 130.67C171.575 134.974 162.196 144.454 154.919 148.321L268.01 217.747L295.923 197.244C291.985 195.387 181.542 133.766 178.436 130.67Z" fill="url(#paint1_linear)"/>
<path style="mix-blend-mode:multiply" d="M169.17 217.778C162.308 222.081 130.031 236.941 122.784 240.808L152.94 259.626L184.892 229.379C180.954 227.501 172.276 220.843 169.17 217.778Z" fill="url(#paint2_linear)"/>
<path d="M167.13 124.651C167.13 124.651 197.702 25.9831 197.509 25.9831C197.316 25.9831 198.463 21.5983 203.924 24.0749L321.237 93.1152C321.237 93.1152 326.921 95.4193 325.815 100.718C324.709 106.016 295.933 197.264 295.933 197.264C295.333 198.131 294.472 198.783 293.475 199.126C292.478 199.469 291.398 199.486 290.391 199.173C286.819 198.066 169.87 130.153 169.87 130.153C168.799 129.757 167.919 128.967 167.41 127.945C166.901 126.923 166.801 125.745 167.13 124.651Z" fill="#053855"/>
<path d="M199.447 33.1592L319.593 103.194L294.675 186.85L172.986 118.896L199.447 33.1592Z" fill="#449EFD"/>
<path style="mix-blend-mode:multiply" d="M57.2664 170.956C50.405 175.259 32.1045 182.983 24.8574 186.85L46.7611 199.426L67.6194 178.72C63.7577 176.73 60.2579 174.106 57.2664 170.956Z" fill="url(#paint3_linear)"/>
<path d="M76.51 148.352C76.51 148.352 75.5762 180.984 61.6403 181.755C47.7043 182.527 46.7705 148.352 46.7705 148.352" fill="#449EFD"/>
<path d="M76.51 148.352C76.51 148.352 75.5762 180.984 61.6403 181.755C47.7043 182.527 46.7705 148.352 46.7705 148.352" fill="#449EFD"/>
<path d="M61.6403 154.533C69.8526 154.533 76.51 151.765 76.51 148.352C76.51 144.938 69.8526 142.17 61.6403 142.17C53.4279 142.17 46.7705 144.938 46.7705 148.352C46.7705 151.765 53.4279 154.533 61.6403 154.533Z" fill="#311E69"/>
<path d="M65.6907 152.564C68.4107 139.387 73.1093 126.698 79.6266 114.928C80.1646 113.913 81.951 114.796 81.4232 115.77C74.995 127.417 70.365 139.969 67.6902 153C67.4771 154.015 65.4775 153.609 65.6907 152.564Z" fill="#311E69"/>
<path d="M57.1846 154.624C58.2063 138.831 59.9758 123.085 62.493 107.386C62.6656 106.371 64.7362 106.371 64.523 107.386C62.0126 123.044 60.2465 138.76 59.2247 154.533C58.5751 154.563 57.8545 154.584 57.1846 154.624Z" fill="#311E69"/>
<path d="M84.2444 111.852C86.6838 111.333 89.219 111.495 91.5727 112.319C93.2475 112.908 96.7086 114.593 96.0286 116.379C95.3485 118.165 91.1566 117.912 89.4818 117.506C88.2806 117.227 87.1497 116.703 86.1596 115.968C85.1695 115.233 84.3413 114.302 83.7268 113.233C83.6949 113.172 83.671 113.107 83.6557 113.04C83.58 112.928 83.5353 112.799 83.5262 112.664C83.517 112.53 83.5437 112.395 83.6036 112.274C83.6635 112.153 83.7544 112.051 83.867 111.977C83.9796 111.902 84.1098 111.859 84.2444 111.852Z" fill="#C3EA75"/>
<path d="M80.9557 110.868C81.0947 111.097 81.3191 111.263 81.5797 111.327C81.8403 111.392 82.116 111.351 82.3463 111.213C84.6199 109.873 87.4213 109.03 89.0656 107.071C90.1821 105.701 90.6591 103.448 88.619 102.443C87.6428 102.051 86.5749 101.946 85.5409 102.14C84.507 102.334 83.55 102.82 82.7827 103.539C80.9253 105.255 80.7527 107.762 80.3061 109.903C80.2747 110.116 80.3239 110.333 80.4441 110.511C80.5643 110.69 80.7467 110.817 80.9557 110.868ZM85.2593 103.976V104.189C84.5938 104.638 84.0102 105.197 83.5338 105.843C83.9277 105.075 84.5245 104.429 85.2593 103.976Z" fill="#C3EA75"/>
<path d="M74.9069 106.493C78.2666 105.285 78.8349 109.893 78.9669 111.436C78.9677 111.626 78.8973 111.81 78.7696 111.951C78.6419 112.092 78.466 112.18 78.2767 112.197C78.0671 112.349 77.8149 112.431 77.5561 112.431C77.2972 112.431 77.045 112.349 76.8354 112.197C75.7087 111.385 74.2776 110.614 73.9223 109.365C73.6077 108.432 73.6077 106.96 74.9069 106.493Z" fill="#C3EA75"/>
<path d="M62.1993 104.341C62.3635 104.604 62.6211 104.795 62.9205 104.876C63.2198 104.957 63.5387 104.922 63.8131 104.778C63.9874 104.812 64.1667 104.812 64.3409 104.778C66.9393 104.463 68.2487 101.164 68.7156 99.4387C69.1825 97.7132 69.7306 94.8813 67.0916 93.9678C65.9986 93.62 64.8143 93.7 63.7781 94.1918C62.7418 94.6835 61.9309 95.5503 61.5091 96.617C60.5753 99.1037 61.1437 101.996 62.1993 104.341ZM63.6 101.996C63.5487 101.553 63.5658 101.105 63.6507 100.667C63.6527 100.973 63.6764 101.278 63.7218 101.58C63.7015 101.753 63.6507 101.885 63.6101 101.996H63.6Z" fill="#C3EA75"/>
<path d="M48.5775 104.798C48.4862 106.919 51.1252 107.792 53.3074 108.127C54.6675 108.34 59.5192 109.304 59.6004 107.396C59.7332 107.287 59.824 107.136 59.8573 106.967C59.8906 106.799 59.8644 106.624 59.7831 106.473C58.7072 104.443 56.1494 103.559 53.6931 103.022C51.5819 102.575 48.7196 102.484 48.5775 104.798ZM50.6075 104.706C50.6892 104.829 50.7808 104.944 50.8816 105.052C50.8023 105.166 50.7534 105.299 50.7395 105.437C50.6249 105.355 50.547 105.232 50.5223 105.094C50.4977 104.955 50.5282 104.813 50.6075 104.696V104.706Z" fill="#C3EA75"/>
<path d="M67.2232 106.442C67.3354 106.658 67.5152 106.832 67.735 106.936C67.9549 107.041 68.2029 107.07 68.4412 107.021C69.8471 106.889 71.1993 106.415 72.3794 105.64C72.5974 105.505 72.7862 105.327 72.9347 105.118C73.0832 104.909 73.1884 104.672 73.2442 104.421C73.2999 104.171 73.3051 103.912 73.2595 103.659C73.2138 103.407 73.1182 103.166 72.9783 102.951C71.3746 101.022 67.6901 104.27 66.736 105.316C66.2793 105.793 66.665 106.31 67.2232 106.442ZM70.1363 104.869L69.9637 104.93L70.9787 104.361C70.7313 104.586 70.4414 104.759 70.1261 104.869H70.1363Z" fill="#C3EA75"/>
<path d="M307.797 114.603C308.069 109.16 304.945 104.58 300.819 104.374C296.693 104.168 293.128 108.413 292.856 113.856C292.584 119.299 295.708 123.879 299.834 124.085C303.959 124.292 307.525 120.046 307.797 114.603Z" fill="white"/>
<path d="M298.41 114.055L301.018 104.544C299.834 104.072 298.524 104.016 297.304 104.385C296.083 104.754 295.024 105.525 294.299 106.574L298.41 114.055Z" fill="#FD7382"/>
<path d="M298.41 114.055C298.41 114.055 292.32 118.805 292.168 118.409C291.397 116.424 291.188 114.265 291.566 112.17C291.944 110.074 292.894 108.124 294.31 106.533L298.41 114.055Z" fill="#8787D1"/>
<path d="M298.903 137.987C299.152 132.55 296.014 127.989 291.892 127.799C287.771 127.61 284.227 131.864 283.978 137.302C283.728 142.739 286.866 147.3 290.988 147.49C295.109 147.679 298.653 143.425 298.903 137.987Z" fill="white"/>
<path d="M290.899 137.623L293.507 128.112C292.323 127.64 291.013 127.584 289.793 127.953C288.572 128.322 287.513 129.094 286.788 130.142L290.899 137.623Z" fill="#FD7382"/>
<path d="M290.898 137.623C290.898 137.623 284.808 142.373 284.656 141.977C283.885 139.993 283.677 137.833 284.055 135.738C284.433 133.642 285.382 131.692 286.798 130.102L290.898 137.623Z" fill="#8787D1"/>
<path d="M293.939 161.935C294.212 156.492 291.088 151.912 286.962 151.706C282.836 151.499 279.271 155.745 278.999 161.188C278.726 166.631 281.85 171.211 285.976 171.417C290.102 171.623 293.667 167.378 293.939 161.935Z" fill="white"/>
<path d="M284.585 161.181L287.245 151.681C286.06 151.209 284.751 151.153 283.53 151.521C282.31 151.89 281.25 152.662 280.525 153.711L284.585 161.181Z" fill="#FD7382"/>
<path d="M284.586 161.181C284.586 161.181 278.496 165.931 278.344 165.535C277.572 163.551 277.364 161.392 277.742 159.296C278.12 157.201 279.069 155.25 280.485 153.66L284.586 161.181Z" fill="#8787D1"/>
<path opacity="0.71" d="M206.137 49.3892L243.671 71.2726L235.886 97.4088L197.864 76.175L206.137 49.3892Z" fill="white"/>
<path opacity="0.71" d="M195.164 80.123L232.699 102.006L224.913 128.143L186.892 106.909L195.164 80.123Z" fill="white"/>
<path d="M166.582 223.827L162.278 222.639L162.948 217.402C162.948 217.402 167.617 218.183 166.582 223.827Z" fill="#42210B"/>
<path d="M160.725 208.592C160.725 208.592 159.213 226.293 159.619 226.496C160.025 226.699 164.156 227.055 164.156 226.75C164.156 226.446 164.4 218.691 164.4 218.691C164.4 218.691 166.43 222.112 166.572 223.817C166.572 223.817 171.515 221.005 172.428 218.742C173.342 216.478 170.317 207.039 169.16 206.562" fill="#FDF2D6"/>
<path d="M177.218 233.104L172.356 227.938L175.533 223.878C175.533 223.878 178.497 230.445 177.218 233.104Z" fill="#42210B"/>
<path d="M169.992 212.631L167.719 233.875C169.13 234.386 170.584 234.77 172.063 235.022C172.981 234.7 173.862 234.282 174.692 233.774L175.504 226.669C175.504 226.669 177.615 228.78 177.229 233.084C177.229 232.789 180.589 231.673 181.015 231.48C182.371 230.889 183.672 230.179 184.903 229.359C186.192 228.475 190.993 224.507 188.415 222.923C186.222 221.584 179.107 222.223 179.107 222.223L179.006 213.453" fill="#FDF2D6"/>
<path d="M161.486 136.527C161.503 136.451 161.503 136.373 161.485 136.298C161.468 136.223 161.433 136.153 161.384 136.093C161.335 136.034 161.273 135.986 161.203 135.954C161.133 135.921 161.056 135.906 160.979 135.908C161.474 134.031 162.298 132.258 163.415 130.67L183.979 128.244C183.979 128.244 188.11 142.942 189.703 168.266C190.942 187.896 181.299 217.097 181.299 217.097C181.299 217.097 171.332 219.625 166.531 214.702L166.724 210.47C164.242 210.45 161.766 210.246 159.314 209.861C156.797 185.48 158.675 160.785 161.486 136.527Z" fill="#79CC37"/>
<path d="M165.922 213.596L168.49 195.397C169.312 189.601 170.581 183.643 170.601 177.756C170.621 171.869 168.571 166.591 167.637 161.009C166.711 155.583 166.473 150.062 166.927 144.576C167.028 143.297 168.865 143.287 168.764 144.576C168.248 150.711 168.624 156.889 169.88 162.917C171.027 168.306 172.631 173.412 172.397 179.015C172.164 184.618 171.047 190.342 170.256 195.925L167.678 214.124C167.475 215.402 165.739 214.865 165.922 213.596Z" fill="#42210B"/>
<path d="M201.437 104.859C200.757 106.026 198.494 107.599 197.915 108.817C199.519 110.208 199.864 111.659 201.447 113.07C201.691 112.461 202.686 112.055 203.213 111.751C204.025 111.284 204.675 110.654 205.436 110.167C206.197 109.68 207.324 109.315 208.217 108.858C208.483 108.723 208.729 108.552 208.948 108.35C209.186 108.263 209.416 108.158 209.638 108.036C209.777 107.958 209.898 107.851 209.992 107.723C210.086 107.594 210.151 107.447 210.183 107.291C210.215 107.134 210.213 106.973 210.176 106.818C210.14 106.663 210.071 106.517 209.973 106.391C210.203 106.288 210.389 106.107 210.5 105.881C210.611 105.656 210.64 105.398 210.582 105.153C210.54 104.999 210.462 104.857 210.354 104.739C210.247 104.621 210.113 104.53 209.963 104.473L209.872 104.361C209.971 104.302 210.052 104.217 210.108 104.115C210.163 104.013 210.19 103.899 210.186 103.783C210.207 103.682 210.207 103.579 210.186 103.478C210.125 102.291 209.263 102.108 208.329 102.534L208.187 102.595C208.725 102.166 209.182 101.643 209.537 101.053C210.45 100.159 211.039 99.2459 210.257 98.7587C209.476 98.2715 208.146 99.459 207.588 99.8752C206.35 100.799 205.213 101.854 203.975 102.778C203.975 102.646 203.975 102.514 203.975 102.463V102.25C203.975 101.591 203.873 99.4387 203.183 99.1342C203.076 99.0689 202.954 99.0325 202.829 99.0285C202.705 99.0245 202.581 99.053 202.47 99.1114C202.359 99.1698 202.266 99.2559 202.199 99.3613C202.132 99.4668 202.093 99.5879 202.087 99.7128L201.437 104.859Z" fill="#FE6162"/>
<path d="M200.066 106.371L190.556 112.888C189.033 109.147 187.078 105.597 184.73 102.311C180.761 96.6678 169.9 98.3527 169.9 98.3527C169.9 98.3527 163.506 102.93 161.111 107.985C158.715 113.04 158.857 126.143 160.908 130.508C162.958 134.872 175.757 134.355 183.014 132.599C183.158 132.63 183.307 132.629 183.451 132.597C183.595 132.565 183.73 132.501 183.847 132.411C183.964 132.322 184.06 132.207 184.128 132.077C184.196 131.946 184.235 131.802 184.242 131.655C184.242 127.866 184.212 124.073 184.151 120.277C188.769 125.981 196.108 122.104 200.696 117.699C202.962 115.734 205.004 113.524 206.786 111.111C205.974 108.604 200.066 106.371 200.066 106.371Z" fill="#FAB965"/>
<path d="M180.446 87.2788C180.446 87.2788 181.045 95.9875 178.416 97.9972C175.787 100.007 171.372 96.6879 171.372 96.6879" fill="#FE6162"/>
<path d="M178.274 82.9653C179.442 83.8714 180.352 85.0684 180.913 86.4366C183.105 91.9176 177.208 98.7181 171.94 99.7737L169.21 98.9109C169.21 98.9109 165.597 93.5923 165.597 90.6082C165.56 87.7278 166.653 84.9477 168.642 82.8638C171.473 80.2248 175.493 80.7424 178.274 82.9653Z" fill="#1A1A1A"/>
<path d="M171.941 99.7331C171.941 99.7331 181.796 128.153 174.377 132.842C166.957 137.532 152.453 133.259 155.284 126.214C158.116 119.17 169.21 98.8704 169.21 98.8704" fill="#1A1A1A"/>
<path opacity="0.71" d="M251.913 75.7788L272.771 87.9385L264.986 114.075L243.671 102.169L251.913 75.7788Z" fill="white"/>
<path opacity="0.71" d="M259.84 122.195L240.93 111.507C239.712 110.817 238.708 112.735 239.915 113.415L258.825 124.113C260.063 124.793 261.078 122.885 259.84 122.195Z" fill="white"/>
<path opacity="0.71" d="M258.48 126.468L239.54 115.78C238.322 115.09 237.317 117.008 238.525 117.688L257.434 128.376C258.673 129.066 259.688 127.158 258.48 126.468Z" fill="white"/>
<path opacity="0.71" d="M257.272 131.005L238.362 120.317C237.144 119.627 236.139 121.545 237.347 122.225L256.257 132.913C257.475 133.604 258.479 131.685 257.272 131.005Z" fill="white"/>
<path opacity="0.71" d="M256.084 135.096L237.175 124.408C235.957 123.718 234.952 125.636 236.16 126.316L255.069 137.004C256.277 137.684 257.292 135.745 256.084 135.096Z" fill="white"/>
<path opacity="0.71" d="M280.759 98.3831L265.118 148.788C263.951 152.533 269.898 153.863 271.055 150.138L286.697 99.733C287.854 95.9775 281.906 94.658 280.759 98.3831Z" fill="white"/>
<path d="M345.455 92.8817L384.238 115.719C384.962 116.145 385.522 116.802 385.827 117.584C386.133 118.367 386.167 119.229 385.923 120.033L369.988 172.701C369.826 173.24 369.545 173.735 369.166 174.15C368.787 174.565 368.319 174.889 367.797 175.099C367.276 175.308 366.714 175.398 366.153 175.36C365.592 175.323 365.047 175.16 364.557 174.884L325.49 152.848C324.747 152.429 324.168 151.77 323.851 150.978C323.534 150.186 323.496 149.31 323.744 148.494L339.984 95.0335C340.148 94.492 340.432 93.9947 340.816 93.5788C341.199 93.1629 341.672 92.8393 342.198 92.6322C342.725 92.4252 343.291 92.34 343.855 92.3833C344.419 92.4265 344.966 92.5969 345.455 92.8817Z" fill="#053855"/>
<path d="M344.745 97.8247L381.132 119.251C381.372 119.394 381.556 119.612 381.658 119.871C381.759 120.13 381.77 120.416 381.691 120.683L367.004 169.24C366.949 169.418 366.855 169.582 366.728 169.72C366.602 169.857 366.446 169.964 366.273 170.033C366.099 170.102 365.913 170.132 365.727 170.119C365.54 170.107 365.359 170.052 365.197 169.961L328.555 149.245C328.31 149.105 328.12 148.887 328.015 148.625C327.91 148.363 327.896 148.074 327.977 147.803L342.928 98.5352C342.983 98.3563 343.079 98.1922 343.206 98.055C343.334 97.9179 343.491 97.8112 343.665 97.743C343.84 97.6747 344.027 97.6466 344.214 97.6608C344.401 97.6749 344.582 97.731 344.745 97.8247Z" fill="#449EFD"/>
<g opacity="0.71">
<path opacity="0.71" d="M338.096 143.601L359.939 156.654C360.111 156.753 360.246 156.906 360.321 157.09C360.396 157.274 360.408 157.478 360.355 157.669C360.241 158.005 360.021 158.294 359.728 158.494C359.435 158.693 359.085 158.792 358.731 158.776C358.512 158.768 358.299 158.705 358.112 158.593L337.213 146.098L338.096 143.601Z" fill="white"/>
</g>
<path d="M362.547 127.909L367.673 131.015L361.614 154.776L356.549 151.671L362.547 127.909Z" fill="#8787D1"/>
<path d="M354.935 118.744L360.172 121.85L353.148 149.793L347.84 146.545L354.935 118.744Z" fill="#F8997C"/>
<path d="M347.658 110.949L352.286 113.913L344.511 144.728L339.781 141.845L347.658 110.949Z" fill="white"/>
<defs>
<linearGradient id="paint0_linear" x1="346.541" y1="154.614" x2="337.183" y2="168.57" gradientUnits="userSpaceOnUse">
<stop stop-color="#1B1464"/>
<stop offset="1" stop-color="white"/>
</linearGradient>
<linearGradient id="paint1_linear" x1="33087.8" y1="12789.9" x2="32286.2" y2="15523.5" gradientUnits="userSpaceOnUse">
<stop stop-color="#1B1464"/>
<stop offset="1" stop-color="white"/>
</linearGradient>
<linearGradient id="paint2_linear" x1="11031.4" y1="8657.35" x2="9888.85" y2="10716.6" gradientUnits="userSpaceOnUse">
<stop stop-color="#1B1464"/>
<stop offset="1" stop-color="white"/>
</linearGradient>
<linearGradient id="paint3_linear" x1="2685.93" y1="4700.94" x2="2151.05" y2="5676.59" gradientUnits="userSpaceOnUse">
<stop stop-color="#1B1464"/>
<stop offset="1" stop-color="white"/>
</linearGradient>
</defs>
</svg>
