<svg width="130" height="95" viewBox="0 0 130 95" fill="none" xmlns="http://www.w3.org/2000/svg">
<path d="M63.0756 93.4367L2.52766 57.6541C0.600764 56.5731 -1.05236 54.7936 0.825392 53.6318L61.5945 18.6108C62.507 18.0457 63.8899 17.6772 64.8165 18.2142L128.369 55.0919C130.296 56.2116 130.643 59.3388 128.72 60.4584L71.0569 93.3806C69.8462 94.0828 68.4733 94.4574 67.0737 94.4672C65.6741 94.4771 64.2961 94.1219 63.0756 93.4367Z" fill="#E75D48"/>
<path opacity="0.32" d="M107.923 55.3027C103.304 57.9948 100.005 59.8058 92.9014 63.8597C98.2784 67.1273 102.978 69.5245 103.582 69.8825L119.025 61.108C117.772 60.4657 113.672 58.1457 107.923 55.3027Z" fill="url(#paint0_linear)"/>
<path opacity="0.32" d="M47.8048 62.9785C42.2383 66.2251 38.2616 68.4047 29.7012 73.2904C36.1803 77.2284 41.8452 80.1205 42.5752 80.5487L61.1773 69.9876C59.6856 69.2014 54.7473 66.4041 47.8048 62.9785Z" fill="url(#paint1_linear)"/>
<path opacity="0.32" d="M13.8539 59.2861C16.7425 57.3628 19.6802 55.5096 22.6004 53.6388L18.4518 50.6099L2.38379 57.3136C4.32472 58.3315 6.94656 60.2373 9.70528 62.1782C11.0776 61.199 12.45 60.2198 13.8539 59.2861Z" fill="url(#paint2_linear)"/>
<path d="M24.1755 42.8988C24.1517 42.7995 24.1075 42.7063 24.0457 42.625C23.9323 42.487 23.7972 42.3685 23.6456 42.2741C21.6064 40.8947 18.7809 40.5192 16.6259 41.8634C16.1345 42.1723 15.401 42.8707 15.6923 43.5306C15.8608 43.9132 16.3732 44.1378 16.7453 44.2922C17.9283 44.765 19.1648 45.0915 20.4271 45.2644C20.8833 45.3417 21.3466 45.4189 21.8064 45.461C22.1245 45.4916 22.4452 45.4418 22.739 45.316C23.0327 45.1903 23.2902 44.9927 23.4876 44.7415C23.807 44.3238 24.3195 43.5095 24.1755 42.8988Z" fill="#754C24"/>
<path d="M15.6318 43.229C15.6318 43.229 17.492 44.9137 20.707 44.668C23.922 44.4223 24.1712 42.9131 24.1712 42.9131C24.1712 42.9131 23.3394 53.5689 22.9007 53.7514C22.462 53.9339 20.8194 54.7272 20.0261 54.7868C19.2329 54.8465 16.7269 53.8427 16.6637 53.5654C16.6005 53.2881 15.6318 43.229 15.6318 43.229Z" fill="#FF8F6F"/>
<path d="M16.2159 27.7152C16.1176 27.5151 15.8123 27.6906 15.9141 27.8907C18.1147 32.3271 18.5429 37.3216 18.9395 42.1722C18.9571 42.3933 19.3081 42.3968 19.2905 42.1722C18.8939 37.2409 18.4517 32.1937 16.2159 27.7152Z" fill="#007F68"/>
<path d="M15.9391 27.7427C15.9391 27.7427 16.5533 30.0451 15.9181 31.1963C15.2828 32.3476 14.7598 32.5757 15.5179 34.0042C16.2761 35.4327 18.3047 35.6257 18.4381 36.7208C18.5715 37.8159 17.4694 29.6976 15.9391 27.7427Z" fill="#007F68"/>
<path d="M22.9758 31.8984C21.281 35.4429 20.3256 39.2954 20.168 43.2211C20.168 43.4949 20.5856 43.4914 20.5962 43.2211C20.7449 39.3701 21.6752 35.5895 23.3303 32.109C23.4637 31.8669 23.0952 31.6492 22.9758 31.8984Z" fill="#007F68"/>
<path d="M23.2785 33.0183C23.2785 32.7867 23.2258 32.3163 23.2504 31.9268L23.0047 32.0812C22.1694 34.1134 20.9199 38.8867 20.5479 40.3468C21.0568 39.2518 23.1381 39.1008 23.7488 37.539C24.0183 36.876 24.0308 36.1364 23.7839 35.4647C23.4827 34.6824 23.3119 33.8559 23.2785 33.0183Z" fill="#007F68"/>
<path opacity="0.32" d="M70.1226 72.6831C75.7805 69.6366 89.1704 62.9013 94.7861 59.7845L62.4677 39.5645L39.1484 55.3973C45.066 58.4929 61.9342 67.6185 70.1226 72.6831Z" fill="url(#paint3_linear)"/>
<path d="M42.8477 38.5953C42.8722 46.0817 42.9143 52.8206 42.9143 52.8206C42.9143 52.8206 43.0723 53.4313 44.1989 52.9329V38.146C43.7497 38.2969 43.3004 38.4408 42.8477 38.5953Z" fill="#5B434D"/>
<path d="M74.1523 56.7902C74.1769 64.2766 74.219 71.0155 74.219 71.0155C74.219 71.0155 74.377 71.6262 75.5036 71.1278V56.355C75.0544 56.4954 74.6051 56.6498 74.1523 56.7902Z" fill="#5B434D"/>
<path d="M93.4316 45.4469C93.4562 52.9334 93.4983 59.6722 93.4983 59.6722C93.4983 59.6722 93.6563 60.283 94.7829 59.7846V45.0117C94.3372 45.1591 93.8879 45.3065 93.4316 45.4469Z" fill="#5B434D"/>
<path d="M42.585 38.146V39.4201L74.8894 58.1099L94.755 45.0639L94.7866 43.6389" fill="#A5DD73"/>
<path opacity="0.76" d="M42.585 38.146V39.4201L74.8894 58.1099L94.755 45.0639L94.7866 43.6389" fill="#6DB720"/>
<path d="M42.585 38.1462L63.3701 26.29L94.7866 43.6391L74.7771 56.8325L42.585 38.1462Z" fill="#A5DD73"/>
<path d="M71.429 31.9761L67.0523 34.082C66.8871 34.1612 66.7467 34.2839 66.6461 34.4369C66.5455 34.59 66.4885 34.7676 66.4813 34.9506C66.474 35.1336 66.5168 35.3151 66.6051 35.4756C66.6933 35.6361 66.8237 35.7695 66.9821 35.8614L77.3606 41.9159C77.585 42.0466 77.8511 42.0856 78.1036 42.0248C78.356 41.9639 78.5752 41.808 78.7154 41.5895L81.2355 37.669" fill="#56403D"/>
<path d="M93.4304 20.755L57.6758 0.162856C57.4988 0.0577471 57.2971 0.00155517 57.0912 3.18193e-05C56.8854 -0.00149153 56.6828 0.0517081 56.5043 0.154186C56.3258 0.256665 56.1777 0.404741 56.0752 0.583259C55.9727 0.761778 55.9194 0.964327 55.9209 1.17018V23.0469C55.9214 23.2042 55.9631 23.3586 56.0419 23.4948C56.1208 23.6309 56.234 23.7439 56.3702 23.8226L94.4132 45.7835C94.479 45.8219 94.5537 45.8422 94.6299 45.8424C94.7061 45.8425 94.781 45.8225 94.8469 45.7844C94.9129 45.7462 94.9675 45.6913 95.0054 45.6252C95.0433 45.5591 95.063 45.4842 95.0625 45.408V23.619C95.0647 23.0406 94.9152 22.4717 94.6288 21.9691C94.3424 21.4665 93.9292 21.0479 93.4304 20.755Z" fill="#68E1FD"/>
<path d="M58.2993 2.0935L92.155 21.573C92.5166 21.781 92.817 22.0806 93.0259 22.4417C93.2348 22.8028 93.3448 23.2126 93.3448 23.6298V39.3187C93.3453 39.4692 93.306 39.6172 93.231 39.7477C93.156 39.8783 93.0479 39.9867 92.9177 40.0622C92.7874 40.1376 92.6396 40.1774 92.489 40.1775C92.3385 40.1776 92.1906 40.138 92.0602 40.0628L57.5341 20.2533C57.4051 20.1792 57.2978 20.0724 57.2233 19.9436C57.1487 19.8148 57.1094 19.6686 57.1094 19.5198V2.79547C57.1078 2.65537 57.1432 2.51733 57.212 2.39527C57.2808 2.27322 57.3806 2.17146 57.5013 2.10027C57.6219 2.02907 57.7593 1.99096 57.8994 1.98977C58.0395 1.98859 58.1774 2.02437 58.2993 2.0935Z" fill="#200A52"/>
<path d="M72.9042 31.6237C73.1041 31.5852 73.2658 31.5525 73.2655 31.5506C73.2651 31.5487 73.1028 31.5784 72.9029 31.6168C72.703 31.6553 72.5413 31.6881 72.5417 31.69C72.542 31.6919 72.7044 31.6622 72.9042 31.6237Z" fill="#AB643C"/>
<path d="M90.7748 22.4604C90.9783 22.4604 91.1433 22.2813 91.1433 22.0603C91.1433 21.8393 90.9783 21.6602 90.7748 21.6602C90.5712 21.6602 90.4062 21.8393 90.4062 22.0603C90.4062 22.2813 90.5712 22.4604 90.7748 22.4604Z" fill="#659FE4"/>
<path d="M89.6 21.8745C89.8035 21.8745 89.9685 21.6953 89.9685 21.4743C89.9685 21.2534 89.8035 21.0742 89.6 21.0742C89.3964 21.0742 89.2314 21.2534 89.2314 21.4743C89.2314 21.6953 89.3964 21.8745 89.6 21.8745Z" fill="#C5E9FF"/>
<path d="M59.0078 6.42773L79.7684 18.2242" stroke="#00A99D" stroke-width="4.06" stroke-miterlimit="10"/>
<path d="M59.082 9.51367L62.4444 11.423" stroke="#D4145A" stroke-width="4.06" stroke-miterlimit="10"/>
<path d="M63.4375 12.0684L82.1238 22.3416" stroke="#29ABE2" stroke-width="4.06" stroke-miterlimit="10"/>
<path d="M59.0078 12.3276L66.1819 16.2832" stroke="#F7931E" stroke-width="4.06" stroke-miterlimit="10"/>
<path d="M67.3711 17.0352L83.1056 25.4517" stroke="#00A99D" stroke-width="4.06" stroke-miterlimit="10"/>
<path d="M105.92 19.5162V34.6084C105.921 34.9061 105.842 35.1986 105.693 35.456C105.543 35.7134 105.328 35.9265 105.069 36.0736C104.811 36.2207 104.517 36.2964 104.22 36.293C103.922 36.2897 103.631 36.2073 103.375 36.0545L89.0166 27.4905C88.7661 27.3414 88.5586 27.1297 88.4146 26.8761C88.2707 26.6226 88.1951 26.336 88.1953 26.0445V11.219C88.195 10.9235 88.2726 10.6333 88.4202 10.3774C88.5678 10.1214 88.7802 9.90895 89.0361 9.76127C89.292 9.61359 89.5822 9.53594 89.8776 9.53613C90.1731 9.53633 90.4632 9.61437 90.7189 9.76239L105.078 18.0526C105.335 18.2006 105.548 18.4139 105.696 18.671C105.844 18.928 105.921 19.2196 105.92 19.5162Z" fill="#A5DD73"/>
<path d="M95.6716 17.8105L91.0176 21.2326L95.1908 27.0905" stroke="#006837" stroke-width="4.06" stroke-miterlimit="10"/>
<path d="M99.7883 20.2808L103.214 26.9705L98.3984 29.2168" stroke="#006837" stroke-width="4.06" stroke-miterlimit="10"/>
<path d="M59.3062 34.1101L51.7636 38.4201C51.6849 38.4658 51.6196 38.5313 51.5742 38.6102C51.5288 38.689 51.5049 38.7784 51.5049 38.8694C51.5049 38.9604 51.5288 39.0497 51.5742 39.1286C51.6196 39.2074 51.6849 39.273 51.7636 39.3186L72.7242 51.3679C72.9783 51.5142 73.2664 51.5911 73.5596 51.5911C73.8528 51.5911 74.1408 51.5142 74.3949 51.3679L81.4531 47.293C81.5355 47.2456 81.604 47.1773 81.6516 47.0951C81.6992 47.0128 81.7242 46.9194 81.7242 46.8244C81.7242 46.7294 81.6992 46.636 81.6516 46.5537C81.604 46.4715 81.5355 46.4032 81.4531 46.3558L60.2538 34.1101C60.1101 34.0258 59.9466 33.9814 59.78 33.9814C59.6134 33.9814 59.4499 34.0258 59.3062 34.1101Z" fill="#200A52"/>
<path d="M70.7023 40.9819L68.5508 42.2595L70.1478 43.1861L72.3098 41.9155L70.7023 40.9819Z" fill="white"/>
<path d="M68.3429 39.6099L66.1914 40.8874L68.2166 42.0632L70.3786 40.7927L68.3429 39.6099Z" fill="white"/>
<path d="M59.7726 34.6333L57.5859 35.8898L59.5304 37.02L61.6924 35.7494L59.7726 34.6333Z" fill="white"/>
<path d="M64.381 37.311L62.2295 38.5956L63.8265 39.5222L65.9885 38.2517L64.381 37.311Z" fill="white"/>
<path d="M62.0216 35.939L59.8701 37.2165L61.8918 38.3923C62.1304 38.2554 63.4852 37.4552 64.0538 37.1218L62.0216 35.939Z" fill="white"/>
<path d="M72.6369 42.1055L70.4854 43.383L72.0156 44.271L74.1742 43.0005L72.6369 42.1055Z" fill="white"/>
<path d="M66.3146 38.4346L64.1631 39.7121L65.8548 40.6949L68.0169 39.4243L66.3146 38.4346Z" fill="white"/>
<path d="M74.5031 43.186L72.3516 44.4636L74.3767 45.6394L76.5388 44.3688L74.5031 43.186Z" fill="white"/>
<path d="M76.863 44.5586L74.708 45.8327L78.3407 47.9421L80.5273 46.6855L76.863 44.5586Z" fill="white"/>
<path d="M57.3087 36.2617L55.1221 37.5182L57.951 39.1608L60.113 37.8903L57.3087 36.2617Z" fill="white"/>
<path d="M62.798 39.4487L60.6465 40.7263L62.2435 41.6529L64.4055 40.3823L62.798 39.4487Z" fill="white"/>
<path d="M66.757 41.7544L64.6055 43.032L66.6306 44.2078L68.7927 42.9372L66.757 41.7544Z" fill="white"/>
<path d="M64.7316 40.5713L62.5801 41.8489L64.2718 42.8316L66.4339 41.5611L64.7316 40.5713Z" fill="white"/>
<path d="M69.1193 43.1196L66.9678 44.3972L68.5647 45.3238L70.7233 44.0532L69.1193 43.1196Z" fill="white"/>
<path d="M71.0539 44.2422L68.9023 45.5198L70.4326 46.4077L72.5912 45.1372L71.0539 44.2422Z" fill="white"/>
<path d="M60.4406 38.0796L58.2891 39.3572L60.3107 40.533L62.4728 39.2624L60.4406 38.0796Z" fill="white"/>
<path d="M72.9162 45.3267L70.7646 46.6042L72.7898 47.78L74.9484 46.5095L72.9162 45.3267Z" fill="white"/>
<path d="M73.124 47.9739L75.8722 49.5708L78.0623 48.3143L75.2755 46.6963L73.124 47.9739Z" fill="white"/>
<path d="M71.5136 47.7524L69.9131 48.7071L71.7698 49.7811L73.3948 48.8475L71.5136 47.7524Z" fill="white"/>
<path d="M72.1562 50.0058L73.7357 50.9184L75.3642 49.9883L73.7532 49.0547L72.1562 50.0058Z" fill="white"/>
<path d="M54.6093 37.936L52.9316 38.8696L54.834 39.9682L56.4801 39.0241L54.6093 37.936Z" fill="white"/>
<path d="M56.8348 39.2305L55.2168 40.1922L57.249 41.3679L58.8916 40.4238L56.8348 39.2305Z" fill="white"/>
<path d="M59.2493 40.6304L57.6348 41.5921L69.5261 48.4818L71.1546 47.5447L59.2493 40.6304Z" fill="white"/>
<path d="M114.032 62.129C117.682 62.129 120.641 60.6661 120.641 58.8614C120.641 57.0567 117.682 55.5938 114.032 55.5938C110.382 55.5938 107.423 57.0567 107.423 58.8614C107.423 60.6661 110.382 62.129 114.032 62.129Z" fill="#68E1FD"/>
<path d="M120.644 50.1567V59.0436C120.644 59.0436 115.731 63.6064 107.423 59.1173V50.1567" fill="#68E1FD"/>
<path opacity="0.21" d="M115.485 58.7734C113.66 60.1773 111.456 60.8441 109.195 61.0828C110.702 61.8113 112.359 62.1722 114.032 62.1358C117.542 62.1358 120.409 60.781 120.62 59.0682L120.641 59.0506V50.1567H120.518C119.405 53.3366 118.233 56.6394 115.485 58.7734Z" fill="#200A52"/>
<path d="M108.411 53.3369C108.411 53.3369 107.316 51.6627 106.284 52.6349C105.252 53.6072 106.154 56.952 109.183 57.2749V58.6017C109.183 58.6017 105.382 58.0857 104.866 54.6706C104.35 51.2556 106.8 50.7291 108.025 51.6697" fill="#68E1FD"/>
<path d="M114.032 53.4596C117.682 53.4596 120.641 51.9966 120.641 50.192C120.641 48.3873 117.682 46.9243 114.032 46.9243C110.382 46.9243 107.423 48.3873 107.423 50.192C107.423 51.9966 110.382 53.4596 114.032 53.4596Z" fill="#663535"/>
<path d="M51.8294 50.1782C50.2009 49.041 48.2845 48.4233 46.2137 48.8725C44.0096 49.3569 42.1002 50.7433 39.8539 51.0837C39.503 51.1364 38.0815 51.0451 37.8639 51.2522C31.6129 57.1698 49.0953 56.5345 49.0953 56.5345C50.7905 55.1306 52.3875 53.7793 54.0722 52.3753C53.5598 51.2522 52.7174 50.8029 51.8294 50.1782Z" fill="#F8997C"/>
<path d="M43.5924 58.7699L42.9711 76.6209C42.9466 77.2983 43.9995 77.2983 44.0241 76.6209L44.6453 58.7699C44.6804 58.0925 43.631 58.096 43.5924 58.7699Z" fill="#F8997C"/>
<path d="M56.7078 68.3206C53.5256 65.2063 50.4838 61.9562 47.5823 58.5704C47.1401 58.0544 46.3995 58.802 46.8382 59.3144C49.735 62.6979 52.7768 65.948 55.9638 69.0647C56.4481 69.5385 57.1957 68.7804 56.7078 68.3206Z" fill="#F8997C"/>
<path d="M39.956 57.1206C37.4851 61.784 35.1581 66.5188 32.975 71.3249C32.6977 71.9356 33.6032 72.4726 33.884 71.8549C36.0671 67.0488 38.3942 62.314 40.8651 57.6506C41.181 57.054 40.2754 56.5205 39.956 57.1206Z" fill="#F8997C"/>
<path d="M52.2646 38.2445C52.4787 38.1918 54.2793 37.7285 54.7215 37.5811C55.1638 37.4337 56.5326 36.3702 57.2767 36.5282C58.0208 36.6861 59.5194 37.6724 59.5896 38.0023C59.6598 38.3322 59.2387 38.7323 59.0807 38.8762C58.9228 39.0201 57.8382 38.6235 57.4171 38.5568C56.9959 38.4901 56.3255 39.4869 55.9289 39.6624C55.5323 39.8379 52.9701 40.2977 52.9701 40.2977" fill="#FCBF81"/>
<path d="M57.1055 42.6175C57.3196 42.5649 59.1201 42.1016 59.5623 41.9542C60.0046 41.8067 61.3734 40.7433 62.1175 40.9012C62.8616 41.0591 64.3603 42.0454 64.4305 42.3753C64.5007 42.7053 64.0795 43.1054 63.9215 43.2493C63.7636 43.3932 62.6791 42.9966 62.2579 42.9299C61.8367 42.8632 61.1663 43.86 60.7697 44.0355C60.3731 44.211 57.8109 44.6707 57.8109 44.6707" fill="#FCBF81"/>
<path d="M56.4062 65.302C56.7327 64.951 56.9468 64.6 56.8344 64.2315C56.6344 63.5752 55.7429 63.3084 55.1322 63.3435C54.5215 63.3786 53.8897 63.6945 53.272 63.87C52.6261 64.1018 51.9367 64.187 51.2538 64.1192C51.1439 64.1031 51.0439 64.0468 50.973 63.9612C50.7837 63.9193 50.6086 63.8285 50.4652 63.698C50.3217 63.5675 50.2149 63.4017 50.1553 63.2172L48.1336 62.4941C48.1336 62.4941 47.6177 66.7656 47.6352 67.0569C47.7861 69.3629 51.2293 68.0467 51.2293 68.0467C51.2293 68.0467 51.3521 66.9937 51.3837 66.8639C51.4153 66.734 52.735 67.1341 53.279 67.0499C53.5292 66.98 53.7663 66.8698 53.981 66.7235C54.3881 66.4988 54.7882 66.2602 55.1848 66.0215C55.5814 65.7828 55.9956 65.5477 56.4062 65.302Z" fill="#56403D"/>
<path d="M48.8568 49.5356C48.0987 49.6093 47.3405 49.7076 46.5859 49.8164C46.8995 54.667 47.2505 59.514 47.6389 64.3576C49.6044 65.1614 50.4011 64.7893 51.619 63.5433C51.8507 58.9209 52.2543 54.0668 52.2438 49.4058C51.1206 49.4549 49.9905 49.504 48.8568 49.5356Z" fill="#34323D"/>
<path d="M40.6894 48.2058C40.6894 48.2058 40.363 53.5162 43.0304 54.699C45.6979 55.8818 51.1697 55.2922 53.8617 53.7127C55.2535 52.8651 56.714 52.136 58.228 51.5331C58.228 51.5331 58.9299 49.2096 57.2417 48.2058C55.5535 47.202 51.8541 45.9595 48.5619 48.2058" fill="#34323D"/>
<path d="M54.2904 40.2561C54.5747 39.1716 54.4097 37.3816 54.4097 37.3816C54.4097 37.3816 51.0789 37.9502 49.6749 37.7326C48.271 37.515 45.9756 34.5737 45.9756 34.5737L46.288 40.4C48.9484 40.9581 51.7036 41.0774 54.2904 40.2561Z" fill="#BA3E00"/>
<path d="M62.5664 68.6287C62.8928 68.2777 63.1069 67.9267 62.9946 67.5582C62.7945 66.9018 61.903 66.6351 61.2923 66.6702C60.6816 66.7053 60.0499 67.0212 59.4321 67.1967C58.7863 67.4285 58.0969 67.5136 57.414 67.4458C57.3041 67.4297 57.2041 67.3735 57.1332 67.2879C56.9439 67.2459 56.7688 67.1552 56.6253 67.0246C56.4819 66.8941 56.375 66.7284 56.3154 66.5438L54.2938 65.8208C54.2938 65.8208 53.7778 70.0923 53.7954 70.3836C53.9463 72.6895 57.3894 71.3733 57.3894 71.3733C57.3894 71.3733 57.5123 70.3204 57.5438 70.1905C57.5754 70.0607 58.8951 70.4608 59.4392 70.3766C59.6893 70.3067 59.9265 70.1964 60.1411 70.0501C60.5483 69.8255 60.9484 69.5868 61.345 69.3482C61.7416 69.1095 62.1593 68.8744 62.5664 68.6287Z" fill="#56403D"/>
<path d="M54.7886 48.3355C54.0867 48.0056 53.3637 48.0407 52.5283 48.0442C52.6441 49.7535 52.581 50.3677 52.6863 52.0735L52.7143 52.5263C53.0372 57.5804 53.4163 62.6311 53.8024 67.6817C55.7679 68.4854 56.5646 68.1134 57.7825 66.8674C58.0528 61.4869 58.5617 55.808 58.3652 50.452C57.2315 49.3288 56.2277 49.0094 54.7886 48.3355Z" fill="#34323D"/>
<path d="M40.6447 47.1071C40.6447 47.2369 40.6693 47.6757 40.6903 48.2056C41.7959 49.6622 43.1472 50.5151 45.2531 50.4519C46.9694 50.4028 48.4119 49.6517 49.7457 48.7251C49.5772 45.6189 49.0753 40.3015 48.2926 36.6057C48.2259 36.2933 47.4152 36.0827 47.1765 35.9528C46.6184 35.6475 46.9448 35.121 46.3973 34.7946C45.6032 34.3321 44.7761 33.9286 43.9229 33.5872H43.9018C42.5365 33.5662 40.1814 34.6191 40.041 36.4477C39.8269 39.2556 40.1358 40.9579 40.3534 43.7622C40.4341 44.8924 40.55 46.0085 40.6447 47.1071Z" fill="#E55600"/>
<path d="M45.4005 28.2621C45.5795 28.3078 47.0957 31.7965 46.5025 33.9165C45.9094 36.0364 42.3083 33.8568 41.4028 32.2423C40.4972 30.6278 41.9959 27.3636 45.4005 28.2621Z" fill="#FCBF81"/>
<path d="M45.3477 28.7505C45.3477 28.7505 45.3477 29.9017 44.3404 30.2738C43.3331 30.6458 42.4942 30.895 42.5504 31.3618C42.6065 31.8286 44.372 31.2951 44.379 32.3621C44.3796 33.0808 44.2828 33.7963 44.0912 34.4891C43.9789 35.012 40.9569 33.408 39.9601 30.6774C38.9633 27.9467 41.4588 27.2202 41.5817 27.2027C41.7045 27.1851 41.9326 26.441 43.1505 26.1743C44.3685 25.9075 44.7194 26.3849 44.7194 26.3849C44.9974 26.2174 45.3226 26.1456 45.6452 26.1804C45.9678 26.2153 46.2702 26.3549 46.5059 26.5779C47.6326 27.4729 47.3483 29.1085 46.0707 29.7719L45.3477 28.7505Z" fill="#34323D"/>
<path d="M59.2462 41.7543C57.6773 42.0807 54.4904 42.6002 53.3638 42.1053C52.4898 41.7227 49.5732 35.4682 46.4038 34.7979L45.9756 39.5712C45.9756 39.5712 50.4576 45.2571 52.5284 45.8433C54.0341 46.268 58.088 45.6994 59.8675 45.0816C59.9445 43.9379 59.7308 42.7932 59.2462 41.7543Z" fill="#E55600"/>
<path d="M49.3166 43.2248C49.0885 42.93 46.4912 39.9888 46.4912 39.9888L49.6114 46.3802L49.3166 43.2248Z" fill="#34323D"/>
<path d="M53.8261 52.2839C52.8512 53.6428 51.4697 54.6568 49.8811 55.1795C47.6558 55.8569 44.4198 55.5304 43.251 53.2105C41.1241 48.9776 43.1212 43.6778 40.8749 39.5608C40.6155 39.0403 40.2491 38.5806 39.7997 38.2116C39.3503 37.8427 38.828 37.5728 38.2671 37.4198C36.8105 37.1004 35.8102 38.1954 35.2837 39.4835C34.3361 41.793 34.3712 44.6675 34.4168 47.1279C34.4191 49.1152 34.5634 51.0998 34.8485 53.0666C34.8485 53.0666 36.2103 61.3181 46.824 59.1034C48.6621 58.7702 50.4275 58.1168 52.0396 57.173C52.8657 56.6967 53.5887 56.0608 54.1666 55.3023C54.8229 54.3476 54.3842 53.228 53.8261 52.2839Z" fill="#68E1FD"/>
<defs>
<linearGradient id="paint0_linear" x1="103.971" y1="64.323" x2="111.475" y2="57.3946" gradientUnits="userSpaceOnUse">
<stop stop-color="#E75D48"/>
<stop offset="1" stop-color="#502019"/>
</linearGradient>
<linearGradient id="paint1_linear" x1="4356.72" y1="4199.7" x2="4758.82" y2="3534.73" gradientUnits="userSpaceOnUse">
<stop stop-color="#E75D48"/>
<stop offset="1" stop-color="#502019"/>
</linearGradient>
<linearGradient id="paint2_linear" x1="908.086" y1="2220.84" x2="1171.49" y2="1849.77" gradientUnits="userSpaceOnUse">
<stop stop-color="#E75D48"/>
<stop offset="1" stop-color="#502019"/>
</linearGradient>
<linearGradient id="paint3_linear" x1="10606.4" y1="6994.82" x2="11334.3" y2="5364.31" gradientUnits="userSpaceOnUse">
<stop stop-color="#E75D48"/>
<stop offset="1" stop-color="#502019"/>
</linearGradient>
</defs>
</svg>
