<svg width="130" height="93" viewBox="0 0 130 93" fill="none" xmlns="http://www.w3.org/2000/svg">
<path d="M66.921 91.622L127.472 55.8349C129.4 54.751 131.052 52.9751 129.174 51.81L68.4074 16.7891C67.4965 16.2242 66.1125 15.8535 65.1839 16.3936L1.63154 53.2823C-0.296211 54.4015 -0.642218 57.5191 1.27848 58.6489L58.9417 91.5584C60.1514 92.2616 61.5236 92.6373 62.9229 92.6485C64.3222 92.6596 65.7002 92.3058 66.921 91.622Z" fill="#FFB3A6"/>
<path style="mix-blend-mode:multiply" d="M40.5856 68.5913L30.9609 73.9332C30.9609 73.9332 39.9536 81.0229 43.9892 82.7317L53.6244 76.9943" fill="url(#paint0_linear)"/>
<path style="mix-blend-mode:multiply" d="M40.193 47.2344L30.5684 52.5763C30.5684 52.5763 32.8739 56.2235 36.9236 57.9182L47.325 52.1809" fill="url(#paint1_linear)"/>
<path style="mix-blend-mode:multiply" d="M92.2539 68.2978C92.2539 68.2978 103.888 61.7837 103.958 61.6743L85.8846 52.5757L75.7197 58.4437L92.2539 68.2978Z" fill="url(#paint2_linear)"/>
<path d="M105.6 41.6983L120.359 50.8463C120.494 50.9299 120.605 51.0473 120.681 51.187C120.757 51.3266 120.795 51.4837 120.792 51.6427C120.789 51.8017 120.744 51.9571 120.663 52.0936C120.581 52.2301 120.465 52.3429 120.327 52.421L97.9281 65.0785C97.6167 65.2579 97.2636 65.3523 96.9042 65.3523C96.5448 65.3523 96.1917 65.2579 95.8803 65.0785L81.1891 56.4424C80.1299 55.5668 80.4194 54.2675 81.1891 53.8438L103.457 41.67C103.783 41.4801 104.155 41.3824 104.533 41.3874C104.91 41.3924 105.279 41.4998 105.6 41.6983Z" fill="#68E1FD"/>
<path d="M105.599 41.0694L120.357 50.2174C120.492 50.301 120.604 50.4184 120.68 50.5581C120.756 50.6977 120.794 50.8548 120.791 51.0138C120.788 51.1728 120.743 51.3282 120.661 51.4647C120.58 51.6012 120.464 51.714 120.325 51.7921L97.9302 64.4602C97.6188 64.6396 97.2657 64.734 96.9063 64.734C96.5469 64.734 96.1939 64.6396 95.8824 64.4602L81.1912 55.8241C81.019 55.7242 80.8761 55.5808 80.7767 55.4082C80.6773 55.2356 80.625 55.04 80.625 54.8408C80.625 54.6417 80.6773 54.4461 80.7767 54.2735C80.8761 54.1009 81.019 53.9575 81.1912 53.8576L103.459 41.0553C103.784 40.8639 104.154 40.7642 104.531 40.7666C104.908 40.7691 105.277 40.8738 105.599 41.0694Z" fill="white"/>
<path d="M104.618 41.564L119.451 50.8991L97.2674 63.5919L81.9619 54.5922L104.618 41.564Z" fill="#606060"/>
<path d="M88.6423 59.7116C88.9328 59.7116 89.1683 59.6009 89.1683 59.4644C89.1683 59.3279 88.9328 59.2173 88.6423 59.2173C88.3517 59.2173 88.1162 59.3279 88.1162 59.4644C88.1162 59.6009 88.3517 59.7116 88.6423 59.7116Z" fill="#383097"/>
<path style="mix-blend-mode:multiply" d="M105.166 57.0355C105.166 57.0355 107.097 53.4448 107.107 53.4272L106.776 53.2612L102.673 55.6303L105.166 57.0355Z" fill="url(#paint3_linear)"/>
<path d="M122.512 43.7921C122.507 43.7664 122.507 43.74 122.512 43.7144C122.31 43.609 122.093 43.5363 121.869 43.499L108.099 51.7185C108.099 51.7185 107.273 52.3646 108.806 53.2367L122.783 44.9289C122.77 44.5356 122.678 44.149 122.512 43.7921Z" fill="#CCCCCC"/>
<path d="M108.071 51.7144C108.071 51.7144 106.468 53.5079 106.44 53.6245C106.411 53.741 108.759 53.2326 108.759 53.2326" fill="#CCCCCC"/>
<path d="M122.733 44.9316C122.986 44.7854 123.003 44.3396 122.77 43.936C122.537 43.5324 122.143 43.3238 121.889 43.4701C121.636 43.6163 121.62 44.062 121.853 44.4656C122.086 44.8692 122.48 45.0779 122.733 44.9316Z" fill="#F2F2F2"/>
<path d="M52.9248 40.2505L58.7081 43.0362C58.9254 43.1413 59.1101 43.3034 59.2423 43.5054C59.3745 43.7073 59.4494 43.9414 59.4588 44.1826C59.4682 44.4238 59.4119 44.663 59.2958 44.8747C59.1798 45.0863 59.0083 45.2624 58.7999 45.3841L45.0902 53.3811C44.7938 53.5538 44.4422 53.6054 44.1087 53.5252C43.7752 53.4449 43.4855 53.239 43.3001 52.9504L39.9707 47.7779" fill="#56403D"/>
<path d="M21.4564 26.8551L67.5883 0.279633C67.9047 0.0965348 68.2638 8.3229e-05 68.6294 5.38401e-08C68.995 -8.31214e-05 69.3541 0.0962054 69.6706 0.27916C69.9871 0.462114 70.2498 0.725269 70.4322 1.0421C70.6146 1.35893 70.7102 1.71824 70.7095 2.08381V29.7291C70.7092 30.0326 70.6292 30.3306 70.4774 30.5934C70.3255 30.8562 70.1073 31.0744 69.8444 31.2261L20.6726 59.6093C20.5029 59.7073 20.3104 59.7588 20.1144 59.7588C19.9185 59.7587 19.726 59.7071 19.5564 59.609C19.3867 59.5109 19.2459 59.3699 19.1481 59.2001C19.0502 59.0304 18.9988 58.8378 18.999 58.6419V31.1025C19.0002 30.2412 19.2279 29.3954 19.6592 28.6499C20.0905 27.9044 20.7103 27.2854 21.4564 26.8551Z" fill="#68E1FD"/>
<path d="M67.5821 2.36974L22.8553 28.1049C22.3776 28.3799 21.9807 28.7761 21.7049 29.2534C21.4291 29.7307 21.2839 30.2723 21.2842 30.8235V51.5487C21.2847 51.7468 21.3372 51.9414 21.4364 52.113C21.5356 52.2845 21.678 52.4271 21.8495 52.5264C22.021 52.6257 22.2155 52.6783 22.4137 52.679C22.6119 52.6797 22.8068 52.6284 22.9789 52.5302L68.5954 26.3537C68.7658 26.2561 68.9075 26.1153 69.0061 25.9454C69.1046 25.7756 69.1566 25.5827 69.1568 25.3863V3.29125C69.1561 3.10702 69.1074 2.92615 69.0155 2.76649C68.9235 2.60684 68.7915 2.47392 68.6325 2.38087C68.4735 2.28782 68.293 2.23785 68.1088 2.2359C67.9246 2.23395 67.743 2.28008 67.5821 2.36974Z" fill="white"/>
<path d="M49.9218 40.5422C50.038 39.939 49.7053 39.3679 49.1787 39.2665C48.6522 39.1651 48.1311 39.5718 48.015 40.175C47.8988 40.7781 48.2315 41.3493 48.7581 41.4507C49.2847 41.5521 49.8057 41.1453 49.9218 40.5422Z" fill="#AB643C"/>
<path d="M69.8548 52.202L81.9227 59.0974C82.0488 59.1703 82.1535 59.275 82.2263 59.4011C82.2991 59.5272 82.3375 59.6703 82.3375 59.8159C82.3375 59.9616 82.2991 60.1046 82.2263 60.2307C82.1535 60.3569 82.0488 60.4616 81.9227 60.5344L48.4024 79.819C47.9959 80.0533 47.5351 80.1766 47.066 80.1766C46.5969 80.1766 46.1361 80.0533 45.7296 79.819L34.4314 73.2979C34.3002 73.2219 34.1913 73.1127 34.1156 72.9813C34.0399 72.85 34 72.701 34 72.5494C34 72.3977 34.0399 72.2488 34.1156 72.1174C34.1913 71.986 34.3002 71.8769 34.4314 71.8008L68.3472 52.2091C68.5755 52.075 68.8353 52.0037 69.1001 52.0025C69.3648 52.0012 69.6252 52.0701 69.8548 52.202Z" fill="#974C26"/>
<path d="M51.6195 63.1968L55.0655 65.2375L52.5093 66.7239C51.8031 66.3038 49.72 65.0822 49.0527 64.6903L51.6195 63.1968Z" fill="white"/>
<path d="M55.3928 61.0039L58.8387 63.0446L55.6011 64.9265C55.0362 64.5981 52.9495 63.3659 52.1445 62.8928L55.3928 61.0039Z" fill="white"/>
<path d="M69.1069 53.0425L72.6058 55.0514L69.4917 56.8592C68.9974 56.5732 66.8861 55.3268 66.0352 54.8255L69.1069 53.0425Z" fill="white"/>
<path d="M61.7348 57.3105L65.1807 59.3513L62.6245 60.8342C62.0208 60.4811 59.9412 59.256 59.168 58.8005L61.7348 57.3105Z" fill="white"/>
<path d="M65.5094 55.1289L68.9554 57.1696L65.7036 59.0515C65.3223 58.8326 63.1545 57.5545 62.2471 57.0178L65.5094 55.1289Z" fill="white"/>
<path d="M48.5267 64.9937L51.9726 67.0344L49.5259 68.4467C48.7915 68.0159 46.7225 66.7978 46.0693 66.413L48.5267 64.9937Z" fill="white"/>
<path d="M58.6415 59.1182L62.0874 61.1589L59.3794 62.7301C58.7439 62.377 56.6714 61.1377 55.9229 60.6964L58.6415 59.1182Z" fill="white"/>
<path d="M45.5432 66.7271L48.9891 68.7678L45.7515 70.6496C45.0736 70.2542 43.0081 69.0361 42.2949 68.616L45.5432 66.7271Z" fill="white"/>
<path d="M41.7649 68.9199L45.2108 70.9607L39.4028 74.3325L35.9004 72.3235L41.7649 68.9199Z" fill="white"/>
<path d="M73.0537 55.6475L76.5526 57.6564L72.0298 60.2833C71.4366 59.9302 69.3571 58.7121 68.5732 58.2496L73.0537 55.6475Z" fill="white"/>
<path d="M64.2699 60.7461L67.7159 62.7868L65.1597 64.2733C64.4747 63.8743 62.4093 62.6562 61.7031 62.2396L64.2699 60.7461Z" fill="white"/>
<path d="M57.9357 64.4287L61.3817 66.4694L58.144 68.3513C57.4944 67.9735 55.4254 66.7519 54.6875 66.3176L57.9357 64.4287Z" fill="white"/>
<path d="M61.1766 62.5435L64.6226 64.5842L61.9146 66.1553C61.2084 65.7423 59.1359 64.5206 58.458 64.1217L61.1766 62.5435Z" fill="white"/>
<path d="M54.1547 66.6211L57.6006 68.6618L55.0444 70.1483C54.2536 69.6857 52.174 68.4571 51.5879 68.1146L54.1547 66.6211Z" fill="white"/>
<path d="M51.0609 68.4185L54.5068 70.4592L52.0601 71.8715C51.2551 71.4019 49.172 70.1697 48.6035 69.8378L51.0609 68.4185Z" fill="white"/>
<path d="M68.0432 58.5537L71.4891 60.5944L68.2515 62.4728C67.7395 62.1762 65.6317 60.9334 64.7949 60.4391L68.0432 58.5537Z" fill="white"/>
<path d="M48.0783 70.1519L51.5243 72.1926L48.2866 74.0744C47.5381 73.6366 45.4621 72.415 44.8301 72.0408L48.0783 70.1519Z" fill="white"/>
<path d="M47.7458 74.3856L43.3466 76.9383L39.8477 74.9293L44.2999 72.3413L47.7458 74.3856Z" fill="white"/>
<path d="M50.3232 74.0356L52.8865 75.5574L49.9136 77.2768L47.3115 75.7833L50.3232 74.0356Z" fill="white"/>
<path d="M49.2996 77.6334L46.7717 79.0987L44.166 77.6087L46.7399 76.1152L49.2996 77.6334Z" fill="white"/>
<path d="M77.368 58.3276L80.0514 59.8141L77.0079 61.5794L74.374 60.0647L77.368 58.3276Z" fill="white"/>
<path d="M73.8062 60.397L76.3942 61.9328L73.146 63.8182L70.5156 62.3071L73.8062 60.397Z" fill="white"/>
<path d="M69.9436 62.6387L72.528 64.1745L53.5047 75.1973L50.8955 73.7003L69.9436 62.6387Z" fill="white"/>
<path style="mix-blend-mode:multiply" d="M78.4351 30.1245L73.4922 33.0444C73.4922 33.0444 75.0174 35.7207 78.7882 37.3024L84.5291 34.2166" fill="url(#paint4_linear)"/>
<path d="M82.4414 34.4566C84.9666 34.4566 87.0136 33.0149 87.0136 31.2366C87.0136 29.4582 84.9666 28.0166 82.4414 28.0166C79.9162 28.0166 77.8691 29.4582 77.8691 31.2366C77.8691 33.0149 79.9162 34.4566 82.4414 34.4566Z" fill="#68E1FD"/>
<path d="M82.4453 30.7355C84.3367 30.7355 85.87 30.1079 85.87 29.3338C85.87 28.5597 84.3367 27.9321 82.4453 27.9321C80.5538 27.9321 79.0205 28.5597 79.0205 29.3338C79.0205 30.1079 80.5538 30.7355 82.4453 30.7355Z" fill="#974C26"/>
<path d="M82.6714 29.3654C82.9397 28.9877 83.2116 28.5922 83.494 28.1474C83.8471 27.5789 84.2002 26.9999 84.5073 26.3997C84.7962 25.869 85.0429 25.3166 85.2453 24.7473C85.4703 24.129 85.6508 23.4954 85.7855 22.8513C85.8208 22.6818 85.849 22.4983 85.8808 22.3429C85.8808 22.2652 85.8808 22.2723 85.8808 22.2829C85.8808 22.2935 85.8808 22.2299 85.8808 22.1346C85.9126 21.7815 85.9337 21.4285 85.9373 21.0966C85.9529 19.8958 85.721 18.7048 85.2558 17.5977C84.0197 19.3905 83.1862 21.4297 82.8126 23.5751C82.7891 23.7022 82.7667 23.8305 82.7455 23.96C82.7455 23.96 82.7102 24.193 82.6961 24.2883L82.6608 24.6096C82.6443 24.772 82.629 24.9356 82.6149 25.1004C82.5655 25.7324 82.5407 26.3644 82.5443 26.9963C82.5725 27.7872 82.6078 28.5781 82.6714 29.3654ZM84.126 19.9173C84.2084 19.8232 84.2943 19.7314 84.3838 19.6419C84.3656 19.7233 84.3656 19.8077 84.3838 19.8891C84.2981 19.8845 84.2122 19.894 84.1296 19.9173H84.126Z" fill="#999A1C"/>
<path d="M82.759 29.4183C82.7837 28.9558 82.7943 28.4756 82.7907 27.9495C82.7907 27.2751 82.759 26.6043 82.6989 25.9335C82.6554 25.3306 82.5645 24.7321 82.4271 24.1434C82.2829 23.501 82.0929 22.8698 81.8586 22.2545C81.7951 22.0921 81.7315 21.9332 81.6609 21.7743C81.6291 21.7002 81.6362 21.7073 81.6433 21.7179L81.5726 21.5872C81.4102 21.28 81.2443 20.9764 81.0607 20.6834C80.4231 19.6633 79.5817 18.7858 78.5892 18.106C78.5175 20.2844 78.9186 22.4526 79.7649 24.4612C79.8144 24.5812 79.865 24.6989 79.9168 24.8143L80.0544 25.1179L80.1992 25.4109C80.2722 25.5569 80.3475 25.7028 80.4252 25.8488C80.7253 26.4066 81.0466 26.9503 81.389 27.4835C81.8198 28.1508 82.2788 28.7933 82.759 29.4183ZM78.8752 20.6834C78.894 20.5586 78.9164 20.4409 78.9423 20.3303C78.9661 20.41 79.007 20.4835 79.0623 20.5457C78.9932 20.5831 78.9301 20.6307 78.8752 20.6869V20.6834Z" fill="#999A1C"/>
<path d="M82.7806 29.6655C82.6429 29.4077 82.4947 29.1465 82.3252 28.8605C82.1063 28.5074 81.8733 28.1543 81.619 27.8013C81.3976 27.4905 81.1521 27.1978 80.8847 26.9257C80.599 26.6252 80.2922 26.3455 79.9667 26.0889L79.7195 25.8876C79.6772 25.8594 79.6842 25.8594 79.6913 25.8629L79.6101 25.8135C79.423 25.7005 79.2358 25.5911 79.0416 25.4922C78.37 25.147 77.6345 24.9439 76.8809 24.8955C77.545 26.0928 78.4604 27.1323 79.5642 27.9425L79.7619 28.0872L79.9314 28.2073L80.1044 28.3167L80.3692 28.4792C80.7105 28.6839 81.0635 28.8746 81.4284 29.0511C81.8627 29.2806 82.3181 29.4819 82.7806 29.6655ZM77.8659 26.2054C77.8353 26.1324 77.8071 26.0583 77.7812 25.983C77.8196 26.0185 77.8654 26.045 77.9153 26.0606C77.8915 26.106 77.8748 26.1549 77.8659 26.2054Z" fill="#999A1C"/>
<path d="M82.6714 29.3654C82.9397 28.9877 83.2116 28.5922 83.494 28.1474C83.8471 27.5789 84.2002 26.9999 84.5073 26.3997C84.7962 25.869 85.0429 25.3166 85.2453 24.7473C85.4703 24.129 85.6508 23.4954 85.7855 22.8513C85.8208 22.6818 85.849 22.4983 85.8808 22.3429C85.8808 22.2652 85.8808 22.2723 85.8808 22.2829C85.8808 22.2935 85.8808 22.2299 85.8808 22.1346C85.9126 21.7815 85.9337 21.4285 85.9373 21.0966C85.9529 19.8958 85.721 18.7048 85.2558 17.5977C84.0197 19.3905 83.1862 21.4297 82.8126 23.5751C82.7891 23.7022 82.7667 23.8305 82.7455 23.96C82.7455 23.96 82.7102 24.193 82.6961 24.2883L82.6608 24.6096C82.6443 24.772 82.629 24.9356 82.6149 25.1004C82.5655 25.7324 82.5407 26.3644 82.5443 26.9963C82.5725 27.7872 82.6078 28.5781 82.6714 29.3654ZM84.126 19.9173C84.2084 19.8232 84.2943 19.7314 84.3838 19.6419C84.3656 19.7233 84.3656 19.8077 84.3838 19.8891C84.2981 19.8845 84.2122 19.894 84.1296 19.9173H84.126Z" fill="#999A1C"/>
<path d="M82.759 29.4183C82.7837 28.9558 82.7943 28.4756 82.7907 27.9495C82.7907 27.2751 82.759 26.6043 82.6989 25.9335C82.6554 25.3306 82.5645 24.7321 82.4271 24.1434C82.2829 23.501 82.0929 22.8698 81.8586 22.2545C81.7951 22.0921 81.7315 21.9332 81.6609 21.7743C81.6291 21.7002 81.6362 21.7073 81.6433 21.7179L81.5726 21.5872C81.4102 21.28 81.2443 20.9764 81.0607 20.6834C80.4231 19.6633 79.5817 18.7858 78.5892 18.106C78.5175 20.2844 78.9186 22.4526 79.7649 24.4612C79.8144 24.5812 79.865 24.6989 79.9168 24.8143L80.0544 25.1179L80.1992 25.4109C80.2722 25.5569 80.3475 25.7028 80.4252 25.8488C80.7253 26.4066 81.0466 26.9503 81.389 27.4835C81.8198 28.1508 82.2788 28.7933 82.759 29.4183ZM78.8752 20.6834C78.894 20.5586 78.9164 20.4409 78.9423 20.3303C78.9661 20.41 79.007 20.4835 79.0623 20.5457C78.9932 20.5831 78.9301 20.6307 78.8752 20.6869V20.6834Z" fill="#999A1C"/>
<path d="M82.7806 29.6655C82.6429 29.4077 82.4947 29.1465 82.3252 28.8605C82.1063 28.5074 81.8733 28.1543 81.619 27.8013C81.3976 27.4905 81.1521 27.1978 80.8847 26.9257C80.599 26.6252 80.2922 26.3455 79.9667 26.0889L79.7195 25.8876C79.6772 25.8594 79.6842 25.8594 79.6913 25.8629L79.6101 25.8135C79.423 25.7005 79.2358 25.5911 79.0416 25.4922C78.37 25.147 77.6345 24.9439 76.8809 24.8955C77.545 26.0928 78.4604 27.1323 79.5642 27.9425L79.7619 28.0872L79.9314 28.2073L80.1044 28.3167L80.3692 28.4792C80.7105 28.6839 81.0635 28.8746 81.4284 29.0511C81.8627 29.2806 82.3181 29.4819 82.7806 29.6655ZM77.8659 26.2054C77.8353 26.1324 77.8071 26.0583 77.7812 25.983C77.8196 26.0185 77.8654 26.045 77.9153 26.0606C77.8915 26.106 77.8748 26.1549 77.8659 26.2054Z" fill="#999A1C"/>
<path d="M31.0029 43.4635L47.3112 34.7886L37.5241 25.4429L31.0029 43.4635Z" fill="#E88831"/>
<path d="M60.0185 22.9647C63.4465 22.9647 66.2254 20.1857 66.2254 16.7577C66.2254 13.3297 63.4465 10.5508 60.0185 10.5508C56.5905 10.5508 53.8115 13.3297 53.8115 16.7577C53.8115 20.1857 56.5905 22.9647 60.0185 22.9647Z" fill="#7ACC92"/>
<path d="M27.5718 31.265C26.5832 30.7001 25.6935 32.2254 26.6821 32.7903C29.7502 34.5556 27.2929 38.397 25.0085 39.4986C23.9846 39.9894 24.8779 41.5146 25.8983 41.0239C29.4643 39.3044 31.8086 33.6553 27.5718 31.265Z" fill="#56403D"/>
<path d="M55.817 26.9467C54.8779 22.5581 48.971 25.252 49.9984 29.2311C50.4433 30.954 52.3216 31.9568 53.9458 31.1023C54.6558 30.6952 55.219 30.0741 55.555 29.3279C55.8911 28.5816 55.9828 27.7482 55.817 26.9467ZM54.1152 28.0483C54.0778 28.3742 53.9589 28.6854 53.7695 28.9532C53.58 29.221 53.3262 29.4368 53.0313 29.5806C51.6826 30.0961 51.7144 28.3837 52.0462 27.5646C52.6394 26.0464 54.4047 26.2406 54.1082 28.0624L54.1152 28.0483Z" fill="#56403D"/>
<path d="M53.084 83.3429C53.1201 83.1145 53.2118 82.8985 53.3509 82.7138C53.49 82.5291 53.6724 82.3814 53.8819 82.2836L56.4417 80.8078L60.396 78.5164L65.1201 75.7801L70.1478 72.8708L75.0096 70.0463L79.2464 67.5995L82.371 65.7918L84.0128 64.8421C84.0128 64.8774 84.0693 64.8774 84.1046 64.8668C84.2996 64.8192 84.5035 64.8227 84.6967 64.8768C84.8899 64.9309 85.066 65.0339 85.2079 65.1758C85.3498 65.3177 85.4527 65.4937 85.5068 65.687C85.561 65.8802 85.5644 66.0841 85.5169 66.279C85.3262 67.0205 84.6942 67.6737 84.1046 68.1256C82.1929 69.4981 80.1978 70.7503 78.1307 71.8752V71.1373C79.5218 70.3746 82.5229 68.6658 83.7798 67.3594L83.1796 67.7125L81.5272 68.6799L79.0381 70.1346L75.9311 71.9493L72.411 74.0218L68.7179 76.1791L65.0601 78.3152L61.6565 80.3065L58.7366 82.0259L56.4876 83.3393C55.8026 83.7418 55.0576 84.2855 54.2597 84.4409C54.1091 84.4516 53.9579 84.4311 53.8156 84.3807C53.6733 84.3303 53.5429 84.2511 53.4326 84.1481C53.3222 84.045 53.2343 83.9204 53.1743 83.7818C53.1144 83.6433 53.0836 83.4938 53.084 83.3429Z" fill="#68E1FD"/>
<path style="mix-blend-mode:multiply" d="M73.0971 45.6948L67.8223 48.8371C67.8223 48.8371 71.2859 52.156 75.3214 53.8542L80.2256 50.6519" fill="url(#paint5_linear)"/>
<path d="M72.5908 43.4532V45.9212L80.2136 50.6417L89.3651 45.0491V42.9448" fill="#E54C3C"/>
<path d="M89.3651 42.9443L81.5941 38.2944L72.5908 43.4528L80.3619 48.1733L89.3651 42.9443Z" fill="#F5604B"/>
<defs>
<linearGradient id="paint0_linear" x1="51.9085" y1="67.631" x2="38.3259" y2="78.6855" gradientUnits="userSpaceOnUse">
<stop stop-color="#D4A397"/>
<stop offset="1" stop-color="white"/>
</linearGradient>
<linearGradient id="paint1_linear" x1="2532" y1="1663.17" x2="2185.8" y2="2105.13" gradientUnits="userSpaceOnUse">
<stop stop-color="#D4A397"/>
<stop offset="1" stop-color="white"/>
</linearGradient>
<linearGradient id="paint2_linear" x1="93.9028" y1="54.0727" x2="87.0073" y2="64.2305" gradientUnits="userSpaceOnUse">
<stop offset="0.01" stop-color="#4D4D4D"/>
<stop offset="1" stop-color="white"/>
</linearGradient>
<linearGradient id="paint3_linear" x1="1509.49" y1="698.365" x2="1487.04" y2="737.221" gradientUnits="userSpaceOnUse">
<stop offset="0.01" stop-color="#4D4D4D"/>
<stop offset="1" stop-color="white"/>
</linearGradient>
<linearGradient id="paint4_linear" x1="81.7822" y1="30.6117" x2="76.8357" y2="36.0314" gradientUnits="userSpaceOnUse">
<stop stop-color="#78B46A"/>
<stop offset="0.03" stop-color="#7F3500"/>
<stop offset="1" stop-color="white"/>
</linearGradient>
<linearGradient id="paint5_linear" x1="3048.21" y1="1273.93" x2="2878.52" y2="1483.96" gradientUnits="userSpaceOnUse">
<stop stop-color="#D4A397"/>
<stop offset="1" stop-color="white"/>
</linearGradient>
</defs>
</svg>
