<svg width="130" height="87" viewBox="0 0 130 87" fill="none" xmlns="http://www.w3.org/2000/svg">
<path d="M63.0827 85.6611L2.52808 49.8734C0.600902 48.7919 -1.05338 47.013 0.826638 45.8506L61.5969 10.8109C62.51 10.2449 63.8947 9.87427 64.8212 10.4133L128.371 47.3297C130.298 48.4482 130.645 51.5749 128.708 52.6968L71.0644 85.6038C69.8537 86.3062 68.4808 86.6809 67.0811 86.691C65.6815 86.701 64.3034 86.346 63.0827 85.6611Z" fill="#A2C609"/>
<path style="mix-blend-mode:multiply" opacity="0.91" d="M50.5391 60.1563L72.2637 74.3002L86.1245 65.2842L63.4869 55.1328" fill="url(#paint0_linear)"/>
<path style="mix-blend-mode:multiply" opacity="0.91" d="M60.1382 72.656C60.0304 72.656 51.9477 70.1628 51.8399 70.1729L47.0859 73.7442L67.5538 86.2777L75.9061 80.5938L60.1382 72.656Z" fill="url(#paint1_linear)"/>
<path style="mix-blend-mode:multiply" opacity="0.91" d="M14.3369 47.1407L34.4645 59.9201L42.8168 54.2363L20.8428 42.9326" fill="url(#paint2_linear)"/>
<path d="M66.0408 42.9833L70.2389 68.2523C70.2634 68.4006 70.3459 68.5331 70.4682 68.6206C70.5904 68.7081 70.7425 68.7435 70.8908 68.7189C71.0391 68.6944 71.1716 68.6119 71.2591 68.4896C71.3466 68.3673 71.382 68.2153 71.3574 68.067L67.1594 42.798C67.1348 42.6497 67.0523 42.5172 66.9301 42.4297C66.8078 42.3421 66.6558 42.3068 66.5075 42.3314C66.3591 42.3559 66.2266 42.4384 66.1391 42.5607C66.0516 42.6829 66.0163 42.835 66.0408 42.9833Z" fill="#C24327"/>
<path d="M59.8178 36.2888L50.5424 60.1562C50.4879 60.2965 50.4914 60.4527 50.552 60.5905C50.6127 60.7282 50.7256 60.8362 50.8659 60.8907C51.0062 60.9452 51.1624 60.9418 51.3001 60.8811C51.4378 60.8205 51.5459 60.7076 51.6004 60.5673L60.8791 36.6999C60.9336 36.5591 60.93 36.4025 60.869 36.2645C60.8081 36.1264 60.6947 36.0182 60.554 35.9637C60.4133 35.9092 60.2566 35.9128 60.1186 35.9738C59.9805 36.0348 59.8723 36.1481 59.8178 36.2888Z" fill="#C24327"/>
<path d="M61.9102 29.5506L62.3516 55.1565C62.3543 55.3071 62.4167 55.4504 62.525 55.555C62.6334 55.6595 62.7789 55.7168 62.9294 55.7141C63.08 55.7114 63.2233 55.649 63.3279 55.5407C63.4325 55.4323 63.4897 55.2868 63.487 55.1363L63.0457 29.5303C63.043 29.3798 62.9806 29.2364 62.8722 29.1319C62.7639 29.0273 62.6184 28.9701 62.4678 28.9727C62.3173 28.9754 62.1739 29.0378 62.0694 29.1462C61.9648 29.2545 61.9076 29.4 61.9102 29.5506Z" fill="#C24327"/>
<path d="M62.8105 44.8465C68.5323 44.8465 73.1708 42.7437 73.1708 40.1498C73.1708 37.5559 68.5323 35.4531 62.8105 35.4531C57.0887 35.4531 52.4502 37.5559 52.4502 40.1498C52.4502 42.7437 57.0887 44.8465 62.8105 44.8465Z" fill="#13897E"/>
<path d="M64.5957 30.0219V1.78804C64.5971 1.4733 64.6811 1.16445 64.8394 0.892439C64.9978 0.620424 65.2248 0.394796 65.4978 0.238166C65.7708 0.081536 66.0801 -0.000594555 66.3949 3.24014e-06C66.7096 0.000601035 67.0187 0.0839073 67.2911 0.241573L103.052 21.2991C103.321 21.4578 103.543 21.684 103.698 21.9552C103.853 22.2264 103.935 22.5333 103.934 22.8455V51.45C103.934 51.7677 103.85 52.0797 103.69 52.3541C103.53 52.6285 103.3 52.8555 103.024 53.0121C102.747 53.1686 102.434 53.249 102.117 53.2451C101.799 53.2412 101.488 53.1531 101.216 52.9898L65.4683 31.5583C65.2028 31.3991 64.9829 31.174 64.83 30.9049C64.6771 30.6357 64.5964 30.3315 64.5957 30.0219Z" fill="#B095FE"/>
<path d="M66.2262 19.6755C66.1992 19.7328 66.0577 20.2651 65.9465 20.1539C65.8353 20.0427 65.2457 20.2954 65.2457 20.2954L63.6016 18.2031L63.8206 17.5293H65.303" fill="#68E1FD"/>
<path d="M58.292 10.6594L58.137 10.117L56.4053 9.17361V6.22556C56.4053 6.16828 58.0899 7.20936 58.0899 7.20936L58.1674 7.04427C58.2615 6.59337 58.4337 6.16237 58.6761 5.77072L57.4329 3.5302L58.9659 2.34424L60.1215 4.66225C60.5426 4.56527 60.9812 4.57337 61.3984 4.68583V2.46553L63.612 3.69192V6.02004C64.0466 6.43216 64.4424 6.88328 64.7946 7.36772L66.1423 6.51531L67.6483 9.3825L66.4522 10.3326L66.5533 10.8144C66.7081 11.323 66.8318 11.8406 66.9239 12.3642L68.6995 13.3413V16.2759L67.0149 15.2651C66.9419 15.8002 66.7559 16.3136 66.4691 16.7712L67.7359 18.9207L66.1288 20.137L65.0001 17.9234H63.5985V20.137L61.486 18.85V16.6903C61.0015 16.2149 60.5741 15.6846 60.2125 15.1101L58.9659 15.9962L57.4329 13.0684L58.7064 12.1284L58.5818 11.6904C58.4537 11.3299 58.356 10.993 58.292 10.6594Z" fill="#68E1FD"/>
<path d="M54.2656 7.45163L56.2231 6.26904L56.7117 6.99005L55.9536 8.57694" fill="#68E1FD"/>
<path d="M56.8262 17.2086L58.2749 16.6055V15.7295" fill="#68E1FD"/>
<path d="M61.4821 21.3803L63.6081 20.1539L63.069 18.5435L61.1553 19.1061L61.4821 21.3803Z" fill="#68E1FD"/>
<path d="M58.9819 2.34424L56.8525 3.57063L58.0217 5.89538L59.2986 5.91896L59.5917 3.57063L58.9819 2.34424Z" fill="#68E1FD"/>
<path d="M60.8912 14.0335C61.3848 13.8396 61.5146 12.9944 61.1812 12.1458C60.8478 11.2972 60.1773 10.7665 59.6838 10.9604C59.1902 11.1543 59.0603 11.9995 59.3938 12.8481C59.7272 13.6967 60.3976 14.2274 60.8912 14.0335Z" fill="#68E1FD"/>
<path d="M63.6384 3.69172L61.5124 4.91811L59.2988 3.69172L61.4248 2.46533L63.6384 3.69172Z" fill="#68E1FD"/>
<path d="M64.0293 7.75471L66.1553 6.52832L67.6613 9.39551L65.5353 10.6219L64.0293 7.75471Z" fill="#68E1FD"/>
<path d="M67.7458 18.9375L65.6198 20.1673L64.0127 21.3802L66.142 20.1538L67.7458 18.9375Z" fill="#68E1FD"/>
<path opacity="0.44" d="M66.2262 19.6755C66.1992 19.7328 66.0577 20.2651 65.9465 20.1539C65.8353 20.0427 65.2457 20.2954 65.2457 20.2954L63.6016 18.2031L63.8206 17.5293H65.303" fill="#053855"/>
<path d="M58.292 10.6594L58.137 10.117L56.4053 9.17361V6.22556C56.4053 6.16828 58.0899 7.20936 58.0899 7.20936L58.1674 7.04427C58.2615 6.59337 58.4337 6.16237 58.6761 5.77072L57.4329 3.5302L58.9659 2.34424L60.1215 4.66225C60.5426 4.56527 60.9812 4.57337 61.3984 4.68583V2.46553L63.612 3.69192V6.02004C64.0466 6.43216 64.4424 6.88328 64.7946 7.36772L66.1423 6.51531L67.6483 9.3825L66.4522 10.3326L66.5533 10.8144C66.7081 11.323 66.8318 11.8406 66.9239 12.3642L68.6995 13.3413V16.2759L67.0149 15.2651C66.9419 15.8002 66.7559 16.3136 66.4691 16.7712L67.7359 18.9207L66.1288 20.137L65.0001 17.9234H63.5985V20.137L61.486 18.85V16.6903C61.0015 16.2149 60.5741 15.6846 60.2125 15.1101L58.9659 15.9962L57.4329 13.0684L58.7064 12.1284L58.5818 11.6904C58.4537 11.3299 58.356 10.993 58.292 10.6594Z" fill="#68E1FD"/>
<path opacity="0.44" d="M54.2656 7.45163L56.2231 6.26904L56.7117 6.99005L55.9536 8.57694" fill="#053855"/>
<path d="M56.8262 17.2086L58.2749 16.6055V15.7295" fill="#68E1FD"/>
<path d="M61.4821 21.3803L63.6081 20.1539L63.069 18.5435L61.1553 19.1061L61.4821 21.3803Z" fill="#68E1FD"/>
<path d="M58.9819 2.34424L56.8525 3.57063L58.0217 5.89538L59.2986 5.91896L59.5917 3.57063L58.9819 2.34424Z" fill="#68E1FD"/>
<path d="M60.8912 14.0335C61.3848 13.8396 61.5146 12.9944 61.1812 12.1458C60.8478 11.2972 60.1773 10.7665 59.6838 10.9604C59.1902 11.1543 59.0603 11.9995 59.3938 12.8481C59.7272 13.6967 60.3976 14.2274 60.8912 14.0335Z" fill="#68E1FD"/>
<path d="M64.0293 7.75471L66.1553 6.52832L67.6613 9.39551L65.5353 10.6219L64.0293 7.75471Z" fill="#68E1FD"/>
<path d="M67.7458 18.9375L65.6198 20.1673L64.0127 21.3802L66.142 20.1538L67.7458 18.9375Z" fill="#68E1FD"/>
<path opacity="0.44" d="M58.292 10.6594L58.137 10.117L56.4053 9.17361V6.22556C56.4053 6.16828 58.0899 7.20936 58.0899 7.20936L58.1674 7.04427C58.2615 6.59337 58.4337 6.16237 58.6761 5.77072L57.4329 3.5302L58.9659 2.34424L60.1215 4.66225C60.5426 4.56527 60.9812 4.57337 61.3984 4.68583V2.46553L63.612 3.69192V6.02004C64.0466 6.43216 64.4424 6.88328 64.7946 7.36772L66.1423 6.51531L67.6483 9.3825L66.4522 10.3326L66.5533 10.8144C66.7081 11.323 66.8318 11.8406 66.9239 12.3642L68.6995 13.3413V16.2759L67.0149 15.2651C66.9419 15.8002 66.7559 16.3136 66.4691 16.7712L67.7359 18.9207L66.1288 20.137L65.0001 17.9234H63.5985V20.137L61.486 18.85V16.6903C61.0015 16.2149 60.5741 15.6846 60.2125 15.1101L58.9659 15.9962L57.4329 13.0684L58.7064 12.1284L58.5818 11.6904C58.4537 11.3299 58.356 10.993 58.292 10.6594Z" fill="#053855"/>
<path opacity="0.1" d="M56.8262 17.2086L58.2749 16.6055V15.7295" fill="#053855"/>
<path opacity="0.1" d="M61.4821 21.3803L63.6081 20.1539L63.069 18.5435L61.1553 19.1061L61.4821 21.3803Z" fill="#053855"/>
<path opacity="0.1" d="M60.8912 14.0335C61.3848 13.8396 61.5146 12.9944 61.1812 12.1458C60.8478 11.2972 60.1773 10.7665 59.6838 10.9604C59.1902 11.1543 59.0603 11.9995 59.3938 12.8481C59.7272 13.6967 60.3976 14.2274 60.8912 14.0335Z" fill="#053855"/>
<path opacity="0.1" d="M64.0293 7.75471L66.1553 6.52832L67.6613 9.39551L65.5353 10.6219L64.0293 7.75471Z" fill="#053855"/>
<path opacity="0.1" d="M67.7458 18.9375L65.6198 20.1673L64.0127 21.3802L66.142 20.1538L67.7458 18.9375Z" fill="#053855"/>
<path opacity="0.1" d="M56.8262 17.2086L58.2749 16.6055V15.7295" fill="#053855"/>
<path opacity="0.44" d="M61.4821 21.3803L63.6081 20.1539L63.069 18.5435L61.1553 19.1061L61.4821 21.3803Z" fill="#053855"/>
<path d="M56.1493 11.8855L55.9943 11.3431L54.249 10.3997V7.45163C54.249 7.39435 55.9336 8.43544 55.9336 8.43544L56.0111 8.27035C56.1052 7.81944 56.2774 7.38845 56.5199 6.99679L55.3002 4.74616L56.8467 3.57031L58.0124 5.88832C58.4336 5.79134 58.8721 5.79944 59.2893 5.91191V3.6916L61.5029 4.91799V7.236C61.9375 7.64813 62.3333 8.09924 62.6855 8.58368L64.0332 7.73128L65.5392 10.5985L64.3566 11.5722L64.4577 12.054C64.6125 12.5626 64.7362 13.0802 64.8283 13.6038L66.6039 14.5809V17.5154L64.9193 16.5047C64.8421 17.0434 64.6502 17.5592 64.3566 18.0174L65.6234 20.167L64.0197 21.3866L62.891 19.1731H61.4894V21.3866L59.3769 20.0996V17.9164C58.8898 17.4403 58.4602 16.9088 58.0966 16.3328L56.8265 17.2021L55.2935 14.2776L56.567 13.3376L56.4424 12.8996C56.3278 12.556 56.2301 12.2191 56.1493 11.8855Z" fill="#68E1FD"/>
<path opacity="0.44" d="M60.8912 14.0335C61.3848 13.8396 61.5146 12.9944 61.1812 12.1458C60.8478 11.2972 60.1773 10.7665 59.6838 10.9604C59.1902 11.1543 59.0603 11.9995 59.3938 12.8481C59.7272 13.6967 60.3976 14.2274 60.8912 14.0335Z" fill="#053855"/>
<path opacity="0.44" d="M67.7458 18.9375L65.6198 20.1673L64.0127 21.3802L66.142 20.1538L67.7458 18.9375Z" fill="#053855"/>
<path d="M63.6384 3.69172L61.5124 4.91811L59.2988 3.69172L61.4248 2.46533L63.6384 3.69172Z" fill="#68E1FD"/>
<path opacity="0.44" d="M63.6384 3.68498L61.5158 4.91811L59.2988 3.69846L61.4214 2.46533L63.6384 3.68498Z" fill="#053855"/>
<path d="M68.7153 13.3545L66.5859 14.5809V17.5188L68.7153 16.2924V13.3545Z" fill="#68E1FD"/>
<path opacity="0.44" d="M68.7153 13.3545L66.5859 14.5809V17.5188L68.7153 16.2924V13.3545Z" fill="#053855"/>
<path d="M86.5449 28.5227V6.56226C86.5451 6.3476 86.602 6.1368 86.7097 5.95115C86.8175 5.7655 86.9723 5.61157 87.1586 5.50493C87.3449 5.39828 87.5561 5.34269 87.7707 5.34377C87.9854 5.34484 88.1959 5.40256 88.3811 5.51107L116.292 21.9595C116.736 22.2207 117.104 22.5935 117.36 23.0408C117.616 23.4882 117.751 23.9946 117.75 24.51V46.676C117.75 46.8916 117.693 47.1032 117.584 47.2894C117.475 47.4755 117.319 47.6295 117.131 47.7356C116.944 47.8418 116.731 47.8963 116.516 47.8936C116.3 47.891 116.089 47.8312 115.904 47.7204L87.9196 30.9485C87.5005 30.6973 87.1537 30.3418 86.9128 29.9167C86.6719 29.4916 86.5452 29.0113 86.5449 28.5227Z" fill="#68E1FD"/>
<path d="M62.8105 43.6331C68.5323 43.6331 73.1708 41.5303 73.1708 38.9364C73.1708 36.3425 68.5323 34.2397 62.8105 34.2397C57.0887 34.2397 52.4502 36.3425 52.4502 38.9364C52.4502 41.5303 57.0887 43.6331 62.8105 43.6331Z" fill="#16A79E"/>
<path d="M53.5684 37.3599V37.6665L53.7233 37.8551" fill="#ADCEE1"/>
<path d="M59.6938 33.6504L53.7438 37.3363C53.6886 37.3687 53.6428 37.415 53.611 37.4705C53.5792 37.5261 53.5625 37.589 53.5625 37.653C53.5625 37.717 53.5792 37.7799 53.611 37.8355C53.6428 37.891 53.6886 37.9373 53.7438 37.9697L62.7733 43.0774C62.8988 43.1499 63.0411 43.188 63.186 43.188C63.3309 43.188 63.4732 43.1499 63.5987 43.0774L69.5386 39.5802C69.9699 39.2433 69.9362 38.5694 69.5386 38.5324L60.5597 33.6235C60.4266 33.5487 60.2756 33.5118 60.123 33.5165C59.9704 33.5213 59.8221 33.5676 59.6938 33.6504Z" fill="#88D3D8"/>
<path d="M59.6938 33.3947L53.7438 37.084C53.6886 37.1164 53.6428 37.1627 53.611 37.2183C53.5792 37.2738 53.5625 37.3367 53.5625 37.4007C53.5625 37.4647 53.5792 37.5276 53.611 37.5832C53.6428 37.6387 53.6886 37.685 53.7438 37.7174L62.7733 42.8251C62.8988 42.8976 63.0411 42.9357 63.186 42.9357C63.3309 42.9357 63.4732 42.8976 63.5987 42.8251L69.5218 39.3414C69.5918 39.3013 69.65 39.2434 69.6904 39.1736C69.7309 39.1038 69.7522 39.0245 69.7522 38.9438C69.7522 38.8631 69.7309 38.7839 69.6904 38.7141C69.65 38.6443 69.5918 38.5864 69.5218 38.5462L60.5563 33.3813C60.4248 33.3052 60.2751 33.2663 60.1232 33.2687C59.9713 33.271 59.8229 33.3146 59.6938 33.3947Z" fill="white"/>
<path d="M59.9389 32.8922C59.9389 32.8922 62.4085 24.9173 62.395 24.9173C62.3815 24.9173 62.4725 24.5635 62.9139 24.7623L72.3982 30.345C72.3982 30.345 72.8564 30.5304 72.7688 30.9582C72.6812 31.3861 70.3531 38.7647 70.3531 38.7647C70.3046 38.8348 70.235 38.8876 70.1544 38.9155C70.0738 38.9434 69.9864 38.9448 69.905 38.9197C69.6152 38.8287 60.1612 33.3369 60.1612 33.3369C60.0747 33.3048 60.0035 33.241 59.9622 33.1584C59.921 33.0759 59.9126 32.9807 59.9389 32.8922Z" fill="#053855"/>
<path d="M62.5506 25.4937L72.264 31.1573L70.2492 37.9193L60.4111 32.4275L62.5506 25.4937Z" fill="#68E1FD"/>
<path d="M59.3292 34.2402L57.1527 35.5879C57.1136 35.6112 57.0812 35.6442 57.0587 35.6838C57.0362 35.7234 57.0244 35.7681 57.0244 35.8136C57.0244 35.8591 57.0362 35.9038 57.0587 35.9434C57.0812 35.983 57.1136 36.016 57.1527 36.0393L64.9625 40.4901C65.0792 40.5575 65.2117 40.593 65.3465 40.593C65.4814 40.593 65.6139 40.5575 65.7306 40.4901C66.2326 40.1969 67.0985 39.6713 67.6275 39.3445C67.6713 39.3134 67.707 39.2722 67.7317 39.2244C67.7563 39.1767 67.7692 39.1237 67.7692 39.0699C67.7692 39.0162 67.7563 38.9632 67.7317 38.9154C67.707 38.8677 67.6713 38.8265 67.6275 38.7953L59.7672 34.2267C59.6998 34.1889 59.6235 34.1702 59.5463 34.1726C59.4691 34.1749 59.394 34.1983 59.3292 34.2402Z" fill="#68E1FD"/>
<path d="M59.4476 37.9193L62.1767 39.4523C62.2179 39.4763 62.2521 39.5107 62.2759 39.5521C62.2997 39.5935 62.3123 39.6404 62.3123 39.6881C62.3123 39.7358 62.2997 39.7827 62.2759 39.8241C62.2521 39.8655 62.2179 39.8999 62.1767 39.9239L60.5729 40.864C60.5176 40.8959 60.4549 40.9127 60.391 40.9127C60.3271 40.9127 60.2644 40.8959 60.209 40.864L57.416 39.2737C57.381 39.2536 57.3519 39.2247 57.3317 39.1898C57.3114 39.1549 57.3008 39.1153 57.3008 39.0749C57.3008 39.0346 57.3114 38.9949 57.3317 38.96C57.3519 38.9251 57.381 38.8962 57.416 38.8761L59.1006 37.9159C59.1541 37.8875 59.2139 37.873 59.2745 37.8736C59.3351 37.8741 59.3946 37.8899 59.4476 37.9193Z" fill="#68E1FD"/>
<path opacity="0.1" d="M59.3292 34.2402L57.1527 35.5879C57.1136 35.6112 57.0812 35.6442 57.0587 35.6838C57.0362 35.7234 57.0244 35.7681 57.0244 35.8136C57.0244 35.8591 57.0362 35.9038 57.0587 35.9434C57.0812 35.983 57.1136 36.016 57.1527 36.0393L64.9625 40.4901C65.0792 40.5575 65.2117 40.593 65.3465 40.593C65.4814 40.593 65.6139 40.5575 65.7306 40.4901C66.2326 40.1969 67.0985 39.6713 67.6275 39.3445C67.6713 39.3134 67.707 39.2722 67.7317 39.2244C67.7563 39.1767 67.7692 39.1237 67.7692 39.0699C67.7692 39.0162 67.7563 38.9632 67.7317 38.9154C67.707 38.8677 67.6713 38.8265 67.6275 38.7953L59.7672 34.2267C59.6998 34.1889 59.6235 34.1702 59.5463 34.1726C59.4691 34.1749 59.394 34.1983 59.3292 34.2402Z" fill="#053855"/>
<path opacity="0.1" d="M59.4476 37.9193L62.1767 39.4523C62.2179 39.4763 62.2521 39.5107 62.2759 39.5521C62.2997 39.5935 62.3123 39.6404 62.3123 39.6881C62.3123 39.7358 62.2997 39.7827 62.2759 39.8241C62.2521 39.8655 62.2179 39.8999 62.1767 39.9239L60.5729 40.864C60.5176 40.8959 60.4549 40.9127 60.391 40.9127C60.3271 40.9127 60.2644 40.8959 60.209 40.864L57.416 39.2737C57.381 39.2536 57.3519 39.2247 57.3317 39.1898C57.3114 39.1549 57.3008 39.1153 57.3008 39.0749C57.3008 39.0346 57.3114 38.9949 57.3317 38.96C57.3519 38.9251 57.381 38.8962 57.416 38.8761L59.1006 37.9159C59.1541 37.8875 59.2139 37.873 59.2745 37.8736C59.3351 37.8741 59.3946 37.8899 59.4476 37.9193Z" fill="#053855"/>
<path d="M46.4491 41.9087C46.4491 41.9087 47.5037 43.445 47.6755 43.1283C47.8474 42.8116 48.2415 40.433 48.2415 40.433L45.9033 39.5469" fill="#EEAD97"/>
<path d="M55.974 72.2617C55.9791 72.3475 56.0169 72.4281 56.0795 72.487C56.1422 72.5459 56.2249 72.5786 56.3109 72.5784C56.6478 72.6054 59.6498 71.3049 60.3876 73.067C60.4308 73.1758 60.4346 73.2964 60.3983 73.4078C60.362 73.5191 60.2879 73.6143 60.1888 73.6768C58.6888 74.6416 56.992 75.2586 55.2226 75.4827C54.6177 75.607 53.9887 75.5277 53.4336 75.2569L53.5751 71.9248L55.974 72.2617Z" fill="#C24327"/>
<path d="M48.6762 70.7322C48.6762 70.7322 51.4996 68.8892 51.9949 70.0583C52.3756 70.9613 48.9997 73.5892 47.7564 73.7914C46.5132 73.9935 46.3447 72.693 46.3447 72.693L46.3852 70.5536" fill="#C24327"/>
<path d="M54.2043 43.9129C54.2043 43.9129 57.0344 50.0078 56.9839 72.0188C56.9839 72.0188 56.4077 73.5383 52.3209 72.4938L50.6632 52.8346L49.9456 70.971C49.9456 70.971 48.0252 72.3961 45.04 70.6846C45.04 70.6846 45.7139 46.4263 47.3412 42.0464" fill="#68E1FD"/>
<path d="M47.2064 42.8014C46.4989 39.8062 45.04 32.0638 46.6033 30.8845C47.951 29.8738 51.1383 30.9721 53.5607 32.6096C55.5486 33.9572 54.7366 41.7704 54.3929 44.486C51.7582 44.8128 49.3021 44.3546 47.2064 42.8014Z" fill="#C24327"/>
<path d="M53.1507 26.5112C53.1507 26.5112 53.2181 30.4903 52.1097 30.588C51.6757 30.6606 51.2298 30.5913 50.8383 30.3904C50.4468 30.1895 50.1306 29.8677 49.9365 29.4728" fill="#EEAD97"/>
<path d="M51.5531 30.0893V31.9828C51.5531 31.9828 50.5424 32.3736 49.1172 31.4269V29.8838" fill="#EEAD97"/>
<path d="M52.9481 27.246C52.9481 27.246 54.2957 25.841 53.4164 24.645C52.537 23.4489 51.5532 24.0823 51.5532 24.0823C51.5532 24.0823 51.3443 23.5634 50.3032 23.459C49.2622 23.3546 48.8477 24.3956 48.43 24.6551C48.0122 24.9145 47.3383 25.6658 47.2844 26.3127C47.2305 26.9596 48.1705 30.4838 49.2622 30.7432C50.3538 31.0026 51.752 31.4103 52.9481 27.246Z" fill="#C24327"/>
<path d="M47.2742 30.5982C47.2742 30.5982 44.9158 30.5577 42.6449 33.5698C40.3741 36.5819 46.2736 42.633 46.3309 42.3297C46.3881 42.0265 47.2742 39.3345 47.2742 39.3345C47.2742 39.3345 44.6934 37.1176 45.1314 36.4707C45.5694 35.8238 47.2742 35.5105 47.2742 35.5105" fill="#C24327"/>
<path d="M62.524 36.7806C62.524 36.7806 64.7308 36.4437 65.0139 36.0461C65.2969 35.6486 65.1486 34.6142 64.9869 34.3312C64.8252 34.0482 63.9593 34.5266 63.9593 34.5266C63.9593 34.5266 63.9593 34.247 63.5819 34.2537C63.2046 34.2605 62.5476 34.904 62.5476 34.904L60.2363 36.2517L60.4183 38.4147L62.524 36.7806Z" fill="#EEAD97"/>
<path d="M54.0128 33.0981C54.0128 33.0981 56.4858 36.9963 56.5296 37.1142C56.5734 37.2322 60.2054 35.5139 60.2054 35.5139C60.2054 35.5139 61.1959 35.7767 61.9068 37.66C61.9068 37.66 58.8105 41.8749 54.3396 41.0292C52.2069 40.6182 51.1523 36.9559 51.1523 36.9559" fill="#C24327"/>
<path d="M24.8394 32.3061C24.8072 32.167 24.7464 32.0362 24.6608 31.922C24.5012 31.7295 24.3111 31.5645 24.0982 31.4334C21.2445 29.5029 17.2991 28.9705 14.2837 30.8573C13.6099 31.2886 12.5722 32.2656 12.9798 33.1854C13.2157 33.7211 13.9333 34.0311 14.4286 34.2501C16.0458 34.961 17.8517 35.3013 19.5868 35.5978C20.227 35.7056 20.8705 35.8134 21.5174 35.874C21.9638 35.9176 22.414 35.8479 22.8263 35.6712C23.2385 35.4945 23.5995 35.2166 23.8758 34.8633C24.3206 34.2973 25.0416 33.1416 24.8394 32.3061Z" fill="#754C24"/>
<path d="M12.8984 32.7679C12.8984 32.7679 15.4995 35.1263 19.994 34.7894C24.4885 34.4525 24.8389 32.3164 24.8389 32.3164C24.8389 32.3164 23.6765 47.2116 23.0599 47.4778C22.4434 47.744 20.149 48.8255 19.0439 48.9232C17.9388 49.0209 14.4314 47.6025 14.3438 47.215C14.2562 46.8276 12.8984 32.7679 12.8984 32.7679Z" fill="#68E1FD"/>
<path d="M13.7203 11.0597C13.5822 10.7801 13.1577 11.026 13.2958 11.3057C16.3719 17.505 16.9716 24.486 17.5242 31.2648C17.5478 31.5748 18.0397 31.5781 18.0161 31.2648C17.4534 24.395 16.8503 17.3433 13.7203 11.0597Z" fill="#007F68"/>
<path d="M13.327 11.1177C13.327 11.1177 14.1861 14.3353 13.3 15.9424C12.4139 17.5495 11.6794 17.8729 12.7407 19.881C13.802 21.889 16.6322 22.1484 16.8242 23.6814C17.0163 25.2144 15.4631 13.8501 13.327 11.1177Z" fill="#007F68"/>
<path d="M23.1603 16.9259C20.7981 21.8846 19.4706 27.2725 19.2588 32.7611C19.2588 33.1418 19.8417 33.1418 19.8585 32.7611C20.065 27.3771 21.3649 22.0914 23.6792 17.2257C23.8409 16.8821 23.3254 16.5822 23.1603 16.9259Z" fill="#007F68"/>
<path d="M23.5889 18.496C23.5889 18.1591 23.5181 17.5391 23.5518 16.9697C23.4395 17.0438 23.3272 17.1157 23.2149 17.1854C22.0458 20.0256 20.3039 26.6966 19.7783 28.7417C20.4892 27.2121 23.4002 27.0032 24.2526 24.8031C24.6304 23.8762 24.6484 22.8417 24.3032 21.9022C23.8808 20.8134 23.6396 19.6628 23.5889 18.496Z" fill="#007F68"/>
<path d="M114.117 31.5654C114.747 35.0627 113.18 38.1219 110.616 38.3982C108.052 38.6745 105.461 36.06 104.828 32.5627C104.194 29.0655 105.765 26.0063 108.328 25.73C110.892 25.4537 113.487 28.0682 114.117 31.5654Z" fill="#F4F4F4"/>
<path d="M111.064 34.4257C111.062 34.7261 110.986 35.0214 110.841 35.2849C110.778 35.398 110.692 35.4973 110.59 35.5771C110.487 35.657 110.37 35.7156 110.245 35.7498C109.985 35.8023 109.716 35.7825 109.467 35.6925L109.436 36.6191C109.436 36.8886 109.261 36.956 109.099 36.8718C109.019 36.8236 108.954 36.7539 108.911 36.6706C108.868 36.5872 108.849 36.4935 108.857 36.4001L108.887 35.4432C108.474 35.2118 108.126 34.8791 107.876 34.4763C107.587 34.0131 107.431 33.4792 107.425 32.9332L108.436 33.324C108.445 33.5582 108.503 33.7878 108.607 33.9978C108.677 34.1412 108.775 34.2694 108.894 34.3752L108.951 32.5491C108.678 32.3401 108.419 32.1151 108.173 31.8752C107.962 31.6459 107.793 31.3814 107.674 31.0936C107.532 30.7411 107.47 30.3613 107.492 29.9817C107.488 29.6701 107.574 29.3638 107.738 29.099C107.882 28.8866 108.103 28.739 108.355 28.688C108.598 28.6502 108.846 28.671 109.079 28.7486L109.12 27.5627C109.12 27.2931 109.298 27.2257 109.456 27.31C109.537 27.3584 109.602 27.4281 109.645 27.5114C109.687 27.5947 109.706 27.6883 109.699 27.7816L109.662 28.9878C110.051 29.2027 110.377 29.515 110.609 29.8941C110.878 30.3342 111.027 30.8373 111.04 31.353L110.002 30.9554C109.987 30.7477 109.931 30.545 109.837 30.3591C109.782 30.2532 109.71 30.1566 109.625 30.0727L109.568 31.8449C109.842 32.0656 110.102 32.3018 110.349 32.5524C110.562 32.7827 110.733 33.0484 110.855 33.3375C111.002 33.6808 111.074 34.0521 111.064 34.4257ZM109.83 34.5874C109.898 34.5179 109.951 34.4349 109.985 34.3439C110.02 34.2528 110.035 34.1556 110.029 34.0585C110.038 33.8397 109.983 33.6231 109.871 33.4352C109.781 33.294 109.675 33.164 109.554 33.0477L109.5 34.6649C109.559 34.677 109.619 34.6764 109.677 34.663C109.735 34.6496 109.79 34.6238 109.837 34.5874H109.83ZM108.715 30.9217C108.811 31.0704 108.924 31.2072 109.052 31.3294L109.103 29.7661C109.046 29.7524 108.986 29.7504 108.928 29.7602C108.87 29.7701 108.815 29.7916 108.766 29.8234C108.7 29.8855 108.649 29.9617 108.616 30.0462C108.583 30.1308 108.57 30.2216 108.577 30.3119C108.567 30.5252 108.619 30.7368 108.725 30.9217" fill="#8B54BA"/>
<path d="M91.7217 12.9635V28.5123C91.7217 29.8128 93.7432 29.8162 93.7432 28.5123V12.9635C93.7432 11.663 91.7217 11.6596 91.7217 12.9635Z" fill="white"/>
<path d="M94.874 17.8492V30.4231C94.874 31.7236 96.8955 31.7269 96.8955 30.4231V17.8492C96.8955 16.5487 94.874 16.5453 94.874 17.8492Z" fill="white"/>
<path d="M98.1426 21.4102V32.505C98.1426 33.8055 100.164 33.8089 100.164 32.505V21.4102C100.164 20.1097 98.1426 20.1064 98.1426 21.4102Z" fill="white"/>
<path d="M91.7217 15.6221V28.5261C91.7217 29.8266 93.7432 29.83 93.7432 28.5261V17.0068C93.0626 16.5654 92.382 16.1072 91.7217 15.6221Z" fill="#A2C609"/>
<path d="M94.874 19.894V30.4228C94.874 31.7233 96.8955 31.7267 96.8955 30.4228V21.4203C96.1891 20.9562 95.5138 20.4464 94.874 19.894Z" fill="#FF9F9F"/>
<path d="M98.1426 25.0928V32.505C98.1426 33.8055 100.164 33.8089 100.164 32.505V26.3091C99.514 25.8654 98.839 25.4593 98.1426 25.0928Z" fill="#8B54BA"/>
<path d="M78.0472 31.9826C80.5109 31.4468 81.8 27.7564 80.9265 23.7399C80.053 19.7233 77.3476 16.9017 74.8838 17.4375C72.4201 17.9733 71.131 21.6637 72.0045 25.6803C72.8781 29.6968 75.5835 32.5184 78.0472 31.9826Z" fill="white"/>
<path d="M76.4649 25.1907L73.1934 18.4826C73.1934 18.4826 75.4945 15.4773 78.8267 19.2474L76.4649 25.1907Z" fill="#8B54BA"/>
<path d="M76.4648 25.1904L81.1817 26.747C81.1817 26.747 81.7073 22.5692 78.8233 19.2505L76.4648 25.1904Z" fill="#FF9F9F"/>
<path d="M81.4688 38.637L84.1911 36.939L86.4114 39.6882L90.3095 37.8486L94.0999 42.3533L99.1537 41.2212V48.9266L81.4688 38.637Z" fill="#8B54BA"/>
<path d="M69.7806 6.43418L79.0594 11.899C79.1452 11.9392 79.243 11.9459 79.3336 11.9178C79.4242 11.8898 79.501 11.8289 79.549 11.7471C79.5971 11.6654 79.6129 11.5686 79.5934 11.4758C79.5738 11.383 79.5204 11.3009 79.4434 11.2454L70.1613 5.78055C70.0754 5.74034 69.9776 5.73363 69.8871 5.76172C69.7965 5.78982 69.7197 5.85071 69.6716 5.93246C69.6236 6.01422 69.6078 6.11096 69.6273 6.20376C69.6468 6.29655 69.7003 6.37872 69.7772 6.43418H69.7806Z" fill="white"/>
<path d="M69.5721 8.34092L78.8442 13.8058C78.9301 13.846 79.0278 13.8527 79.1184 13.8246C79.209 13.7965 79.2858 13.7356 79.3339 13.6538C79.3819 13.5721 79.3977 13.4753 79.3782 13.3826C79.3586 13.2898 79.3052 13.2076 79.2283 13.1521L69.9562 7.68729C69.8703 7.64708 69.7725 7.64037 69.682 7.66846C69.5914 7.69656 69.5146 7.75744 69.4665 7.8392C69.4185 7.92096 69.4027 8.0177 69.4222 8.1105C69.4418 8.20329 69.4952 8.28546 69.5721 8.34092Z" fill="white"/>
<path d="M69.5718 10.2684L78.8438 15.74C78.9297 15.7802 79.0275 15.7869 79.118 15.7588C79.2086 15.7307 79.2854 15.6698 79.3335 15.5881C79.3815 15.5063 79.3973 15.4096 79.3778 15.3168C79.3583 15.224 79.3048 15.1418 79.2279 15.0864L69.9558 9.62152C69.8716 9.58777 69.778 9.58525 69.692 9.61442C69.606 9.64358 69.5333 9.70252 69.4869 9.78058C69.4406 9.85865 69.4237 9.95072 69.4392 10.0402C69.4548 10.1296 69.5018 10.2106 69.5718 10.2684Z" fill="white"/>
<path d="M101.165 33.0778L90.835 26.9964C90.8013 26.9762 90.771 26.9661 90.7373 26.9526V29.2875L100.936 35.2914C101.008 35.3337 101.085 35.3676 101.165 35.3925V33.0778Z" fill="#053855"/>
<defs>
<linearGradient id="paint0_linear" x1="75.0972" y1="67.673" x2="51.8665" y2="50.6686" gradientUnits="userSpaceOnUse">
<stop stop-color="white" stop-opacity="0"/>
<stop offset="0.99" stop-color="#808080"/>
</linearGradient>
<linearGradient id="paint1_linear" x1="52769.6" y1="4608.02" x2="52208.1" y2="3767.39" gradientUnits="userSpaceOnUse">
<stop stop-color="white" stop-opacity="0"/>
<stop offset="0.99" stop-color="#808080"/>
</linearGradient>
<linearGradient id="paint2_linear" x1="49387.1" y1="3493.26" x2="48783.3" y2="2646.35" gradientUnits="userSpaceOnUse">
<stop stop-color="white" stop-opacity="0"/>
<stop offset="0.99" stop-color="#808080"/>
</linearGradient>
</defs>
</svg>
