<svg width="406" height="306" viewBox="0 0 406 306" fill="none" xmlns="http://www.w3.org/2000/svg">
<path d="M198.148 293.912L15.7323 186.099C9.92648 182.841 4.94283 177.482 10.6065 173.98L193.682 68.42C196.433 66.7148 200.604 65.5983 203.396 67.2223L394.835 178.375C400.641 181.745 401.686 191.164 395.85 194.544L222.193 293.74C218.546 295.856 214.41 296.985 210.194 297.015C205.977 297.045 201.825 295.976 198.148 293.912Z" fill="#D9616F"/>
<path style="mix-blend-mode:multiply" opacity="0.63" d="M258.479 166.611L236.616 180.821L277.998 208.054C278.363 208.054 281.845 217.706 279.084 208.054C296.034 198.706 297.1 206.734 309.148 199.294C291.01 186.81 271.674 174.762 258.479 166.611Z" fill="url(#paint0_linear)"/>
<path style="mix-blend-mode:multiply" opacity="0.63" d="M180.883 236.799L160.075 246.32L201.457 273.552C201.822 273.552 205.304 283.205 202.543 273.552C219.493 264.204 220.559 272.232 232.607 264.793C214.459 252.257 194.078 244.949 180.883 236.799Z" fill="url(#paint1_linear)"/>
<path d="M221.676 145.337L203.193 154.238C202.496 154.573 201.903 155.091 201.479 155.737C201.055 156.384 200.815 157.133 200.785 157.905C200.754 158.678 200.935 159.444 201.307 160.121C201.68 160.798 202.23 161.361 202.898 161.749L246.706 187.307C247.652 187.861 248.776 188.028 249.843 187.772C250.91 187.517 251.837 186.859 252.43 185.937L263.078 169.382" fill="#56403D"/>
<path d="M322.232 102.534L174.813 17.5992C173.802 17.0166 172.655 16.7104 171.488 16.7114C170.321 16.7124 169.175 17.0205 168.165 17.6048C167.155 18.189 166.317 19.0289 165.734 20.0399C165.151 21.0509 164.845 22.1975 164.846 23.3644V111.669C164.845 112.64 165.1 113.594 165.585 114.434C166.069 115.275 166.766 115.974 167.607 116.46L324.749 207.201C325.288 207.513 325.899 207.679 326.521 207.682C327.144 207.684 327.757 207.523 328.298 207.215C328.839 206.907 329.29 206.462 329.606 205.926C329.922 205.389 330.091 204.779 330.098 204.156V116.135C330.098 113.377 329.371 110.667 327.99 108.279C326.609 105.892 324.623 103.91 322.232 102.534Z" fill="#449EFD"/>
<path d="M174.833 24.278L317.766 106.493C319.293 107.371 320.562 108.637 321.444 110.163C322.326 111.688 322.79 113.419 322.79 115.181V181.42C322.788 182.054 322.62 182.676 322.303 183.225C321.985 183.773 321.53 184.229 320.981 184.546C320.433 184.863 319.81 185.031 319.177 185.033C318.543 185.035 317.92 184.871 317.37 184.557L171.595 100.921C171.058 100.613 170.609 100.17 170.294 99.6359C169.979 99.102 169.808 98.4954 169.799 97.8756V27.1403C169.808 26.5553 169.969 25.9827 170.267 25.4792C170.565 24.9757 170.989 24.5588 171.498 24.2696C172.006 23.9804 172.581 23.8291 173.167 23.8306C173.752 23.832 174.326 23.9863 174.833 24.278Z" fill="white"/>
<path d="M234.964 149.203C236.648 148.879 237.713 147.054 237.342 145.128C236.971 143.201 235.305 141.902 233.62 142.227C231.936 142.551 230.871 144.376 231.242 146.302C231.613 148.229 233.279 149.528 234.964 149.203Z" fill="#AB643C"/>
<path d="M346.115 159.09L304.002 135.969C303.194 135.524 302.52 134.87 302.05 134.075C301.581 133.281 301.333 132.375 301.333 131.452V54.2916C301.333 53.3864 301.571 52.4972 302.024 51.7133C302.476 50.9293 303.127 50.2783 303.911 49.8257C304.695 49.3731 305.584 49.1348 306.489 49.1348C307.394 49.1347 308.283 49.373 309.067 49.8256L351.18 74.1856C351.964 74.6382 352.615 75.2892 353.067 76.0731C353.52 76.8571 353.758 77.7464 353.758 78.6516V154.645C353.746 155.535 353.503 156.407 353.054 157.175C352.605 157.944 351.964 158.583 351.195 159.031C350.425 159.478 349.553 159.719 348.663 159.73C347.772 159.74 346.895 159.52 346.115 159.09Z" fill="#A2C609"/>
<path d="M343.557 105.346V123.829C343.557 129.198 335.214 129.208 335.214 123.829V105.346C335.214 99.9764 343.557 99.9663 343.557 105.346Z" fill="#56403D"/>
<path d="M332.219 86.3858V116.206C332.219 121.576 323.876 121.586 323.876 116.206V86.3858C323.876 81.0165 332.219 81.0063 332.219 86.3858Z" fill="#FFA197"/>
<path d="M318.781 64.7764V110.553C318.781 115.922 310.438 115.932 310.438 110.553V64.7764C310.438 59.4071 318.781 59.3969 318.781 64.7764Z" fill="#F2F2F2"/>
<path d="M329.164 129.005L339.477 134.426C340.938 135.197 339.639 137.41 338.178 136.638L327.845 131.218C326.404 130.457 327.693 128.234 329.164 129.005Z" fill="#F2F2F2"/>
<path d="M311.077 127.625C320.673 132.768 330.366 137.721 340.157 142.485C341.639 143.205 340.34 145.418 338.858 144.697C329.067 139.961 319.373 135.007 309.778 129.838C308.327 129.087 309.575 126.874 311.077 127.625Z" fill="#F2F2F2"/>
<path d="M122.145 49.3078V66.8166C122.145 67.6383 122.36 68.4457 122.77 69.1581C123.18 69.8705 123.769 70.463 124.479 70.8766L184.78 105.945C185.486 106.366 186.291 106.594 187.113 106.607C187.935 106.62 188.746 106.417 189.465 106.019C190.184 105.62 190.786 105.04 191.211 104.336C191.635 103.632 191.868 102.829 191.885 102.007L192.342 84.7516C192.365 83.9076 192.161 83.0729 191.75 82.3353C191.339 81.5976 190.737 80.9842 190.007 80.5597L129.209 45.2478C128.495 44.832 127.684 44.6118 126.857 44.6094C126.031 44.607 125.219 44.8226 124.502 45.2343C123.786 45.6461 123.191 46.2395 122.777 46.9546C122.363 47.6698 122.145 48.4815 122.145 49.3078Z" fill="#A2C609"/>
<path d="M276.08 116.643L208.075 76.7027C200.97 72.5006 196.544 85.1069 204.461 89.4917C228.547 103.651 252.085 117.221 276.039 131.228L276.08 116.643Z" fill="#449EFD"/>
<path d="M290.97 125.392L276.08 116.643V131.239L286.646 137.43C293.782 141.632 298.106 129.594 290.97 125.392Z" fill="#449EFD"/>
<path d="M284.005 131.473C285.498 131.005 286.173 128.921 285.513 126.819C284.854 124.717 283.109 123.392 281.617 123.861C280.125 124.329 279.45 126.413 280.109 128.514C280.769 130.616 282.513 131.941 284.005 131.473Z" stroke="white" stroke-width="1.015" stroke-miterlimit="10"/>
<path d="M284.951 130.833L288.828 134.913" stroke="white" stroke-width="1.015" stroke-miterlimit="10"/>
<path d="M217.818 109.355C215.882 108.758 214.195 107.542 213.017 105.894C211.155 103.311 210.138 100.216 210.104 97.0329C209.881 89.9279 213.992 84.051 219.239 83.8379C220.629 83.841 221.996 84.1828 223.224 84.8337C224.451 85.4846 225.501 86.4248 226.283 87.5731C228.141 90.1429 229.162 93.2228 229.207 96.3934C229.359 99.5595 228.534 102.696 226.842 105.376C226.133 106.57 225.145 107.572 223.962 108.297C222.778 109.023 221.436 109.448 220.051 109.538C219.302 109.59 218.549 109.528 217.818 109.355ZM220.691 87.025C220.252 86.9023 219.797 86.8475 219.341 86.8626C215.727 86.9742 212.825 91.6229 212.997 97.0126C213.034 99.5633 213.849 102.042 215.332 104.118C215.796 104.935 216.475 105.611 217.295 106.071C218.115 106.532 219.045 106.76 219.985 106.73C220.925 106.701 221.839 106.416 222.629 105.905C223.419 105.395 224.054 104.678 224.467 103.833C225.829 101.648 226.485 99.0965 226.344 96.5254C226.309 93.9745 225.494 91.4954 224.01 89.4204C223.205 88.2577 222.038 87.394 220.691 86.9641V87.025Z" fill="#F15A24"/>
<path d="M234.972 128.569C235.193 128.451 235.381 128.278 235.516 128.066C235.651 127.855 235.729 127.612 235.743 127.361L224.385 106.473L221.817 107.833L232.84 128.782C233.552 128.99 234.316 128.913 234.972 128.569Z" fill="#F15A24"/>
<path d="M167.972 238.798C167.972 238.798 175.696 235.357 177.554 235.225C179.411 235.093 182.527 235.733 179.807 239.143C179.807 239.143 171.687 244.462 170.601 244.624C169.515 244.787 166.927 243.975 166.856 244.259C166.785 244.543 166.551 246.593 166.551 246.593C166.551 246.593 159.751 249.192 159.446 244.634C159.446 244.046 160.461 235.611 160.461 235.611" fill="#34323D"/>
<path d="M184.943 248.552L189.846 250.308C189.994 250.762 190.26 251.168 190.617 251.486C190.973 251.803 191.408 252.02 191.876 252.115C192.048 252.32 192.291 252.453 192.556 252.49C194.586 252.795 196.453 252.145 198.382 251.546C200.727 250.816 209.892 247.304 207.354 253.881C205.68 255.058 203.812 256.073 202.097 257.119C201.133 257.708 200.168 258.286 199.184 258.834C198.659 259.19 198.08 259.458 197.468 259.626C196.149 259.829 192.952 258.834 192.87 259.169C192.789 259.504 192.495 262.031 192.495 262.031C192.495 262.031 184.152 265.219 183.786 259.626C183.715 258.915 184.943 248.552 184.943 248.552Z" fill="#34323D"/>
<path d="M194.189 177.868C193.58 172.955 192.863 168.06 192.037 163.181C191.885 162.298 191.794 158.4 191.022 157.791C191.022 157.791 183.917 152.016 178.213 150.605L177.604 148.138L177.543 148.199C177.543 145.763 174.041 144.139 172.823 146.738C170.536 151.782 168.794 157.056 167.627 162.47C165.978 170.503 164.91 178.644 164.429 186.83C163.82 193.668 162.803 200.464 161.384 207.181C159.354 217.422 159.354 227.42 160.146 237.763C160.146 237.763 161.963 243.315 170.225 240.128L170.489 237.824C170.722 237.741 170.927 237.592 171.078 237.396C171.229 237.2 171.321 236.964 171.341 236.718C172.681 222.233 176.041 200.766 178.974 186.526C179.198 190.159 178.842 200.441 179.066 204.075C179.066 204.562 179.127 205.882 179.167 206.369C180.182 222.67 180.801 238.575 182.07 254.866C188.404 257.454 190.982 256.256 194.91 252.237C196.118 227.349 197.244 202.674 194.189 177.868Z" fill="#449EFD"/>
<path d="M232.252 112.329C232.225 112.163 232.165 112.005 232.075 111.863C231.985 111.721 231.868 111.598 231.729 111.503C231.59 111.409 231.434 111.343 231.269 111.31C231.104 111.278 230.934 111.279 230.77 111.314C230.749 111.133 230.679 110.962 230.568 110.817C230.457 110.672 230.31 110.56 230.141 110.492C229.812 110.377 229.454 110.377 229.126 110.492C229.019 110.151 228.782 109.867 228.466 109.7C228.15 109.559 227.799 109.521 227.46 109.59C227.121 109.659 226.813 109.833 226.578 110.086C226.499 109.932 226.382 109.801 226.238 109.705C226.094 109.609 225.928 109.552 225.756 109.538C224.741 109.467 224.447 110.553 224.487 111.345C224.416 111.842 224.345 112.36 224.294 112.999C223.858 111.071 224.507 113.162 223.838 111.284C223.432 110.157 221.351 111.335 221.462 112.4C221.802 114.619 221.918 116.867 221.808 119.109C221.802 119.252 221.826 119.393 221.879 119.526L220.965 120.693C220.691 121.038 220.417 121.353 220.173 121.708L219.91 121.951C219.789 122.047 219.695 122.172 219.637 122.314C219.578 122.456 219.557 122.611 219.575 122.763C219.502 122.957 219.451 123.158 219.422 123.362C219.415 123.43 219.415 123.498 219.422 123.565C219.158 123.971 218.874 124.377 218.61 124.793C218.514 124.934 218.455 125.097 218.438 125.266C218.422 125.436 218.448 125.607 218.515 125.763C218.581 125.92 218.687 126.057 218.82 126.163C218.954 126.268 219.112 126.338 219.28 126.367L219.057 126.448C217.839 126.874 218.681 128.691 219.899 128.275C222.463 127.384 224.729 125.799 226.446 123.697C226.596 123.663 226.734 123.589 226.846 123.484C226.959 123.379 227.041 123.246 227.086 123.098L227.248 122.631C228.62 120.779 229.695 118.724 230.435 116.541C230.519 116.257 230.631 115.981 230.77 115.719C231.42 114.836 232.364 113.415 232.252 112.329Z" fill="#FCBF81"/>
<path d="M191.916 161.932C192.136 161.374 192.452 160.859 192.85 160.41C193.765 158.789 194.536 157.09 195.154 155.335C198.515 147.734 200.574 139.623 201.244 131.34V131.228C201.379 129.746 201.471 128.264 201.518 126.783C201.707 124.84 201.243 122.89 200.199 121.241C200.047 121.039 199.881 120.849 199.701 120.672C197.905 118.896 195.093 118.368 193.033 116.937C191.51 115.922 189.917 114.653 188.059 114.653C186.523 114.759 185.079 115.423 183.999 116.521C180.558 119.617 179.026 124.245 177.625 128.701L171.535 147.986C171.271 148.818 171.007 149.651 170.764 150.493C176.844 157.212 182.913 161.912 191.916 161.932Z" fill="#8B93FC"/>
<path d="M191.835 112.745L191.216 116.937C191.216 116.937 193.023 120.52 197.803 119.647L198.067 115.465" fill="#FCBF81"/>
<path d="M203.456 102.697C203.852 102.961 204.593 112.694 201.365 117.333C198.138 121.971 191.215 113.648 190.413 108.979C189.612 104.31 195.945 97.6825 203.456 102.697Z" fill="#FCBF81"/>
<path d="M202.929 103.834C202.65 104.617 202.149 105.303 201.488 105.808C200.827 106.312 200.033 106.614 199.204 106.676C196.443 106.676 194.21 106.676 193.946 107.802C193.682 108.929 198.422 109.183 197.529 111.771C196.926 113.513 196.089 115.166 195.042 116.684C194.332 117.861 188.353 111.426 188.242 103.966C188.13 96.5054 194.788 96.8606 195.103 96.8606C195.418 96.8606 196.585 95.3077 199.772 95.6934C202.959 96.0791 203.396 97.5204 203.396 97.5204C204.212 97.3475 205.062 97.4476 205.816 97.8052C206.57 98.1628 207.185 98.7582 207.567 99.4996C209.597 102.616 207.476 106.341 203.822 106.879L202.929 103.834Z" fill="#E55600"/>
<path d="M199.701 120.703C199.701 120.703 204.198 129.493 207.913 129.696C211.628 129.899 219.971 118.693 219.971 118.693C221.622 118.325 223.347 118.49 224.898 119.162C226.45 119.835 227.749 120.982 228.609 122.438C228.609 122.438 217.616 138.607 208.309 143.398C199.001 148.189 189.511 133.817 189.511 133.817" fill="#8B93FC"/>
<path style="mix-blend-mode:multiply" opacity="0.63" d="M75.9214 171.341L57.6514 181.593L81.1994 196.351H81.8084C91.3291 191.103 99.6927 192.606 106.463 188.424C97.7134 183.765 84.0211 177.056 75.9214 171.341Z" fill="url(#paint2_linear)"/>
<path d="M49.1561 153.335C49.1561 153.335 47.0144 178.71 60.5444 183.176C74.0743 187.642 80.8444 174.691 80.3166 152.34" fill="#449EFD"/>
<path d="M65.0193 161.845C73.6253 161.572 80.4737 157.317 80.3156 152.342C80.1575 147.366 73.0528 143.555 64.4468 143.828C55.8408 144.102 48.9924 148.357 49.1505 153.332C49.3086 158.307 56.4133 162.119 65.0193 161.845Z" fill="#F2696A"/>
<path d="M68.0965 132.7C68.0965 132.7 61.702 124.063 64.1685 117.871C64.1685 117.871 66.1985 113.882 69.345 113.151C69.345 113.151 69.345 121.535 72.39 120.368C75.435 119.201 72.0652 111.588 72.0652 111.588C72.0652 111.588 75.2015 107.051 78.7845 107.071C82.3674 107.092 79.0382 114.897 81.4844 113.547C83.9305 112.197 81.393 105.722 84.1741 104.859C86.7227 104.189 89.3134 103.69 91.9287 103.367C91.9287 103.367 94.8214 110.918 92.2027 112.096C89.584 113.273 85.7068 113.77 87.6251 115.394C89.5435 117.018 94.791 114.917 94.791 114.917C94.791 114.917 95.2579 119.201 93.5121 121.119C91.7663 123.037 81.0378 119.262 83.0272 122.895C85.0166 126.529 91.9693 124.458 91.9693 124.458C91.9693 124.458 88.5488 129.696 84.4177 132.172C80.2867 134.649 68.0965 132.7 68.0965 132.7Z" fill="#8CCC00"/>
<path d="M70.2277 154.736C70.2277 154.736 65.6704 150.513 66.4215 146.738C66.4215 146.738 67.1726 144.251 68.8575 143.51C68.8575 143.51 69.7304 148.27 71.3544 147.286C72.9784 146.301 70.2582 142.343 70.2582 142.343C70.2582 142.343 71.5472 139.43 73.5975 139.064C75.6478 138.699 74.6125 143.479 75.8204 142.454C77.0282 141.429 74.9373 138.019 76.4192 137.237C77.7944 136.585 79.2119 136.025 80.6619 135.562C80.6619 135.562 83.1081 139.541 81.748 140.485C80.3879 141.429 78.2361 142.13 79.5048 142.84C80.7736 143.551 83.5648 141.825 83.5648 141.825C83.5648 141.825 84.2855 144.21 83.5039 145.479C82.7224 146.748 76.2264 145.753 77.7387 147.611C79.2511 149.468 82.9863 147.539 82.9863 147.539C82.1676 149.472 80.9897 151.232 79.515 152.726C77.3835 154.533 70.2277 154.736 70.2277 154.736Z" fill="#8CCC00"/>
<path d="M53.6831 145.824C53.6831 145.824 42.9647 146.585 39.0671 141.165C39.0671 141.165 36.8138 137.268 37.8694 134.263C37.8694 134.263 44.9135 138.8 45.5834 135.573C46.2533 132.345 38.0419 131.096 38.0419 131.096C38.0419 131.096 35.9003 126.021 37.8491 122.976C39.7979 119.931 44.5887 126.976 44.7612 124.174C44.9338 121.373 38.113 120.053 38.8742 117.232C39.6768 114.723 40.6466 112.272 41.7771 109.893C41.7771 109.893 49.7043 111.507 49.2881 114.349C48.872 117.191 47.2074 120.733 49.6129 119.982C52.0185 119.231 53.0538 113.679 53.0538 113.679C53.0538 113.679 56.9209 115.587 57.601 118.084C58.281 120.581 49.3287 127.605 53.4598 127.879C57.5908 128.153 59.5498 121.17 59.5498 121.17C59.5498 121.17 62.1279 126.874 61.9959 131.685C61.864 136.496 53.6831 145.824 53.6831 145.824Z" fill="#8CCC00"/>
<path d="M89.7465 106.828C88.6368 107.829 87.5237 108.844 86.4072 109.873C86.4884 108.655 86.5899 107.437 86.7421 106.219C86.8233 105.58 85.8388 105.336 85.7271 105.975C85.5241 107.599 85.382 109.23 85.3008 110.868C82.3776 113.598 79.4747 116.46 76.7951 119.475C76.4897 117.426 76.3607 115.354 76.4094 113.283C76.4094 112.634 75.3944 112.664 75.3944 113.283C75.343 115.663 75.5197 118.042 75.9222 120.388C74.2174 122.372 72.6247 124.449 71.1517 126.61C69.3309 124.257 68.0552 121.529 67.4165 118.622C67.2744 117.983 66.3102 118.287 66.4015 118.927C67.0919 122.021 68.4806 124.917 70.4615 127.392C70.4912 127.427 70.5253 127.457 70.563 127.483C66.3 133.949 63.458 141.135 63.458 149.367C63.458 150.016 64.473 149.986 64.473 149.367C64.473 141.45 67.1932 134.497 71.2837 128.244C75.4135 129.199 79.6711 129.477 83.89 129.067C84.5396 129.006 84.5091 127.991 83.89 128.052C79.8845 128.441 75.8427 128.198 71.913 127.331C73.9695 124.356 76.2425 121.537 78.7135 118.896H78.8048C81.1799 119.028 83.555 119.17 85.9098 119.181C87.4063 119.349 88.921 119.125 90.3048 118.531C90.8833 118.216 90.3048 117.364 89.7668 117.668C88.153 118.541 85.8489 118.186 84.093 118.135C82.5908 118.135 81.048 118.013 79.5762 117.932C83.078 114.237 86.8436 110.827 90.4875 107.488C90.9747 107.082 90.2337 106.392 89.7465 106.828Z" fill="#06577A"/>
<path d="M58.9408 127.564C58.9731 127.429 58.9506 127.288 58.8783 127.17C58.806 127.052 58.6897 126.967 58.5551 126.935C58.4205 126.902 58.2786 126.925 58.1606 126.997C58.0426 127.07 57.9581 127.186 57.9258 127.32C56.9632 131.094 54.8011 134.453 51.7647 136.892C50.5129 133.739 49.3592 130.548 48.3036 127.32C50.6741 124.803 52.5964 121.899 53.9876 118.734C54.2515 118.135 53.3583 117.648 53.0944 118.246C51.8145 121.156 50.0734 123.839 47.9382 126.194C46.6897 122.55 45.6748 118.764 44.7714 114.978C44.6192 114.339 43.6448 114.643 43.7564 115.283C45.0015 120.459 46.4969 125.554 48.2427 130.568C46.3186 130.255 44.4403 129.706 42.6501 128.934C42.0512 128.681 41.564 129.564 42.1629 129.828C44.253 130.744 46.4593 131.369 48.7198 131.685C49.8972 134.994 51.1964 138.252 52.5869 141.47C49.5285 141.477 46.4957 140.912 43.6448 139.805C43.0459 139.572 42.5486 140.465 43.1576 140.698C46.2762 141.922 49.6026 142.528 52.9523 142.485C54.7116 146.497 56.63 150.442 58.7073 154.319C59.022 154.898 59.8746 154.319 59.5701 153.782C56.7921 148.632 54.3015 143.332 52.1098 137.907C55.4737 135.315 57.8775 131.675 58.9408 127.564Z" fill="#06577A"/>
<path d="M77.7282 140.1L75.1095 144.88C74.7522 144.435 74.4395 143.956 74.1757 143.449C73.8712 142.871 73.0186 143.449 73.3129 143.987C73.6528 144.634 74.0648 145.24 74.5411 145.794L71.6991 150.97C71.3472 150.659 71.1141 150.236 71.0393 149.773C70.9378 149.133 69.9228 149.164 70.0243 149.773C70.1453 150.574 70.5661 151.3 71.2017 151.803L67.6188 158.268C67.5542 158.387 67.5392 158.526 67.5773 158.655C67.6154 158.785 67.7033 158.894 67.8218 158.958C67.9402 159.023 68.0795 159.038 68.2089 159C68.3383 158.962 68.4473 158.874 68.512 158.755L73.2317 150.229C74.0695 150.217 74.8995 150.066 75.688 149.783C76.297 149.56 76.0027 148.585 75.3835 148.768C74.878 148.944 74.3533 149.06 73.8204 149.113L78.6011 140.475C78.6059 140.372 78.5792 140.27 78.5245 140.182C78.4697 140.095 78.3896 140.026 78.2947 139.985C78.1998 139.944 78.0947 139.933 77.9935 139.954C77.8923 139.974 77.7997 140.025 77.7282 140.1Z" fill="#06577A"/>
<defs>
<linearGradient id="paint0_linear" x1="291.457" y1="203.314" x2="251.222" y2="178.213" gradientUnits="userSpaceOnUse">
<stop stop-color="white" stop-opacity="0"/>
<stop offset="1" stop-color="#9E005D"/>
</linearGradient>
<linearGradient id="paint1_linear" x1="14715.8" y1="11202.3" x2="14322.6" y2="9654.19" gradientUnits="userSpaceOnUse">
<stop stop-color="white" stop-opacity="0"/>
<stop offset="1" stop-color="#9E005D"/>
</linearGradient>
<linearGradient id="paint2_linear" x1="4198.81" y1="4933.67" x2="4067.07" y2="4360.65" gradientUnits="userSpaceOnUse">
<stop stop-color="white" stop-opacity="0"/>
<stop offset="1" stop-color="#9E005D"/>
</linearGradient>
</defs>
</svg>
