<svg width="306" height="306" viewBox="0 0 306 306" fill="none" xmlns="http://www.w3.org/2000/svg" style="">
<g clip-path="url(#clip0)">
<path d="M172.5 216.5L232 227C246 231.5 249 245.5 249 251.5V299.5H210M172.5 216.5L153 229.5L133.5 216.5M172.5 216.5V194.5M210 299.5H155H96M210 299.5V267.5M133.5 216.5L74 227C60 231.5 57 245.5 57 251.5V299.5H96M133.5 216.5V194.5M96 299.5V267.5M108.5 159.5C82 159.5 86 127 105.5 127H114.5C114.5 165 113 193 151 197H155.5C193.5 193 192 165 192 127H201C220.5 127 224.5 159.5 198 159.5" stroke="#449EFD" stroke-opacity="0.4" stroke-width="12" stroke-linecap="round" stroke-linejoin="round" class="bVlERsTO_0"></path>
<path d="M93 184.5H13.4999C5.49988 184.5 6.49999 185.5 6.49995 168V17C6.49995 6 6.49996 6 17.5 6H288.5C299.5 6 299.5 6 299.5 17V168C299.5 185.5 300.5 184.5 292.5 184.5H211" stroke="#449EFD" stroke-width="13" stroke-linecap="round" stroke-linejoin="round" class="bVlERsTO_1"></path>
<path d="M141.5 72.5C174.5 71 177 74.5 183.5 85C189.833 85.6666 201.5 88.5 201.5 102.5V125.5C190 125 175 123.5 167 111.5C141.584 125.002 115.378 125.001 104.728 125L104.5 125V107.5C104.5 91.1 118 72.5 141.5 72.5Z" stroke="#449EFD" stroke-width="5" stroke-linecap="square" stroke-linejoin="round" class="bVlERsTO_2"></path>
<path d="M32.5 159.5H57" stroke="#449EFD" stroke-opacity="0.4" stroke-width="13" stroke-linecap="round" stroke-linejoin="round" class="bVlERsTO_3"></path>
<path d="M32.5 134H57" stroke="#449EFD" stroke-opacity="0.4" stroke-width="13" stroke-linecap="round" stroke-linejoin="round" class="bVlERsTO_4"></path>
<path d="M32 108H76" stroke="#449EFD" stroke-opacity="0.4" stroke-width="13" stroke-linecap="round" stroke-linejoin="round" class="bVlERsTO_5"></path>
<path d="M64 71L76 32" stroke="#449EFD" stroke-width="13" stroke-linecap="round" stroke-linejoin="round" class="bVlERsTO_6"></path>
<path d="M32 51L45 38" stroke="#449EFD" stroke-width="13" stroke-linecap="round" stroke-linejoin="round" class="bVlERsTO_7"></path>
<path d="M108 51L95 38" stroke="#449EFD" stroke-width="13" stroke-linecap="round" stroke-linejoin="round" class="bVlERsTO_8"></path>
<path d="M45 64L32 51" stroke="#449EFD" stroke-width="13" stroke-linecap="round" stroke-linejoin="round" class="bVlERsTO_9"></path>
<path d="M95 64L108 51" stroke="#449EFD" stroke-width="13" stroke-linecap="round" stroke-linejoin="round" class="bVlERsTO_10"></path>
<path d="M273.5 159.5H249" stroke="#449EFD" stroke-opacity="0.4" stroke-width="13" stroke-linecap="round" stroke-linejoin="round" class="bVlERsTO_11"></path>
<path d="M273.5 134H249" stroke="#449EFD" stroke-opacity="0.4" stroke-width="13" stroke-linecap="round" stroke-linejoin="round" class="bVlERsTO_12"></path>
<path d="M274 108H230" stroke="#449EFD" stroke-opacity="0.4" stroke-width="13" stroke-linecap="round" stroke-linejoin="round" class="bVlERsTO_13"></path>
<path d="M241 54L221 73" stroke="#449EFD" stroke-width="3" stroke-linejoin="round" class="bVlERsTO_14"></path>
<path d="M251.585 65.6357L278.806 65.9659" stroke="#449EFD" stroke-width="2.96055" stroke-linejoin="round" class="bVlERsTO_15"></path>
<path d="M241 27V55" stroke="#449EFD" stroke-width="2" stroke-linejoin="round" class="bVlERsTO_16"></path>
<path d="M233 84.7292L252.273 64.9285" stroke="#449EFD" stroke-width="1.9737" stroke-linejoin="round" class="bVlERsTO_17"></path>
<path d="M222 70.5C214.5 58.5 220 34.5 239.5 29.5" stroke="#449EFD" stroke-width="5" stroke-linecap="round" stroke-linejoin="round" class="bVlERsTO_18"></path>
<path d="M276.378 67.0457C273.422 80.6941 253.013 93.8803 235.781 83.9939" stroke="#449EFD" stroke-width="4.93425" stroke-linecap="round" stroke-linejoin="round" class="bVlERsTO_19"></path>
<path d="M222.88 65C219.986 61.6567 217.859 39.6866 237 33" stroke="#449EFD" stroke-width="8" stroke-linecap="round" stroke-linejoin="round" class="bVlERsTO_20"></path>
<path d="M272.505 68.8713C272.02 73.092 257.578 90.2153 240 82.9943" stroke="#449EFD" stroke-width="6.93" stroke-linecap="round" stroke-linejoin="round" class="bVlERsTO_21"></path>
<path d="M226.059 62C226.059 56.1132 222.871 42.8679 237.5 36" stroke="#449EFD" stroke-width="8" stroke-linecap="round" stroke-linejoin="round" class="bVlERsTO_22"></path>
<path d="M268.468 69.074C264.331 73.1924 256.085 83.461 242.049 79.5804" stroke="#449EFD" stroke-width="6.93" stroke-linecap="round" stroke-linejoin="round" class="bVlERsTO_23"></path>
<path d="M232 59C232 51.8108 232 50.7162 238 42.5" stroke="#449EFD" stroke-width="8" stroke-linecap="round" stroke-linejoin="round" class="bVlERsTO_24"></path>
<path d="M263.5 68.5002C254.5 71.5 255.5 72.5 245.5 76" stroke="#449EFD" stroke-width="6.93" stroke-linecap="round" stroke-linejoin="round" class="bVlERsTO_25"></path>
<path d="M236.5 57C237.5 52.5 238.5 52.5 239.5 47" stroke="#449EFD" stroke-width="5" stroke-linecap="round" stroke-linejoin="round" class="bVlERsTO_26"></path>
<path d="M256.5 67.5C252.695 69.994 253 67 248.5 72.0001" stroke="#449EFD" stroke-width="4.93425" stroke-linecap="round" stroke-linejoin="round" class="bVlERsTO_27"></path>
<path d="M256 27C267 27 279 43.5 279 50" stroke="#449EFD" stroke-width="2" stroke-linecap="round" stroke-linejoin="round" class="bVlERsTO_28"></path>
<path d="M255.5 28C263.5 28 277 42.4 277 50" stroke="#449EFD" stroke-width="2" stroke-linecap="square" stroke-linejoin="round" class="bVlERsTO_29"></path>
<path d="M256 29C263.442 29 276 42.7455 276 50" stroke="#449EFD" stroke-width="6" stroke-linejoin="round" class="bVlERsTO_30"></path>
<path d="M256 34C261.953 34 272 44.4727 272 50" stroke="#449EFD" stroke-width="6" stroke-linejoin="round" class="bVlERsTO_31"></path>
<path d="M256 37C260.465 37 268 45.5091 268 50" stroke="#449EFD" stroke-width="6" stroke-linejoin="round" class="bVlERsTO_32"></path>
<path d="M256 41.5C258.233 41.5 262 47.9273 262 50" stroke="#449EFD" stroke-width="6" stroke-linejoin="round" class="bVlERsTO_33"></path>
<path d="M257 47C257.372 47 258 48.3091 258 49" stroke="#449EFD" stroke-width="4" stroke-linecap="square" stroke-linejoin="round" class="bVlERsTO_34"></path>
<path d="M111.5 115.5L137 113.5L194 99M183.5 114.5L194 118V109.5L176.5 110M162.5 100.5L115.5 105.5L126 96L142 91.5L155.5 90.5L190.5 93L179 92.1786L171.5 81.5L140.5 79.5L119.5 87.5L112.5 103" stroke="#449EFD" stroke-width="15" stroke-linecap="square" stroke-linejoin="round" class="bVlERsTO_35"></path>
<path d="M124 232.522L122.719 224.625L104.89 227.517L119.013 238.777L124 232.522ZM131.105 238.187L126.117 244.442L131.597 248.812L136.65 243.954L131.105 238.187ZM130.559 231.458L135.036 224.828L132.408 223.054L129.278 223.562L130.559 231.458ZM134.991 234.451L140.535 240.218L147.669 233.359L139.468 227.821L134.991 234.451ZM119.013 238.777L126.117 244.442L136.092 231.932L128.987 226.267L119.013 238.777ZM125.281 240.419L131.84 239.355L129.278 223.562L122.719 224.625L125.281 240.419ZM136.65 243.954L140.535 240.218L129.446 228.684L125.56 232.42L136.65 243.954ZM139.468 227.821L135.036 224.828L126.082 238.088L130.514 241.081L139.468 227.821Z" fill="#449EFD" class="bVlERsTO_36"></path>
<path d="M181.991 232.522L183.272 224.625L201.1 227.517L186.978 238.777L181.991 232.522ZM174.886 238.187L179.873 244.442L174.393 248.812L169.341 243.954L174.886 238.187ZM175.432 231.458L170.955 224.828L173.583 223.054L176.713 223.562L175.432 231.458ZM171 234.451L165.455 240.218L158.322 233.359L166.523 227.821L171 234.451ZM186.978 238.777L179.873 244.442L169.898 231.932L177.003 226.267L186.978 238.777ZM180.71 240.419L174.151 239.355L176.713 223.562L183.272 224.625L180.71 240.419ZM169.341 243.954L165.455 240.218L176.545 228.684L180.431 232.42L169.341 243.954ZM166.523 227.821L170.955 224.828L179.909 238.088L175.477 241.081L166.523 227.821Z" fill="#449EFD" class="bVlERsTO_37"></path>
<path d="M255 26V51H280" stroke="#449EFD" stroke-width="4" class="bVlERsTO_38"></path>
</g>
<defs>
<clipPath id="clip0">
<path width="306" height="306" fill="white" d="M0 0 L306 0 L306 306 L0 306 Z" class="bVlERsTO_39"></path>
</clipPath>
</defs>
<style data-made-with="vivus-instant">.bVlERsTO_0{stroke-dasharray:937 939;stroke-dashoffset:938;animation:bVlERsTO_draw 2666ms ease-out 0ms forwards;}.bVlERsTO_1{stroke-dasharray:818 820;stroke-dashoffset:819;animation:bVlERsTO_draw 2666ms ease-out 34ms forwards;}.bVlERsTO_2{stroke-dasharray:276 278;stroke-dashoffset:277;animation:bVlERsTO_draw 2666ms ease-out 68ms forwards;}.bVlERsTO_3{stroke-dasharray:25 27;stroke-dashoffset:26;animation:bVlERsTO_draw 2666ms ease-out 102ms forwards;}.bVlERsTO_4{stroke-dasharray:25 27;stroke-dashoffset:26;animation:bVlERsTO_draw 2666ms ease-out 136ms forwards;}.bVlERsTO_5{stroke-dasharray:44 46;stroke-dashoffset:45;animation:bVlERsTO_draw 2666ms ease-out 170ms forwards;}.bVlERsTO_6{stroke-dasharray:41 43;stroke-dashoffset:42;animation:bVlERsTO_draw 2666ms ease-out 205ms forwards;}.bVlERsTO_7{stroke-dasharray:19 21;stroke-dashoffset:20;animation:bVlERsTO_draw 2666ms ease-out 239ms forwards;}.bVlERsTO_8{stroke-dasharray:19 21;stroke-dashoffset:20;animation:bVlERsTO_draw 2666ms ease-out 273ms forwards;}.bVlERsTO_9{stroke-dasharray:19 21;stroke-dashoffset:20;animation:bVlERsTO_draw 2666ms ease-out 307ms forwards;}.bVlERsTO_10{stroke-dasharray:19 21;stroke-dashoffset:20;animation:bVlERsTO_draw 2666ms ease-out 341ms forwards;}.bVlERsTO_11{stroke-dasharray:25 27;stroke-dashoffset:26;animation:bVlERsTO_draw 2666ms ease-out 376ms forwards;}.bVlERsTO_12{stroke-dasharray:25 27;stroke-dashoffset:26;animation:bVlERsTO_draw 2666ms ease-out 410ms forwards;}.bVlERsTO_13{stroke-dasharray:44 46;stroke-dashoffset:45;animation:bVlERsTO_draw 2666ms ease-out 444ms forwards;}.bVlERsTO_14{stroke-dasharray:28 30;stroke-dashoffset:29;animation:bVlERsTO_draw 2666ms ease-out 478ms forwards;}.bVlERsTO_15{stroke-dasharray:28 30;stroke-dashoffset:29;animation:bVlERsTO_draw 2666ms ease-out 512ms forwards;}.bVlERsTO_16{stroke-dasharray:28 30;stroke-dashoffset:29;animation:bVlERsTO_draw 2666ms ease-out 547ms forwards;}.bVlERsTO_17{stroke-dasharray:28 30;stroke-dashoffset:29;animation:bVlERsTO_draw 2666ms ease-out 581ms forwards;}.bVlERsTO_18{stroke-dasharray:52 54;stroke-dashoffset:53;animation:bVlERsTO_draw 2666ms ease-out 615ms forwards;}.bVlERsTO_19{stroke-dasharray:51 53;stroke-dashoffset:52;animation:bVlERsTO_draw 2666ms ease-out 649ms forwards;}.bVlERsTO_20{stroke-dasharray:40 42;stroke-dashoffset:41;animation:bVlERsTO_draw 2666ms ease-out 683ms forwards;}.bVlERsTO_21{stroke-dasharray:40 42;stroke-dashoffset:41;animation:bVlERsTO_draw 2666ms ease-out 717ms forwards;}.bVlERsTO_22{stroke-dasharray:31 33;stroke-dashoffset:32;animation:bVlERsTO_draw 2666ms ease-out 752ms forwards;}.bVlERsTO_23{stroke-dasharray:31 33;stroke-dashoffset:32;animation:bVlERsTO_draw 2666ms ease-out 786ms forwards;}.bVlERsTO_24{stroke-dasharray:19 21;stroke-dashoffset:20;animation:bVlERsTO_draw 2666ms ease-out 820ms forwards;}.bVlERsTO_25{stroke-dasharray:20 22;stroke-dashoffset:21;animation:bVlERsTO_draw 2666ms ease-out 854ms forwards;}.bVlERsTO_26{stroke-dasharray:11 13;stroke-dashoffset:12;animation:bVlERsTO_draw 2666ms ease-out 888ms forwards;}.bVlERsTO_27{stroke-dasharray:10 12;stroke-dashoffset:11;animation:bVlERsTO_draw 2666ms ease-out 923ms forwards;}.bVlERsTO_28{stroke-dasharray:35 37;stroke-dashoffset:36;animation:bVlERsTO_draw 2666ms ease-out 957ms forwards;}.bVlERsTO_29{stroke-dasharray:33 35;stroke-dashoffset:34;animation:bVlERsTO_draw 2666ms ease-out 991ms forwards;}.bVlERsTO_30{stroke-dasharray:31 33;stroke-dashoffset:32;animation:bVlERsTO_draw 2666ms ease-out 1025ms forwards;}.bVlERsTO_31{stroke-dasharray:24 26;stroke-dashoffset:25;animation:bVlERsTO_draw 2666ms ease-out 1059ms forwards;}.bVlERsTO_32{stroke-dasharray:19 21;stroke-dashoffset:20;animation:bVlERsTO_draw 2666ms ease-out 1094ms forwards;}.bVlERsTO_33{stroke-dasharray:11 13;stroke-dashoffset:12;animation:bVlERsTO_draw 2666ms ease-out 1128ms forwards;}.bVlERsTO_34{stroke-dasharray:3 5;stroke-dashoffset:4;animation:bVlERsTO_draw 2666ms ease-out 1162ms forwards;}.bVlERsTO_35{stroke-dasharray:344 346;stroke-dashoffset:345;animation:bVlERsTO_draw 2666ms ease-out 1196ms forwards;}.bVlERsTO_36{stroke-dasharray:322 324;stroke-dashoffset:323;animation:bVlERsTO_draw 2666ms ease-out 1230ms forwards;}.bVlERsTO_37{stroke-dasharray:322 324;stroke-dashoffset:323;animation:bVlERsTO_draw 2666ms ease-out 1264ms forwards;}.bVlERsTO_38{stroke-dasharray:50 52;stroke-dashoffset:51;animation:bVlERsTO_draw 2666ms ease-out 1299ms forwards;}.bVlERsTO_39{stroke-dasharray:1224 1226;stroke-dashoffset:1225;animation:bVlERsTO_draw 2666ms ease-out 1333ms forwards;}@keyframes bVlERsTO_draw{100%{stroke-dashoffset:0;}}@keyframes bVlERsTO_fade{0%{stroke-opacity:1;}95.1219512195122%{stroke-opacity:1;}100%{stroke-opacity:0;}}</style></svg>
