<svg width="306" height="306" viewBox="0 0 306 306" fill="none" xmlns="http://www.w3.org/2000/svg" style="">
<path d="M169.5 196.5L139.18 189.73M139.18 189.73L114.5 206.159L89.8203 189.73M139.18 189.73V168.304M179 299H117.031H50.5M89.8203 189.73L28.1562 203C10.4375 208.687 6.64062 232.757 6.64062 240.339V299H50.5M89.8203 189.73V168.304M50.5 299V248.5M61.9766 122.572C28.4375 122.572 33.5 81.5 58.1797 81.5L65.7734 83C65.7734 131.023 63.875 166.409 111.969 171.464H117.664C165.758 166.409 163.859 131.023 163.859 83H171.453C196.133 83 201.195 124.072 167.656 124.072" stroke="#449EFD" stroke-opacity="0.4" stroke-width="12" stroke-linecap="round" stroke-linejoin="round" class="wcZFmJiy_0"></path>
<path d="M83.9998 204.871L82.5412 197.005L61.7932 200.853L79.8772 211.727L83.9998 204.871ZM89.6812 208.287L85.5586 215.143L91.676 218.822L96.025 213.161L89.6812 208.287ZM88.0634 204.118L91.7625 197.024L89.3168 195.749L86.6047 196.252L88.0634 204.118ZM91.5057 205.913L97.8496 210.787L103.657 203.227L95.2048 198.819L91.5057 205.913ZM79.8772 211.727L85.5586 215.143L93.8038 201.432L88.1225 198.015L79.8772 211.727ZM85.4585 212.737L89.5221 211.984L86.6047 196.252L82.5412 197.005L85.4585 212.737ZM96.025 213.161L97.8496 210.787L85.1619 201.039L83.3373 203.414L96.025 213.161ZM95.2048 198.819L91.7625 197.024L84.3643 211.211L87.8066 213.006L95.2048 198.819Z" fill="#449EFD" class="wcZFmJiy_1"></path>
<path d="M144.506 204.871L145.965 197.005L166.713 200.853L148.629 211.727L144.506 204.871ZM138.825 208.287L142.947 215.143L136.83 218.822L132.481 213.161L138.825 208.287ZM140.442 204.118L136.743 197.024L139.189 195.749L141.901 196.252L140.442 204.118ZM137 205.913L130.656 210.787L124.848 203.227L133.301 198.819L137 205.913ZM148.629 211.727L142.947 215.143L134.702 201.432L140.383 198.015L148.629 211.727ZM143.047 212.737L138.984 211.984L141.901 196.252L145.965 197.005L143.047 212.737ZM132.481 213.161L130.656 210.787L143.344 201.039L145.168 203.414L132.481 213.161ZM133.301 198.819L136.743 197.024L144.141 211.211L140.699 213.006L133.301 198.819Z" fill="#449EFD" class="wcZFmJiy_2"></path>
<path d="M99.5361 3.48417C141.041 1.2903 144.186 6.40931 152.361 21.7662C160.326 22.7412 175 26.8852 175 47.3611V81C160.536 80.2687 141.67 78.0749 131.608 60.5241C99.6411 80.2724 66.6822 80.2698 53.2871 80.2687L53 80.2687V54.6739C53 30.6879 69.9794 3.48417 99.5361 3.48417Z" stroke="#449EFD" stroke-width="5" stroke-linecap="square" stroke-linejoin="round" class="wcZFmJiy_3"></path>
<path d="M65.1395 66.5L92.7636 63.4546L161.503 44.5455M155.5 63.4546L166 70V57.6364H148M125.527 44.5455L65.1394 51.8182L78.6303 38L99.1879 31.4545L116.533 30L158.5 36.5L146.727 32.4416L137.091 16.9091L97.2606 14L76.5 26.5L68 44.5455" stroke="#449EFD" stroke-width="24" stroke-linecap="square" stroke-linejoin="round" class="wcZFmJiy_4"></path>
<path d="M283.259 174H187.741C178.896 174 173 179.071 173 187.561V258.906C173 268.929 177.127 274.236 188.33 274.236H236.679H282.67C293.873 274.236 298 268.929 298 258.906V187.561C298 179.071 292.104 174 283.259 174Z" stroke="#449EFD" stroke-width="11.7925" stroke-linecap="round" class="wcZFmJiy_5"></path>
<path d="M204.25 299H266.75" stroke="#449EFD" stroke-width="11.7925" stroke-linecap="round" class="wcZFmJiy_6"></path>
<path d="M178.307 262.443H291.514" stroke="#449EFD" stroke-width="14.1509" stroke-linecap="square" class="wcZFmJiy_7"></path>
<path d="M211.325 294.873L216.042 277.774M259.674 294.873L254.958 277.774" stroke="#449EFD" stroke-width="11.7925" stroke-linecap="square" class="wcZFmJiy_8"></path>
<path d="M229.604 236.5L241.986 198.764M260.264 205.25L273.236 217.632L260.264 230.604M210.736 205.25L197.764 217.632L210.736 230.604" stroke="#449EFD" stroke-opacity="0.4" stroke-width="11.7925" stroke-linecap="round" stroke-linejoin="round" class="wcZFmJiy_9"></path>
<style data-made-with="vivus-instant">.wcZFmJiy_0{stroke-dasharray:907 909;stroke-dashoffset:908;animation:wcZFmJiy_draw 2200ms ease-out 0ms forwards;}.wcZFmJiy_1{stroke-dasharray:309 311;stroke-dashoffset:310;animation:wcZFmJiy_draw 2200ms ease-out 33ms forwards;}.wcZFmJiy_2{stroke-dasharray:309 311;stroke-dashoffset:310;animation:wcZFmJiy_draw 2200ms ease-out 66ms forwards;}.wcZFmJiy_3{stroke-dasharray:368 370;stroke-dashoffset:369;animation:wcZFmJiy_draw 2200ms ease-out 100ms forwards;}.wcZFmJiy_4{stroke-dasharray:419 421;stroke-dashoffset:420;animation:wcZFmJiy_draw 2200ms ease-out 133ms forwards;}.wcZFmJiy_5{stroke-dasharray:428 430;stroke-dashoffset:429;animation:wcZFmJiy_draw 2200ms ease-out 166ms forwards;}.wcZFmJiy_6{stroke-dasharray:63 65;stroke-dashoffset:64;animation:wcZFmJiy_draw 2200ms ease-out 200ms forwards;}.wcZFmJiy_7{stroke-dasharray:114 116;stroke-dashoffset:115;animation:wcZFmJiy_draw 2200ms ease-out 233ms forwards;}.wcZFmJiy_8{stroke-dasharray:36 38;stroke-dashoffset:37;animation:wcZFmJiy_draw 2200ms ease-out 266ms forwards;}.wcZFmJiy_9{stroke-dasharray:113 115;stroke-dashoffset:114;animation:wcZFmJiy_draw 2200ms ease-out 300ms forwards;}@keyframes wcZFmJiy_draw{100%{stroke-dashoffset:0;}}@keyframes wcZFmJiy_fade{0%{stroke-opacity:1;}94.02985074626866%{stroke-opacity:1;}100%{stroke-opacity:0;}}</style></svg>
