<svg width="306" height="306" viewBox="0 0 306 306" fill="none" xmlns="http://www.w3.org/2000/svg" style="">
<path d="M285.025 299H160.737H20.9745C10.9915 299 6 295.506 6 280.032V22.971C6 6 12.9881 6 26.4652 6H160.737H279.535C293.012 6 300 6 300 22.971V280.032C300 295.506 295.008 299 285.025 299Z" stroke="#449EFD" stroke-width="12" stroke-linecap="round" stroke-linejoin="round" class="lstnnnQa_0"></path>
<path d="M175.689 96H148.211H117.311C115.104 96 114 95.6899 114 94.3169V71.506C114 70 115.545 70 118.525 70H148.211H174.475C177.455 70 179 70 179 71.506V94.3169C179 95.6899 177.896 96 175.689 96Z" stroke="#449EFD" stroke-width="12" stroke-linecap="round" stroke-linejoin="round" class="lstnnnQa_1"></path>
<path d="M265.689 96H238.211H207.311C205.104 96 204 95.6899 204 94.3169V71.506C204 70 205.545 70 208.525 70H238.211H264.475C267.455 70 269 70 269 71.506V94.3169C269 95.6899 267.896 96 265.689 96Z" stroke="#449EFD" stroke-width="12" stroke-linecap="round" stroke-linejoin="round" class="lstnnnQa_2"></path>
<path d="M122.5 84.5H173" stroke="#449EFD" stroke-width="20" stroke-linecap="round" stroke-linejoin="round" class="lstnnnQa_3"></path>
<path d="M212 84.5H262.5" stroke="#449EFD" stroke-width="20" stroke-linecap="round" stroke-linejoin="round" class="lstnnnQa_4"></path>
<path d="M83 50.5V294.5" stroke="#449EFD" stroke-width="12" stroke-linecap="round" stroke-linejoin="round" class="lstnnnQa_5"></path>
<path d="M12 31H296" stroke="#449EFD" stroke-width="40" stroke-linejoin="round" class="lstnnnQa_6"></path>
<path d="M32 26H32.5" stroke="#449EFD" stroke-width="12" stroke-linecap="round" stroke-linejoin="round" class="lstnnnQa_7"></path>
<path d="M57 26H57.5" stroke="#449EFD" stroke-width="12" stroke-linecap="round" stroke-linejoin="round" class="lstnnnQa_8"></path>
<path d="M45 83H45.5" stroke="#449EFD" stroke-width="38" stroke-linecap="round" stroke-linejoin="round" class="lstnnnQa_9"></path>
<path d="M83 26H83.5" stroke="#449EFD" stroke-width="12" stroke-linecap="round" stroke-linejoin="round" class="lstnnnQa_10"></path>
<path d="M184.5 25.5H274.5" stroke="#449EFD" stroke-width="12" stroke-linecap="round" stroke-linejoin="round" class="lstnnnQa_11"></path>
<path d="M32 121H58" stroke="#449EFD" stroke-opacity="0.4" stroke-width="12" stroke-linecap="round" stroke-linejoin="round" class="lstnnnQa_12"></path>
<path d="M32 147H58" stroke="#449EFD" stroke-opacity="0.4" stroke-width="12" stroke-linecap="round" stroke-linejoin="round" class="lstnnnQa_13"></path>
<path d="M32 173H58" stroke="#449EFD" stroke-opacity="0.4" stroke-width="12" stroke-linecap="round" stroke-linejoin="round" class="lstnnnQa_14"></path>
<path d="M32 198H58" stroke="#449EFD" stroke-opacity="0.4" stroke-width="12" stroke-linecap="round" stroke-linejoin="round" class="lstnnnQa_15"></path>
<path d="M32 223H58" stroke="#449EFD" stroke-opacity="0.4" stroke-width="12" stroke-linecap="round" stroke-linejoin="round" class="lstnnnQa_16"></path>
<path d="M32 249H58" stroke="#449EFD" stroke-opacity="0.4" stroke-width="12" stroke-linecap="round" stroke-linejoin="round" class="lstnnnQa_17"></path>
<path d="M32 274H58" stroke="#449EFD" stroke-opacity="0.4" stroke-width="12" stroke-linecap="round" stroke-linejoin="round" class="lstnnnQa_18"></path>
<path d="M108 223H146" stroke="#449EFD" stroke-opacity="0.4" stroke-width="12" stroke-linecap="round" stroke-linejoin="round" class="lstnnnQa_19"></path>
<path d="M115 127L115 191L267.5 191" stroke="#449EFD" stroke-opacity="0.4" stroke-width="12" stroke-linecap="round" stroke-linejoin="round" class="lstnnnQa_20"></path>
<path d="M108 249H146" stroke="#449EFD" stroke-opacity="0.4" stroke-width="12" stroke-linecap="round" stroke-linejoin="round" class="lstnnnQa_21"></path>
<path d="M108 274H146" stroke="#449EFD" stroke-opacity="0.4" stroke-width="12" stroke-linecap="round" stroke-linejoin="round" class="lstnnnQa_22"></path>
<path d="M172 223H210" stroke="#449EFD" stroke-opacity="0.4" stroke-width="12" stroke-linecap="round" stroke-linejoin="round" class="lstnnnQa_23"></path>
<path d="M172 249H210" stroke="#449EFD" stroke-opacity="0.4" stroke-width="12" stroke-linecap="round" stroke-linejoin="round" class="lstnnnQa_24"></path>
<path d="M172 274H210" stroke="#449EFD" stroke-opacity="0.4" stroke-width="12" stroke-linecap="round" stroke-linejoin="round" class="lstnnnQa_25"></path>
<path d="M236 223H274" stroke="#449EFD" stroke-opacity="0.4" stroke-width="12" stroke-linecap="round" stroke-linejoin="round" class="lstnnnQa_26"></path>
<path d="M236 249H274" stroke="#449EFD" stroke-opacity="0.4" stroke-width="12" stroke-linecap="round" stroke-linejoin="round" class="lstnnnQa_27"></path>
<path d="M236 274H274" stroke="#449EFD" stroke-opacity="0.4" stroke-width="12" stroke-linecap="round" stroke-linejoin="round" class="lstnnnQa_28"></path>
<path d="M123.5 183.5L152 158C159.5 152.5 161 150 181 168C185.167 170.5 194 174.5 203.5 164L219.5 148C222.333 145.167 229.4 141.2 235 148C240.6 154.8 253.167 173.333 259.5 183.5" stroke="#449EFD" stroke-width="6" stroke-linecap="round" stroke-linejoin="round" class="lstnnnQa_29"></path>
<path d="M124 183.5H259M132 178H253.5M137.5 172.5H250.5M144 166.5H178M204 167.5H247.5M152 162.5H160.25H168.5M157 159H163.5M244 162.5H208.75M241 157.5H226.625H212.25M235.5 153H218M232 149H223.5" stroke="#449EFD" stroke-width="6" stroke-linecap="round" stroke-linejoin="round" class="lstnnnQa_30"></path>
<style data-made-with="vivus-instant">.lstnnnQa_0{stroke-dasharray:1152 1154;stroke-dashoffset:1153;animation:lstnnnQa_draw 2500ms ease-out 0ms forwards;}.lstnnnQa_1{stroke-dasharray:180 182;stroke-dashoffset:181;animation:lstnnnQa_draw 2500ms ease-out 10ms forwards;}.lstnnnQa_2{stroke-dasharray:180 182;stroke-dashoffset:181;animation:lstnnnQa_draw 2500ms ease-out 20ms forwards;}.lstnnnQa_3{stroke-dasharray:51 53;stroke-dashoffset:52;animation:lstnnnQa_draw 2500ms ease-out 30ms forwards;}.lstnnnQa_4{stroke-dasharray:51 53;stroke-dashoffset:52;animation:lstnnnQa_draw 2500ms ease-out 40ms forwards;}.lstnnnQa_5{stroke-dasharray:244 246;stroke-dashoffset:245;animation:lstnnnQa_draw 2500ms ease-out 50ms forwards;}.lstnnnQa_6{stroke-dasharray:284 286;stroke-dashoffset:285;animation:lstnnnQa_draw 2500ms ease-out 60ms forwards;}.lstnnnQa_7{stroke-dasharray:1 3;stroke-dashoffset:2;animation:lstnnnQa_draw 2500ms ease-out 70ms forwards;}.lstnnnQa_8{stroke-dasharray:1 3;stroke-dashoffset:2;animation:lstnnnQa_draw 2500ms ease-out 80ms forwards;}.lstnnnQa_9{stroke-dasharray:1 3;stroke-dashoffset:2;animation:lstnnnQa_draw 2500ms ease-out 90ms forwards;}.lstnnnQa_10{stroke-dasharray:1 3;stroke-dashoffset:2;animation:lstnnnQa_draw 2500ms ease-out 100ms forwards;}.lstnnnQa_11{stroke-dasharray:90 92;stroke-dashoffset:91;animation:lstnnnQa_draw 2500ms ease-out 110ms forwards;}.lstnnnQa_12{stroke-dasharray:26 28;stroke-dashoffset:27;animation:lstnnnQa_draw 2500ms ease-out 120ms forwards;}.lstnnnQa_13{stroke-dasharray:26 28;stroke-dashoffset:27;animation:lstnnnQa_draw 2500ms ease-out 130ms forwards;}.lstnnnQa_14{stroke-dasharray:26 28;stroke-dashoffset:27;animation:lstnnnQa_draw 2500ms ease-out 140ms forwards;}.lstnnnQa_15{stroke-dasharray:26 28;stroke-dashoffset:27;animation:lstnnnQa_draw 2500ms ease-out 150ms forwards;}.lstnnnQa_16{stroke-dasharray:26 28;stroke-dashoffset:27;animation:lstnnnQa_draw 2500ms ease-out 160ms forwards;}.lstnnnQa_17{stroke-dasharray:26 28;stroke-dashoffset:27;animation:lstnnnQa_draw 2500ms ease-out 170ms forwards;}.lstnnnQa_18{stroke-dasharray:26 28;stroke-dashoffset:27;animation:lstnnnQa_draw 2500ms ease-out 180ms forwards;}.lstnnnQa_19{stroke-dasharray:38 40;stroke-dashoffset:39;animation:lstnnnQa_draw 2500ms ease-out 190ms forwards;}.lstnnnQa_20{stroke-dasharray:217 219;stroke-dashoffset:218;animation:lstnnnQa_draw 2500ms ease-out 200ms forwards;}.lstnnnQa_21{stroke-dasharray:38 40;stroke-dashoffset:39;animation:lstnnnQa_draw 2500ms ease-out 210ms forwards;}.lstnnnQa_22{stroke-dasharray:38 40;stroke-dashoffset:39;animation:lstnnnQa_draw 2500ms ease-out 220ms forwards;}.lstnnnQa_23{stroke-dasharray:38 40;stroke-dashoffset:39;animation:lstnnnQa_draw 2500ms ease-out 230ms forwards;}.lstnnnQa_24{stroke-dasharray:38 40;stroke-dashoffset:39;animation:lstnnnQa_draw 2500ms ease-out 240ms forwards;}.lstnnnQa_25{stroke-dasharray:38 40;stroke-dashoffset:39;animation:lstnnnQa_draw 2500ms ease-out 250ms forwards;}.lstnnnQa_26{stroke-dasharray:38 40;stroke-dashoffset:39;animation:lstnnnQa_draw 2500ms ease-out 260ms forwards;}.lstnnnQa_27{stroke-dasharray:38 40;stroke-dashoffset:39;animation:lstnnnQa_draw 2500ms ease-out 270ms forwards;}.lstnnnQa_28{stroke-dasharray:38 40;stroke-dashoffset:39;animation:lstnnnQa_draw 2500ms ease-out 280ms forwards;}.lstnnnQa_29{stroke-dasharray:182 184;stroke-dashoffset:183;animation:lstnnnQa_draw 2500ms ease-out 290ms forwards;}.lstnnnQa_30{stroke-dasharray:560 562;stroke-dashoffset:561;animation:lstnnnQa_draw 2500ms ease-out 300ms forwards;}@keyframes lstnnnQa_draw{100%{stroke-dashoffset:0;}}@keyframes lstnnnQa_fade{0%{stroke-opacity:1;}94.28571428571429%{stroke-opacity:1;}100%{stroke-opacity:0;}}</style></svg>
