<svg width="306" height="306" viewBox="0 0 306 306" fill="none" xmlns="http://www.w3.org/2000/svg" style="">
<g clip-path="url(#clip0)">
<path d="M57 198L57 197" stroke="#449EFD" stroke-width="12" stroke-linecap="round" stroke-linejoin="round" class="BlxQmvgI_0"></path>
<path d="M57 173L57 172" stroke="#449EFD" stroke-width="12" stroke-linecap="round" stroke-linejoin="round" class="BlxQmvgI_1"></path>
<path d="M32 147L32 146" stroke="#449EFD" stroke-width="12" stroke-linecap="round" stroke-linejoin="round" class="BlxQmvgI_2"></path>
<path d="M32 122L32 121" stroke="#449EFD" stroke-width="12" stroke-linecap="round" stroke-linejoin="round" class="BlxQmvgI_3"></path>
<path d="M108.5 6.5C102.5 6.5 95.5 10 95.5 20.5C95.5 42 96.5 37.5 83 51C96.5 64.5 95.5 60 95.5 81.5C95.5 92 102.5 95.5 108.5 95.5" stroke="#449EFD" stroke-opacity="0.4" stroke-width="12" stroke-linecap="round" stroke-linejoin="round" class="BlxQmvgI_4"></path>
<path d="M197 6.5C203 6.5 210 10 210 20.5C210 42 209 37.5 222.5 51C209 64.5 210 60 210 81.5C210 92 203 95.5 197 95.5" stroke="#449EFD" stroke-opacity="0.4" stroke-width="12" stroke-linecap="round" stroke-linejoin="round" class="BlxQmvgI_5"></path>
<path d="M57 121L83 121" stroke="#449EFD" stroke-opacity="0.4" stroke-width="12" stroke-linecap="round" stroke-linejoin="round" class="BlxQmvgI_6"></path>
<path d="M146 147L172 147" stroke="#449EFD" stroke-opacity="0.4" stroke-width="12" stroke-linecap="round" stroke-linejoin="round" class="BlxQmvgI_7"></path>
<path d="M108 121L172 121" stroke="#449EFD" stroke-opacity="0.4" stroke-width="12" stroke-linecap="round" stroke-linejoin="round" class="BlxQmvgI_8"></path>
<path d="M57 147L121 147" stroke="#449EFD" stroke-opacity="0.4" stroke-width="12" stroke-linecap="round" stroke-linejoin="round" class="BlxQmvgI_9"></path>
<path d="M83 172L159 172" stroke="#449EFD" stroke-opacity="0.4" stroke-width="12" stroke-linecap="round" stroke-linejoin="round" class="BlxQmvgI_10"></path>
<path d="M185 172L210 172" stroke="#449EFD" stroke-opacity="0.4" stroke-width="12" stroke-linecap="round" stroke-linejoin="round" class="BlxQmvgI_11"></path>
<path d="M83 198L96 198" stroke="#449EFD" stroke-opacity="0.4" stroke-width="12" stroke-linecap="round" stroke-linejoin="round" class="BlxQmvgI_12"></path>
<path d="M121 198L172 198" stroke="#449EFD" stroke-opacity="0.4" stroke-width="12" stroke-linecap="round" stroke-linejoin="round" class="BlxQmvgI_13"></path>
<path d="M197 198L248 198" stroke="#449EFD" stroke-opacity="0.4" stroke-width="12" stroke-linecap="round" stroke-linejoin="round" class="BlxQmvgI_14"></path>
<path d="M197 147L274 147" stroke="#449EFD" stroke-opacity="0.4" stroke-width="12" stroke-linecap="round" stroke-linejoin="round" class="BlxQmvgI_15"></path>
<path d="M177.792 43.9967L178.523 46.6219L181.054 47.6306L185.75 49.5015V52.4748C185.458 52.5859 185.189 52.6878 184.932 52.7851C184.285 53.0298 183.717 53.2451 183.063 53.5043C183.013 53.524 182.959 53.5451 182.901 53.5678C181.957 53.9363 179.954 54.7185 178.642 56.5227C177.93 57.501 177.631 58.4701 177.501 58.9025C177.391 59.2667 177.357 59.3965 177.33 59.5004C177.302 59.61 177.28 59.6908 177.186 59.9873C177.003 60.5655 176.608 61.6484 175.51 63.5712L174.151 65.9491L175.23 68.4665L177.205 73.0764L175.11 75.1718C174.696 74.9833 174.321 74.8114 173.975 74.6523C173.475 74.4226 173.033 74.2197 172.613 74.0323C172.028 73.7713 171.315 73.4625 170.601 73.2485C169.805 73.01 168.708 72.7919 167.417 72.9748C166.209 73.146 165.298 73.6131 164.89 73.8266C164.466 74.0494 164.385 74.0981 164.319 74.1376C164.255 74.1765 164.205 74.2064 163.858 74.384C163.282 74.679 162.191 75.1823 160.003 75.7916L157.378 76.5226L156.369 79.0542L154.498 83.7499H151.53C151.368 83.3238 151.223 82.9375 151.089 82.5795C150.885 82.0344 150.705 81.5548 150.528 81.0995C150.293 80.495 150.002 79.7708 149.645 79.115C149.248 78.3869 148.62 77.4545 147.568 76.6736C146.58 75.9404 145.596 75.6344 145.159 75.5026C144.749 75.3787 144.637 75.3504 144.546 75.3276C144.456 75.3047 144.387 75.2874 144.057 75.1833C143.464 74.9961 142.358 74.5965 140.4 73.4931L138.032 72.159L135.533 73.2296L130.924 75.2053L128.828 73.1099C129.017 72.6955 129.189 72.3212 129.348 71.9748C129.577 71.4747 129.78 71.0329 129.968 70.6131C130.229 70.0282 130.537 69.3147 130.751 68.601C130.99 67.8054 131.208 66.7079 131.025 65.4169C130.854 64.2086 130.387 63.2976 130.173 62.8904C129.951 62.4656 129.902 62.3847 129.862 62.319C129.823 62.2545 129.794 62.2048 129.616 61.8577C129.321 61.2815 128.818 60.1911 128.208 58.0032L127.477 55.378L124.946 54.3693L120.25 52.4983V49.5299C120.676 49.3684 121.062 49.2234 121.42 49.0891C121.965 48.8846 122.445 48.7047 122.9 48.5279C123.505 48.2932 124.229 48.0021 124.885 47.6448C125.613 47.2482 126.545 46.6202 127.326 45.5682C128.06 44.5804 128.366 43.5961 128.497 43.1594C128.621 42.7487 128.65 42.6365 128.672 42.5464C128.695 42.4555 128.713 42.3871 128.817 42.0572C129.004 41.4637 129.403 40.3582 130.507 38.3996L131.841 36.0316L130.77 33.5334L128.795 28.9235L130.89 26.8281C131.304 27.0166 131.679 27.1885 132.025 27.3476C132.525 27.5773 132.967 27.7802 133.387 27.9676C133.972 28.2286 134.685 28.5374 135.399 28.7513C136.195 28.9898 137.292 29.208 138.583 29.0251C139.791 28.8539 140.702 28.3868 141.11 28.1733C141.534 27.9505 141.615 27.9018 141.681 27.8623C141.745 27.8234 141.795 27.7935 142.142 27.6159C142.718 27.3209 143.809 26.8176 145.997 26.2083L148.622 25.4773L149.631 22.9457L151.502 18.2499H154.47C154.632 18.6761 154.776 19.0623 154.911 19.4203C155.115 19.9654 155.295 20.4451 155.472 20.9004C155.707 21.5048 155.998 22.2291 156.355 22.8849C156.752 23.6129 157.38 24.5454 158.432 25.3263C159.42 26.0595 160.404 26.3655 160.841 26.4973C161.251 26.6212 161.363 26.6495 161.454 26.6722C161.544 26.6952 161.613 26.7125 161.943 26.8165C162.536 27.0038 163.642 27.4034 165.6 28.5068L167.968 29.8409L170.467 28.7702L175.076 26.7946L177.172 28.89C176.983 29.3043 176.811 29.6787 176.652 30.025C176.423 30.5252 176.22 30.967 176.032 31.3867C175.771 31.9716 175.463 32.6852 175.249 33.3989C175.01 34.1945 174.792 35.292 174.975 36.583C175.146 37.7913 175.613 38.7023 175.827 39.1095C176.049 39.5343 176.098 39.6152 176.138 39.6809C176.177 39.7454 176.206 39.7951 176.384 40.1421C176.679 40.7184 177.182 41.8088 177.792 43.9967ZM142.861 66.1743C145.862 68.1796 149.39 69.2499 153 69.2499C157.84 69.2499 162.482 67.3272 165.905 63.9046C169.327 60.4821 171.25 55.8401 171.25 50.9999C171.25 47.3904 170.18 43.862 168.174 40.8608C166.169 37.8596 163.319 35.5204 159.984 34.1391C156.649 32.7578 152.98 32.3964 149.44 33.1006C145.899 33.8048 142.648 35.5429 140.095 38.0952C137.543 40.6475 135.805 43.8994 135.101 47.4395C134.396 50.9797 134.758 54.6492 136.139 57.9839C137.52 61.3187 139.86 64.1689 142.861 66.1743Z" stroke="#449EFD" stroke-width="11" class="BlxQmvgI_16"></path>
<path d="M58 44H30C13.5 44 6 45.5 6 60C6 75.2 6 182 6 234.5C6 249 1.59999 262 26 262H151H280C304.4 262 300 249 300 234.5V60C300 45.5 292.5 44 276 44H248" stroke="#449EFD" stroke-width="12" stroke-linecap="round" stroke-linejoin="round" class="BlxQmvgI_17"></path>
<path d="M121.5 263L115 299M185 263L192 299" stroke="#449EFD" stroke-width="12" stroke-linecap="round" stroke-linejoin="round" class="BlxQmvgI_18"></path>
<path d="M101.5 299.5H204.5" stroke="#449EFD" stroke-width="12" stroke-linecap="round" stroke-linejoin="round" class="BlxQmvgI_19"></path>
<path d="M30 240H276.5" stroke="#449EFD" stroke-width="45" stroke-linecap="square" stroke-linejoin="round" class="BlxQmvgI_20"></path>
<path d="M153 244L153 243" stroke="#449EFD" stroke-opacity="0.4" stroke-width="12" stroke-linecap="round" stroke-linejoin="round" class="BlxQmvgI_21"></path>
</g>
<defs>
<clipPath id="clip0">
<path width="306" height="306" fill="white" d="M0 0 L306 0 L306 306 L0 306 Z" class="BlxQmvgI_22"></path>
</clipPath>
</defs>
<style data-made-with="vivus-instant">.BlxQmvgI_0{stroke-dasharray:1 3;stroke-dashoffset:2;animation:BlxQmvgI_draw 2700ms ease-out 0ms forwards;}.BlxQmvgI_1{stroke-dasharray:1 3;stroke-dashoffset:2;animation:BlxQmvgI_draw 2700ms ease-out 13ms forwards;}.BlxQmvgI_2{stroke-dasharray:1 3;stroke-dashoffset:2;animation:BlxQmvgI_draw 2700ms ease-out 27ms forwards;}.BlxQmvgI_3{stroke-dasharray:1 3;stroke-dashoffset:2;animation:BlxQmvgI_draw 2700ms ease-out 40ms forwards;}.BlxQmvgI_4{stroke-dasharray:114 116;stroke-dashoffset:115;animation:BlxQmvgI_draw 2700ms ease-out 54ms forwards;}.BlxQmvgI_5{stroke-dasharray:114 116;stroke-dashoffset:115;animation:BlxQmvgI_draw 2700ms ease-out 68ms forwards;}.BlxQmvgI_6{stroke-dasharray:26 28;stroke-dashoffset:27;animation:BlxQmvgI_draw 2700ms ease-out 81ms forwards;}.BlxQmvgI_7{stroke-dasharray:26 28;stroke-dashoffset:27;animation:BlxQmvgI_draw 2700ms ease-out 95ms forwards;}.BlxQmvgI_8{stroke-dasharray:64 66;stroke-dashoffset:65;animation:BlxQmvgI_draw 2700ms ease-out 109ms forwards;}.BlxQmvgI_9{stroke-dasharray:64 66;stroke-dashoffset:65;animation:BlxQmvgI_draw 2700ms ease-out 122ms forwards;}.BlxQmvgI_10{stroke-dasharray:76 78;stroke-dashoffset:77;animation:BlxQmvgI_draw 2700ms ease-out 136ms forwards;}.BlxQmvgI_11{stroke-dasharray:25 27;stroke-dashoffset:26;animation:BlxQmvgI_draw 2700ms ease-out 150ms forwards;}.BlxQmvgI_12{stroke-dasharray:13 15;stroke-dashoffset:14;animation:BlxQmvgI_draw 2700ms ease-out 163ms forwards;}.BlxQmvgI_13{stroke-dasharray:51 53;stroke-dashoffset:52;animation:BlxQmvgI_draw 2700ms ease-out 177ms forwards;}.BlxQmvgI_14{stroke-dasharray:51 53;stroke-dashoffset:52;animation:BlxQmvgI_draw 2700ms ease-out 190ms forwards;}.BlxQmvgI_15{stroke-dasharray:77 79;stroke-dashoffset:78;animation:BlxQmvgI_draw 2700ms ease-out 204ms forwards;}.BlxQmvgI_16{stroke-dasharray:352 354;stroke-dashoffset:353;animation:BlxQmvgI_draw 2700ms ease-out 218ms forwards;}.BlxQmvgI_17{stroke-dasharray:811 813;stroke-dashoffset:812;animation:BlxQmvgI_draw 2700ms ease-out 231ms forwards;}.BlxQmvgI_18{stroke-dasharray:74 76;stroke-dashoffset:75;animation:BlxQmvgI_draw 2700ms ease-out 245ms forwards;}.BlxQmvgI_19{stroke-dasharray:103 105;stroke-dashoffset:104;animation:BlxQmvgI_draw 2700ms ease-out 259ms forwards;}.BlxQmvgI_20{stroke-dasharray:247 249;stroke-dashoffset:248;animation:BlxQmvgI_draw 2700ms ease-out 272ms forwards;}.BlxQmvgI_21{stroke-dasharray:1 3;stroke-dashoffset:2;animation:BlxQmvgI_draw 2700ms ease-out 286ms forwards;}.BlxQmvgI_22{stroke-dasharray:1224 1226;stroke-dashoffset:1225;animation:BlxQmvgI_draw 2700ms ease-out 300ms forwards;}@keyframes BlxQmvgI_draw{100%{stroke-dashoffset:0;}}@keyframes BlxQmvgI_fade{0%{stroke-opacity:1;}94.44444444444444%{stroke-opacity:1;}100%{stroke-opacity:0;}}</style></svg>
