<svg xmlns="http://www.w3.org/2000/svg" xmlns:xlink="http://www.w3.org/1999/xlink" viewBox="0 0 115.18 48.84"><defs><style>.a{fill:none;}.b{clip-path:url(#a);}.c{fill:#64b6e3;}.d{fill:#a2dbfa;}</style><clipPath id="a" transform="translate(-2.41 -2.52)"><rect class="a" width="120" height="53.88"/></clipPath></defs><title>sourcecraft-logo-light</title><g class="b"><path class="c" d="M33.37,11l-1.26,2.55a9.38,9.38,0,0,0-4.59-1.41c-1.35,0-2.34.45-2.34,1.59,0,2.93,8.49,1.34,8.46,7.13,0,3.26-2.91,4.73-6.12,4.73a9.87,9.87,0,0,1-6.42-2.22l1.23-2.45a8.68,8.68,0,0,0,5.34,2c1.47,0,2.61-.51,2.61-1.7,0-3.27-8.4-1.44-8.37-7.19,0-3.24,2.82-4.62,5.88-4.62A10.09,10.09,0,0,1,33.37,11" transform="translate(-2.41 -2.52)"/><path class="c" d="M52.25,17.49c0,4.79-3.39,8.09-8.3,8.09s-8.34-3.3-8.34-8.09S39,9.4,44,9.4s8.3,3.27,8.3,8.09m-13.19,0c0,3.09,2,5.18,4.89,5.18s4.85-2.09,4.85-5.18-2-5.15-4.85-5.15a4.8,4.8,0,0,0-4.89,5.15" transform="translate(-2.41 -2.52)"/><path class="c" d="M70.33,25.46H66.88V22.34c-1.08,2.22-3.09,3.21-5.7,3.24-3.66,0-5.85-2.34-5.85-6.14V9.52h3.45v9a3.5,3.5,0,0,0,3.72,3.86c2.76-.06,4.38-2.18,4.38-5V9.52h3.45Z" transform="translate(-2.41 -2.52)"/><path class="c" d="M78.87,12.7a5.8,5.8,0,0,1,5.52-3.3v3.3c-3.21-.18-5.25,1.7-5.52,4.43v8.33H75.42V9.52h3.45Z" transform="translate(-2.41 -2.52)"/><path class="c" d="M100.36,12l-1.89,2.22a6,6,0,0,0-4.55-1.8c-2.76,0-4.74,2.07-4.74,5.09s2,5.09,4.74,5.09a5.94,5.94,0,0,0,4.7-1.91l1.92,1.91a8.09,8.09,0,0,1-6.77,3,7.67,7.67,0,0,1-8-8.06,7.71,7.71,0,0,1,8-8.12A8.4,8.4,0,0,1,100.36,12" transform="translate(-2.41 -2.52)"/><path class="c" d="M117.54,18.81H105.49a4.84,4.84,0,0,0,4.94,4,6.2,6.2,0,0,0,4.5-1.85l1.83,1.94a8.68,8.68,0,0,1-6.6,2.7c-4.91,0-8.15-3.27-8.15-8.06a7.74,7.74,0,0,1,8.06-8.12c5.61,0,7.89,3.66,7.47,9.41m-3-2.52a4.1,4.1,0,0,0-4.44-4.13,4.54,4.54,0,0,0-4.67,4.13Z" transform="translate(-2.41 -2.52)"/><path class="d" d="M34.61,32.32l-2.47,2.92a4.72,4.72,0,0,0-3.45-1.91A3.5,3.5,0,0,0,25.25,37a3.53,3.53,0,0,0,3.44,3.73,5.23,5.23,0,0,0,3.45-1.67l2.47,2.64a8.74,8.74,0,0,1-6.12,2.78,7.33,7.33,0,0,1-7.63-7.43c0-4.2,3.3-7.31,7.77-7.31a8.51,8.51,0,0,1,6,2.55" transform="translate(-2.41 -2.52)"/><path class="d" d="M42.5,40.43H40.24v3.89H36V29.89h6.74c3.87,0,6.1,1.85,6.1,5.13a4.92,4.92,0,0,1-2.43,4.59l2.93,4.71H44.42Zm.19-3.29a1.82,1.82,0,0,0,2-2,1.8,1.8,0,0,0-2-2H40.24v4Z" transform="translate(-2.41 -2.52)"/><path class="d" d="M54.51,42l-.87,2.3H49.23L55.4,29.89h4.41l6,14.43H61.19L60.34,42Zm3-7.85-1.77,4.72h3.5Z" transform="translate(-2.41 -2.52)"/><polygon class="d" points="68.65 30.67 68.65 33.55 75.08 33.55 75.08 36.84 68.65 36.84 68.65 41.8 64.36 41.8 64.36 27.38 75.58 27.38 75.58 30.67 68.65 30.67"/><polygon class="d" points="85.46 30.79 85.46 41.8 81.16 41.8 81.16 30.79 76.97 30.79 76.97 27.38 89.67 27.38 89.67 30.79 85.46 30.79"/><path class="c" d="M14.47,2.52c-5.88,0-8.18,1.83-8.18,6.65V20c0,2-.68,2.77-2.26,2.77H2.41V26s5.2.42,7.71-1.67l.07-.05.16-.15a1.59,1.59,0,0,0,.13-.13l.12-.13.12-.14c.07-.09.13-.19.19-.28h0a1.8,1.8,0,0,0,.35-.69h0a8.44,8.44,0,0,0,.48-3.13V11.06c0-2.63,1.26-3.72,5-3.72V2.52Z" transform="translate(-2.41 -2.52)"/><path class="d" d="M16.73,46.54v4.82H14.47c-5.88,0-8.18-1.83-8.18-6.65V33.86a3.69,3.69,0,0,0-.4-1.95A2,2,0,0,0,4,31.08H2.41V27.86s.42,0,1.09,0c1.67,0,4.83.21,6.62,1.7l.07,0,.16.15a1.59,1.59,0,0,1,.13.13l.12.13.12.14.2.28a2.28,2.28,0,0,1,.35.69h0a4.53,4.53,0,0,1,.25.81,10,10,0,0,1,.23,2.32v8.59c0,2.62,1.26,3.72,5,3.72" transform="translate(-2.41 -2.52)"/><path class="d" d="M16.73,27.83l-1.88,4.08h-9A2,2,0,0,0,4,31.08H2.41V27.83Z" transform="translate(-2.41 -2.52)"/></g></svg>