<svg xmlns="http://www.w3.org/2000/svg" xmlns:xlink="http://www.w3.org/1999/xlink" viewBox="0 0 115.2 48.8"><defs><style>.a{fill:none;}.b{clip-path:url(#a);}.c{fill:#449efd;}.d{fill:#fff;}</style><clipPath id="a" transform="translate(-2.4 -2.5)"><rect class="a" width="120" height="53.88"/></clipPath></defs><title>Asset 5</title><g class="b"><path class="c" d="M33.4,11l-1.3,2.5a10.2,10.2,0,0,0-4.6-1.4c-1.3,0-2.3.5-2.3,1.6,0,3,8.5,1.4,8.4,7.1,0,3.3-2.9,4.8-6.1,4.8a10.1,10.1,0,0,1-6.4-2.2l1.2-2.5a9,9,0,0,0,5.4,2c1.4,0,2.6-.5,2.6-1.7,0-3.3-8.4-1.5-8.4-7.2,0-3.2,2.8-4.6,5.9-4.6A10.5,10.5,0,0,1,33.4,11" transform="translate(-2.4 -2.5)"/><path class="c" d="M52.3,17.5c0,4.8-3.4,8.1-8.4,8.1s-8.3-3.3-8.3-8.1S39,9.4,43.9,9.4s8.4,3.3,8.4,8.1m-13.2,0c0,3.1,2,5.2,4.8,5.2s4.9-2.1,4.9-5.2a4.9,4.9,0,1,0-9.7,0" transform="translate(-2.4 -2.5)"/><path class="c" d="M70.3,25.5H66.9V22.3a5.8,5.8,0,0,1-5.7,3.3c-3.7,0-5.9-2.4-5.9-6.2V9.5h3.5v9a3.4,3.4,0,0,0,3.7,3.8c2.8,0,4.4-2.1,4.4-4.9V9.5h3.4Z" transform="translate(-2.4 -2.5)"/><path class="c" d="M78.9,12.7a5.7,5.7,0,0,1,5.5-3.3v3.3c-3.2-.2-5.3,1.7-5.5,4.4v8.4H75.4V9.5h3.5Z" transform="translate(-2.4 -2.5)"/><path class="c" d="M100.4,12l-1.9,2.2a6.4,6.4,0,0,0-4.6-1.8c-2.7,0-4.7,2.1-4.7,5.1s2,5.1,4.7,5.1a5.8,5.8,0,0,0,4.7-1.9l1.9,1.9a7.9,7.9,0,0,1-6.7,3,7.7,7.7,0,0,1-8.1-8.1,7.7,7.7,0,0,1,8.1-8.1,8.5,8.5,0,0,1,6.6,2.6" transform="translate(-2.4 -2.5)"/><path class="c" d="M117.5,18.8h-12a4.8,4.8,0,0,0,4.9,4,6,6,0,0,0,4.5-1.9l1.9,2a8.9,8.9,0,0,1-6.6,2.7c-5,0-8.2-3.3-8.2-8.1a7.7,7.7,0,0,1,8.1-8.1c5.6,0,7.9,3.7,7.4,9.4m-3-2.5a4,4,0,0,0-4.4-4.1,4.5,4.5,0,0,0-4.7,4.1Z" transform="translate(-2.4 -2.5)"/><path class="d" d="M34.6,32.3l-2.5,2.9a4.8,4.8,0,0,0-3.4-1.9A3.4,3.4,0,0,0,25.3,37c0,2.2,1.4,3.8,3.4,3.8a5.3,5.3,0,0,0,3.4-1.7l2.5,2.6a8.7,8.7,0,0,1-6.1,2.8,7.3,7.3,0,0,1-7.6-7.4c0-4.2,3.3-7.3,7.7-7.3a8.8,8.8,0,0,1,6,2.5" transform="translate(-2.4 -2.5)"/><path class="d" d="M42.5,40.4H40.2v3.9H35.9V29.9h6.8c3.9,0,6.1,1.8,6.1,5.1a5,5,0,0,1-2.4,4.6l2.9,4.7H44.4Zm.2-3.3a1.8,1.8,0,0,0,2-2,1.8,1.8,0,0,0-2-1.9H40.2v3.9Z" transform="translate(-2.4 -2.5)"/><path class="d" d="M54.5,42l-.9,2.3H49.2l6.2-14.4h4.4l6,14.4H61.2L60.3,42Zm3-7.8-1.8,4.7h3.5Z" transform="translate(-2.4 -2.5)"/><polygon class="d" points="68.7 30.7 68.7 33.5 75.1 33.5 75.1 36.8 68.7 36.8 68.7 41.8 64.4 41.8 64.4 27.4 75.6 27.4 75.6 30.7 68.7 30.7"/><polygon class="d" points="85.5 30.8 85.5 41.8 81.2 41.8 81.2 30.8 77 30.8 77 27.4 89.7 27.4 89.7 30.8 85.5 30.8"/><path class="c" d="M14.5,2.5c-5.9,0-8.2,1.9-8.2,6.7V20c0,2-.7,2.8-2.3,2.8H2.4V26s5.2.4,7.7-1.6h.1c0-.1.1-.1.2-.2h.2c0-.1.1-.1.1-.2a.2.2,0,0,0,.2-.2h0a2.8,2.8,0,0,0,.4-.7h0a9.6,9.6,0,0,0,.4-3.2V11.1c0-2.7,1.3-3.8,5-3.8V2.5Z" transform="translate(-2.4 -2.5)"/><path class="d" d="M16.7,46.5v4.9H14.5c-5.9,0-8.2-1.9-8.2-6.7V33.9a3.7,3.7,0,0,0-.4-2A2,2,0,0,0,4,31.1H2.4V27.9H3.5c1.7,0,4.8.2,6.6,1.7h.3c0,.1,0,.1.1.2a.1.1,0,0,1,.1.1h.1l.2.3a2.8,2.8,0,0,1,.4.7h0c.1.2.1.5.2.8a8.2,8.2,0,0,1,.2,2.3v8.6c0,2.6,1.3,3.7,5,3.7" transform="translate(-2.4 -2.5)"/><path class="d" d="M16.7,27.8l-1.8,4.1h-9A2,2,0,0,0,4,31.1H2.4V27.8Z" transform="translate(-2.4 -2.5)"/></g></svg>