<svg width="24" height="24" viewBox="0 0 24 24" fill="none" xmlns="http://www.w3.org/2000/svg">
<path d="M14.3333 20.5C14.3333 20.8208 14.5958 21.0833 14.9167 21.0833H15.5V23.125C15.5 23.6092 15.8908 24 16.375 24C16.8592 24 17.25 23.6092 17.25 23.125V21.0833H18.4167V23.125C18.4167 23.6092 18.8075 24 19.2917 24C19.7758 24 20.1667 23.6092 20.1667 23.125V21.0833H20.75C21.0708 21.0833 21.3333 20.8208 21.3333 20.5V14.6667H14.3333V20.5ZM12.875 14.6667C12.3908 14.6667 12 15.0575 12 15.5417V19.625C12 20.1092 12.3908 20.5 12.875 20.5C13.3592 20.5 13.75 20.1092 13.75 19.625V15.5417C13.75 15.0575 13.3592 14.6667 12.875 14.6667ZM22.7917 14.6667C22.3075 14.6667 21.9167 15.0575 21.9167 15.5417V19.625C21.9167 20.1092 22.3075 20.5 22.7917 20.5C23.2758 20.5 23.6667 20.1092 23.6667 19.625V15.5417C23.6667 15.0575 23.2758 14.6667 22.7917 14.6667ZM19.8925 11.26L20.6508 10.5017C20.7675 10.385 20.7675 10.2042 20.6508 10.0875C20.5342 9.97083 20.3533 9.97083 20.2367 10.0875L19.3733 10.9508C18.9125 10.7175 18.3875 10.5833 17.8333 10.5833C17.2733 10.5833 16.7483 10.7175 16.2817 10.9508L15.4125 10.0875C15.2958 9.97083 15.115 9.97083 14.9983 10.0875C14.8817 10.2042 14.8817 10.385 14.9983 10.5017L15.7625 11.2658C14.8992 11.9017 14.3333 12.9225 14.3333 14.0833H21.3333C21.3333 12.9225 20.7675 11.8958 19.8925 11.26ZM16.6667 12.9167H16.0833V12.3333H16.6667V12.9167ZM19.5833 12.9167H19V12.3333H19.5833V12.9167Z" fill="#449EFD"/>
<rect width="20" height="0.5" transform="matrix(0.707107 -0.707107 -0.707107 -0.707107 4.70703 17.7783)" fill="#449EFD"/>
<path d="M1.49609 7H0.546875V2.77344H1.49609V7ZM0.488281 1.67578C0.488281 1.52995 0.533854 1.40885 0.625 1.3125C0.71875 1.21615 0.851562 1.16797 1.02344 1.16797C1.19531 1.16797 1.32812 1.21615 1.42188 1.3125C1.51562 1.40885 1.5625 1.52995 1.5625 1.67578C1.5625 1.81901 1.51562 1.9388 1.42188 2.03516C1.32812 2.12891 1.19531 2.17578 1.02344 2.17578C0.851562 2.17578 0.71875 2.12891 0.625 2.03516C0.533854 1.9388 0.488281 1.81901 0.488281 1.67578ZM7.16406 4.30469C7.16406 4.86198 7.06771 5.35156 6.875 5.77344C6.68229 6.19271 6.40625 6.51562 6.04688 6.74219C5.6901 6.96615 5.27865 7.07812 4.8125 7.07812C4.35156 7.07812 3.9401 6.96615 3.57812 6.74219C3.21875 6.51562 2.9401 6.19401 2.74219 5.77734C2.54688 5.36068 2.44792 4.88021 2.44531 4.33594V4.01562C2.44531 3.46094 2.54297 2.97135 2.73828 2.54688C2.9362 2.1224 3.21354 1.79818 3.57031 1.57422C3.92969 1.34766 4.34115 1.23438 4.80469 1.23438C5.26823 1.23438 5.67839 1.34635 6.03516 1.57031C6.39453 1.79167 6.67188 2.11198 6.86719 2.53125C7.0625 2.94792 7.16146 3.43359 7.16406 3.98828V4.30469ZM6.17578 4.00781C6.17578 3.3776 6.05599 2.89453 5.81641 2.55859C5.57943 2.22266 5.24219 2.05469 4.80469 2.05469C4.3776 2.05469 4.04297 2.22266 3.80078 2.55859C3.5612 2.89193 3.4388 3.36458 3.43359 3.97656V4.30469C3.43359 4.92969 3.55469 5.41276 3.79688 5.75391C4.04167 6.09505 4.38021 6.26562 4.8125 6.26562C5.25 6.26562 5.58594 6.09896 5.82031 5.76562C6.05729 5.43229 6.17578 4.94531 6.17578 4.30469V4.00781ZM11.1211 5.53516C11.1211 5.28516 11.0326 5.09245 10.8555 4.95703C10.681 4.82161 10.3646 4.6849 9.90625 4.54688C9.44792 4.40885 9.08333 4.25521 8.8125 4.08594C8.29427 3.76042 8.03516 3.33594 8.03516 2.8125C8.03516 2.35417 8.22135 1.97656 8.59375 1.67969C8.96875 1.38281 9.45443 1.23438 10.0508 1.23438C10.4466 1.23438 10.7995 1.30729 11.1094 1.45312C11.4193 1.59896 11.6628 1.80729 11.8398 2.07812C12.0169 2.34635 12.1055 2.64453 12.1055 2.97266H11.1211C11.1211 2.67578 11.0273 2.44401 10.8398 2.27734C10.6549 2.10807 10.3893 2.02344 10.043 2.02344C9.72005 2.02344 9.46875 2.09245 9.28906 2.23047C9.11198 2.36849 9.02344 2.5612 9.02344 2.80859C9.02344 3.01693 9.11979 3.19141 9.3125 3.33203C9.50521 3.47005 9.82292 3.60547 10.2656 3.73828C10.7083 3.86849 11.0638 4.01823 11.332 4.1875C11.6003 4.35417 11.7969 4.54688 11.9219 4.76562C12.0469 4.98177 12.1094 5.23568 12.1094 5.52734C12.1094 6.0013 11.9271 6.37891 11.5625 6.66016C11.2005 6.9388 10.7083 7.07812 10.0859 7.07812C9.67448 7.07812 9.29557 7.0026 8.94922 6.85156C8.60547 6.69792 8.33724 6.48698 8.14453 6.21875C7.95443 5.95052 7.85938 5.63802 7.85938 5.28125H8.84766C8.84766 5.60417 8.95443 5.85417 9.16797 6.03125C9.38151 6.20833 9.6875 6.29688 10.0859 6.29688C10.4297 6.29688 10.6875 6.22786 10.8594 6.08984C11.0339 5.94922 11.1211 5.76432 11.1211 5.53516Z" fill="#449EFD"/>
</svg>
