<svg xmlns="http://www.w3.org/2000/svg" viewBox="0 0 330 330" fill="#449EFD"><path d="M315 120h-22.689a133.846 133.846 0 00-5.476-13.196l16.05-16.051c5.858-5.857 5.858-15.355 0-21.213L260.46 27.114c-5.857-5.858-15.355-5.858-21.213 0l-16.051 16.05A134.477 134.477 0 00210 37.688V15c0-8.284-6.716-15-15-15h-60c-8.284 0-15 6.716-15 15v22.689a134.208 134.208 0 00-13.195 5.475l-16.051-16.05c-5.857-5.859-15.355-5.858-21.213 0L27.114 69.54a15 15 0 000 21.212l16.051 16.051a134.435 134.435 0 00-5.476 13.196H15c-8.284 0-15 6.716-15 15v60c0 8.284 6.716 15 15 15h22.689a134.334 134.334 0 005.476 13.196l-16.051 16.051a15 15 0 000 21.212l42.428 42.426c5.858 5.859 15.355 5.857 21.213 0l16.051-16.05A134.19 134.19 0 00120 292.309V315c0 8.284 6.716 15 15 15h60c8.284 0 15-6.716 15-15v-22.689a134.375 134.375 0 0013.196-5.476l16.051 16.05c5.857 5.857 15.355 5.857 21.213 0l42.426-42.426c5.858-5.857 5.858-15.355 0-21.213l-16.05-16.051a133.947 133.947 0 005.476-13.196H315c8.284 0 15-6.716 15-15v-60c0-8.283-6.716-14.999-15-14.999zm-15 60h-18.781a15 15 0 00-14.527 11.263 104.182 104.182 0 01-11.227 27.06 15 15 0 002.308 18.237l13.294 13.294-21.213 21.213-13.294-13.294a15.003 15.003 0 00-18.237-2.308 104.282 104.282 0 01-27.062 11.228A15 15 0 00180 281.219V300h-30v-18.781a15 15 0 00-11.261-14.526 104.327 104.327 0 01-27.06-11.228 15 15 0 00-18.237 2.308l-13.294 13.294-21.215-21.213 13.294-13.294a14.998 14.998 0 002.308-18.236 104.312 104.312 0 01-11.228-27.063A14.999 14.999 0 0048.781 180H30v-30h18.781a15 15 0 0014.526-11.261 104.326 104.326 0 0111.228-27.063 14.998 14.998 0 00-2.308-18.236L58.934 80.146l21.214-21.213 13.294 13.294a15 15 0 0018.237 2.308 104.29 104.29 0 0127.061-11.228A15 15 0 00150 48.781V30h30v18.781a15 15 0 0011.261 14.526 104.282 104.282 0 0127.062 11.228 15.002 15.002 0 0018.237-2.308l13.294-13.294 21.213 21.213-13.295 13.294a15 15 0 00-2.308 18.237 104.203 104.203 0 0111.227 27.06A15 15 0 00281.218 150H300v30z"/><path d="M203.95 152.28l-48-30A15 15 0 00132.999 135v60a15 15 0 0022.95 12.72l48-30a15 15 0 00.001-25.44z"/></svg>